<?xml version="1.0" encoding="UTF-8" ?>
<!DOCTYPE svg PUBLIC "-//W3C//DTD SVG 1.1//EN" "http://www.w3.org/Graphics/SVG/1.1/DTD/svg11.dtd">
<svg width="240pt" height="285pt" viewBox="0 0 240 285" version="1.1" xmlns="http://www.w3.org/2000/svg">
<g id="#ffffffff">
<path fill="#ffffff" stroke="#ffffff" stroke-width="0.09375" opacity="1.00" d=" M 94.97 159.24 C 102.67 158.04 110.49 158.48 118.21 159.29 C 112.60 170.64 106.97 181.99 101.22 193.27 C 100.59 194.92 100.08 196.61 99.55 198.30 C 98.05 198.24 96.56 198.17 95.07 198.04 C 94.90 185.10 95.09 172.17 94.97 159.24 Z" />
<path fill="#ffffff" stroke="#ffffff" stroke-width="0.09375" opacity="1.00" d=" M 124.21 158.90 C 131.14 158.44 138.14 158.20 145.05 159.21 C 144.88 172.37 145.15 185.52 144.88 198.68 C 143.76 198.46 142.64 198.23 141.53 197.99 C 140.74 195.95 139.91 193.93 138.96 191.97 C 133.62 182.13 129.01 171.92 123.66 162.09 C 123.79 161.30 124.07 159.70 124.21 158.90 Z" />
</g>
<g id="#f03b2fff">
<path fill="#f03b2f" stroke="#f03b2f" stroke-width="0.09375" opacity="1.00" d=" M 110.62 20.01 C 109.74 13.98 115.95 8.27 121.89 9.69 C 126.76 10.82 130.41 15.97 129.22 20.95 C 128.60 24.13 125.87 26.12 123.60 28.13 C 121.21 28.17 118.82 28.17 116.44 28.16 C 113.93 25.97 110.80 23.65 110.62 20.01 Z" />
<path fill="#f03b2f" stroke="#f03b2f" stroke-width="0.09375" opacity="1.00" d=" M 11.41 126.45 C 12.97 124.78 16.12 124.49 17.16 126.86 C 20.02 131.65 21.45 137.25 25.27 141.47 C 24.31 143.62 23.35 145.77 22.39 147.92 C 21.65 149.54 19.38 148.50 17.99 148.74 C 7.96 147.80 3.65 132.74 11.41 126.45 Z" />
</g>
<g id="#8eb3efff">
<path fill="#8eb3ef" stroke="#8eb3ef" stroke-width="0.09375" opacity="1.00" d=" M 116.44 28.16 C 118.82 28.17 121.21 28.17 123.60 28.13 C 124.43 32.70 125.14 37.33 126.70 41.72 C 122.15 41.89 117.58 41.85 113.03 41.69 C 114.04 37.15 115.23 32.65 116.44 28.16 Z" />
<path fill="#8eb3ef" stroke="#8eb3ef" stroke-width="0.09375" opacity="1.00" d=" M 73.32 52.36 C 74.51 52.11 75.72 51.99 76.94 52.01 C 105.97 52.09 135.01 52.02 164.05 52.04 C 171.03 52.14 176.69 59.07 175.83 65.95 C 175.73 83.30 175.82 100.66 175.80 118.01 C 176.09 124.78 169.67 130.55 163.04 130.20 C 134.35 130.20 105.65 130.19 76.96 130.20 C 70.34 130.52 63.86 124.81 64.19 118.01 C 64.18 100.01 64.18 81.99 64.20 63.99 C 63.89 58.45 68.36 53.99 73.32 52.36 M 91.37 66.26 C 81.40 66.88 72.51 74.49 70.11 84.14 C 68.44 91.43 69.72 99.62 74.52 105.51 C 81.60 114.81 95.67 117.50 105.79 111.76 C 113.60 107.13 118.95 98.16 118.11 88.95 C 118.02 75.52 104.62 64.32 91.37 66.26 M 139.39 67.35 C 131.87 69.70 125.96 76.17 123.72 83.66 C 121.68 91.41 123.18 100.28 128.70 106.29 C 133.66 112.34 141.84 115.24 149.53 114.53 C 161.33 113.69 171.46 102.90 171.30 91.03 C 171.85 82.41 167.03 73.67 159.51 69.47 C 153.63 65.59 146.00 66.24 139.39 67.35 M 103.86 121.91 C 104.31 123.58 105.58 124.85 106.54 126.23 C 107.23 126.45 108.61 126.90 109.29 127.12 C 110.51 126.95 111.72 126.78 112.94 126.61 C 113.51 126.77 114.64 127.09 115.21 127.25 C 116.45 127.08 117.69 126.91 118.94 126.74 C 119.49 126.87 120.58 127.14 121.13 127.27 C 121.87 127.15 123.35 126.91 124.09 126.79 C 124.89 126.79 126.48 126.77 127.28 126.76 C 128.41 126.92 129.54 127.09 130.67 127.27 C 131.37 127.00 132.76 126.47 133.46 126.21 C 134.70 124.92 135.97 123.62 136.76 121.99 C 136.11 119.95 134.59 118.38 133.28 116.74 C 132.47 116.70 130.84 116.62 130.03 116.58 C 129.34 116.58 127.96 116.58 127.27 116.58 C 126.49 116.58 124.92 116.58 124.13 116.58 C 123.57 116.59 122.45 116.61 121.89 116.62 C 120.62 116.60 119.36 116.59 118.09 116.59 C 117.55 116.59 116.47 116.59 115.93 116.59 C 115.11 116.59 113.47 116.58 112.65 116.57 C 111.96 116.57 110.58 116.57 109.88 116.56 C 109.09 116.64 107.50 116.79 106.71 116.87 C 105.64 118.45 103.86 119.87 103.86 121.91 Z" />
<path fill="#8eb3ef" stroke="#8eb3ef" stroke-width="0.09375" opacity="1.00" d=" M 188.50 152.66 C 190.50 156.12 192.42 159.92 195.95 162.06 C 199.65 164.39 204.22 163.94 208.40 163.86 L 209.19 163.82 C 206.81 164.49 204.29 164.83 202.08 165.99 C 197.84 172.71 194.92 180.33 189.50 186.27 C 186.58 182.78 184.04 179.01 181.23 175.44 C 181.08 180.25 181.14 185.07 181.16 189.89 C 177.31 188.21 173.47 186.42 170.07 183.93 C 168.01 182.40 165.73 181.21 163.23 180.61 C 163.27 178.54 163.38 176.48 163.51 174.42 C 164.19 174.24 164.88 174.05 165.56 173.85 C 168.07 171.95 169.85 169.32 171.56 166.72 C 174.20 169.16 177.26 171.08 180.61 172.39 C 183.05 167.93 185.87 163.69 188.17 159.16 C 189.30 157.17 188.57 154.81 188.50 152.66 Z" />
<path fill="#8eb3ef" stroke="#8eb3ef" stroke-width="0.09375" opacity="1.00" d=" M 41.34 163.29 C 45.51 162.08 48.35 158.51 50.54 154.97 C 51.44 159.32 54.25 162.84 56.31 166.67 C 57.41 168.59 58.46 170.60 60.07 172.16 C 62.39 171.14 64.49 169.69 66.70 168.45 C 66.82 167.37 66.93 166.28 67.04 165.20 C 69.32 169.26 71.57 174.12 76.83 174.71 C 76.83 177.02 76.83 179.33 76.81 181.64 C 74.88 181.69 72.94 182.09 71.40 183.33 C 68.11 185.71 64.67 187.92 60.82 189.29 C 60.27 185.17 59.97 181.02 59.31 176.91 C 56.97 180.91 54.00 184.97 54.10 189.82 C 47.17 183.39 43.19 174.55 38.38 166.56 C 36.47 164.57 33.27 164.74 30.80 163.84 L 31.60 163.86 C 34.85 163.93 38.16 164.08 41.34 163.29 Z" />
</g>
<g id="#113c80ff">
<path fill="#113c80" stroke="#113c80" stroke-width="0.09375" opacity="1.00" d=" M 54.20 55.00 C 53.92 47.32 61.78 41.55 68.96 41.57 C 83.65 41.67 98.34 41.46 113.03 41.69 C 117.58 41.85 122.15 41.89 126.70 41.72 C 141.48 41.43 156.27 41.69 171.05 41.57 C 178.23 41.54 186.04 47.33 185.80 54.98 C 185.85 78.99 185.84 103.00 185.81 127.01 C 186.29 133.42 180.56 138.40 174.96 140.27 C 161.24 140.77 147.47 140.12 133.74 140.57 C 124.69 140.82 115.63 140.85 106.58 140.56 C 94.05 140.28 81.51 140.48 68.97 140.46 C 61.30 141.05 53.23 133.94 54.16 126.00 C 54.20 102.33 54.12 78.66 54.20 55.00 M 61.96 49.31 C 61.67 50.46 61.38 51.61 61.10 52.76 C 62.24 52.71 63.39 52.65 64.54 52.60 C 64.48 51.64 64.42 50.69 64.37 49.74 C 63.77 49.63 62.57 49.41 61.96 49.31 M 174.69 49.61 C 174.61 50.61 174.53 51.60 174.46 52.60 C 175.81 52.62 177.15 52.63 178.50 52.63 C 178.45 51.61 178.39 50.59 178.34 49.57 C 177.12 49.58 175.90 49.60 174.69 49.61 M 73.32 52.36 C 68.36 53.99 63.89 58.45 64.20 63.99 C 64.18 81.99 64.18 100.01 64.19 118.01 C 63.86 124.81 70.34 130.52 76.96 130.20 C 105.65 130.19 134.35 130.20 163.04 130.20 C 169.67 130.55 176.09 124.78 175.80 118.01 C 175.82 100.66 175.73 83.30 175.83 65.95 C 176.69 59.07 171.03 52.14 164.05 52.04 C 135.01 52.02 105.97 52.09 76.94 52.01 C 75.72 51.99 74.51 52.11 73.32 52.36 M 61.17 129.64 C 61.56 130.95 61.72 132.32 61.73 133.68 C 62.45 133.56 63.90 133.32 64.62 133.19 C 64.41 131.89 64.28 130.59 64.21 129.27 C 63.45 129.37 61.93 129.55 61.17 129.64 M 174.72 129.60 C 174.64 130.62 174.57 131.64 174.49 132.67 C 175.69 133.02 176.89 133.38 178.10 133.74 C 178.21 132.37 178.34 131.00 178.51 129.64 C 177.25 129.63 175.98 129.62 174.72 129.60 Z" />
<path fill="#113c80" stroke="#113c80" stroke-width="0.09375" opacity="1.00" d=" M 46.16 139.47 C 47.77 138.64 49.64 137.97 51.45 138.54 C 53.89 143.79 53.77 150.08 50.54 154.97 C 48.35 158.51 45.51 162.08 41.34 163.29 C 38.16 164.08 34.85 163.93 31.60 163.86 C 26.21 163.10 21.12 159.55 18.80 154.59 C 20.17 153.79 21.53 152.95 22.93 152.20 C 30.96 148.47 38.61 144.07 46.16 139.47 M 36.00 150.23 C 35.75 151.35 35.69 152.50 35.79 153.66 C 37.03 153.62 38.28 153.58 39.53 153.54 C 39.54 152.40 39.55 151.25 39.57 150.11 C 38.38 150.11 37.19 150.15 36.00 150.23 Z" />
<path fill="#113c80" stroke="#113c80" stroke-width="0.09375" opacity="1.00" d=" M 188.00 139.85 C 189.13 137.35 192.10 138.47 193.89 139.48 C 201.49 143.85 209.17 148.09 216.95 152.13 C 218.41 152.94 219.84 153.78 221.30 154.60 C 219.08 159.68 213.82 163.15 208.40 163.86 C 204.22 163.94 199.65 164.39 195.95 162.06 C 192.42 159.92 190.50 156.12 188.50 152.66 C 186.69 148.70 187.22 144.01 188.00 139.85 M 200.26 150.29 C 200.28 151.41 200.29 152.54 200.31 153.67 C 200.92 153.65 202.13 153.63 202.74 153.61 C 202.77 152.50 202.81 151.39 202.85 150.27 C 202.20 150.28 200.91 150.28 200.26 150.29 Z" />
<path fill="#113c80" stroke="#113c80" stroke-width="0.09375" opacity="1.00" d=" M 77.73 151.71 C 79.67 148.63 83.11 146.03 86.92 146.37 C 93.38 146.37 99.83 146.36 106.28 146.48 C 116.10 146.31 125.91 146.31 135.73 146.49 C 141.51 146.37 147.30 146.35 153.08 146.37 C 157.67 146.05 161.71 149.66 163.25 153.77 C 163.43 160.65 163.87 167.54 163.51 174.42 C 163.38 176.48 163.27 178.54 163.23 180.61 C 163.12 187.76 163.39 194.92 163.17 202.07 C 163.16 206.17 159.62 209.73 155.77 210.64 C 152.89 211.57 149.86 211.05 146.91 210.92 C 129.32 211.05 111.71 210.68 94.12 211.16 C 88.02 211.67 80.02 211.32 77.24 204.77 C 76.17 197.13 77.03 189.34 76.81 181.64 C 76.83 179.33 76.83 177.02 76.83 174.71 C 71.57 174.12 69.32 169.26 67.04 165.20 C 66.04 163.52 64.40 161.20 66.22 159.46 C 68.43 156.49 71.69 154.73 75.45 154.97 C 75.46 157.22 75.47 159.47 75.52 161.73 C 75.77 161.71 76.26 161.69 76.50 161.67 C 76.64 158.36 75.83 154.68 77.73 151.71 M 82.18 153.78 C 82.64 154.82 83.10 155.85 83.56 156.89 C 85.78 156.82 86.79 155.35 86.89 153.23 C 85.32 153.39 83.75 153.58 82.18 153.78 M 154.18 153.24 C 154.28 154.45 154.39 155.67 154.50 156.88 C 156.57 156.85 157.85 155.61 157.90 153.53 C 156.66 153.43 155.42 153.33 154.18 153.24 M 87.81 161.01 C 87.38 170.99 87.82 181.01 87.61 191.00 C 87.71 193.90 87.13 197.44 89.65 199.54 C 90.68 200.88 92.43 200.80 93.95 200.87 C 109.97 200.83 125.99 200.77 142.00 200.88 C 145.41 200.86 149.58 201.57 151.73 198.20 C 152.76 192.52 152.12 186.74 152.29 181.00 C 152.10 173.86 152.98 166.62 151.58 159.55 C 149.91 158.06 148.32 156.18 145.98 155.82 C 130.69 156.75 115.32 156.26 100.00 156.21 C 95.57 155.28 89.15 155.76 87.81 161.01 M 82.44 202.33 C 82.53 203.32 82.62 204.33 82.71 205.33 C 83.99 205.45 85.27 205.59 86.55 205.73 C 86.57 204.45 86.60 203.18 86.62 201.91 C 85.23 202.05 83.83 202.20 82.44 202.33 M 154.20 202.24 C 154.26 203.34 154.32 204.45 154.38 205.56 C 155.42 205.54 156.45 205.52 157.49 205.50 C 157.53 204.44 157.57 203.38 157.61 202.33 C 156.47 202.29 155.34 202.26 154.20 202.24 Z" />
</g>
<g id="#c7c7e3ff">
<path fill="#c7c7e3" stroke="#c7c7e3" stroke-width="0.09375" opacity="1.00" d=" M 61.96 49.31 C 62.57 49.41 63.77 49.63 64.37 49.74 C 64.42 50.69 64.48 51.64 64.54 52.60 C 63.39 52.65 62.24 52.71 61.10 52.76 C 61.38 51.61 61.67 50.46 61.96 49.31 Z" />
<path fill="#c7c7e3" stroke="#c7c7e3" stroke-width="0.09375" opacity="1.00" d=" M 61.17 129.64 C 61.93 129.55 63.45 129.37 64.21 129.27 C 64.28 130.59 64.41 131.89 64.62 133.19 C 63.90 133.32 62.45 133.56 61.73 133.68 C 61.72 132.32 61.56 130.95 61.17 129.64 Z" />
<path fill="#c7c7e3" stroke="#c7c7e3" stroke-width="0.09375" opacity="1.00" d=" M 82.18 153.78 C 83.75 153.58 85.32 153.39 86.89 153.23 C 86.79 155.35 85.78 156.82 83.56 156.89 C 83.10 155.85 82.64 154.82 82.18 153.78 Z" />
</g>
<g id="#c4bddeff">
<path fill="#c4bdde" stroke="#c4bdde" stroke-width="0.09375" opacity="1.00" d=" M 174.69 49.61 C 175.90 49.60 177.12 49.58 178.34 49.57 C 178.39 50.59 178.45 51.61 178.50 52.63 C 177.15 52.63 175.81 52.62 174.46 52.60 C 174.53 51.60 174.61 50.61 174.69 49.61 Z" />
<path fill="#c4bdde" stroke="#c4bdde" stroke-width="0.09375" opacity="1.00" d=" M 200.26 150.29 C 200.91 150.28 202.20 150.28 202.85 150.27 C 202.81 151.39 202.77 152.50 202.74 153.61 C 202.13 153.63 200.92 153.65 200.31 153.67 C 200.29 152.54 200.28 151.41 200.26 150.29 Z" />
<path fill="#c4bdde" stroke="#c4bdde" stroke-width="0.09375" opacity="1.00" d=" M 154.18 153.24 C 155.42 153.33 156.66 153.43 157.90 153.53 C 157.85 155.61 156.57 156.85 154.50 156.88 C 154.39 155.67 154.28 154.45 154.18 153.24 Z" />
<path fill="#c4bdde" stroke="#c4bdde" stroke-width="0.09375" opacity="1.00" d=" M 87.81 161.01 C 89.15 155.76 95.57 155.28 100.00 156.21 C 115.32 156.26 130.69 156.75 145.98 155.82 C 148.32 156.18 149.91 158.06 151.58 159.55 C 150.99 167.92 152.14 176.35 150.65 184.65 C 148.35 177.74 150.56 170.45 149.27 163.42 C 149.06 161.14 146.87 160.07 145.05 159.21 C 138.14 158.20 131.14 158.44 124.21 158.90 C 124.07 159.70 123.79 161.30 123.66 162.09 C 123.05 161.18 122.42 160.30 121.79 159.41 C 120.59 159.37 119.40 159.35 118.21 159.29 C 110.49 158.48 102.67 158.04 94.97 159.24 C 93.66 159.71 92.28 160.17 91.23 161.12 C 90.13 163.92 90.34 167.02 90.28 169.97 C 90.55 178.76 90.13 187.56 90.60 196.34 C 92.08 196.93 93.56 197.52 95.07 198.04 C 96.56 198.17 98.05 198.24 99.55 198.30 C 100.08 196.61 100.59 194.92 101.22 193.27 C 101.31 193.76 101.48 194.72 101.57 195.20 C 103.45 195.72 105.33 196.24 107.20 196.84 C 115.48 200.05 124.52 198.09 133.16 198.30 C 132.42 196.55 131.69 194.79 130.92 193.06 C 132.94 196.10 136.68 195.78 139.89 195.83 C 139.60 194.54 139.31 193.25 138.96 191.97 C 139.91 193.93 140.74 195.95 141.53 197.99 C 142.64 198.23 143.76 198.46 144.88 198.68 C 149.61 197.84 149.60 192.18 150.92 188.57 C 151.20 191.78 151.57 194.98 151.73 198.20 C 149.58 201.57 145.41 200.86 142.00 200.88 C 125.99 200.77 109.97 200.83 93.95 200.87 C 92.43 200.80 90.68 200.88 89.65 199.54 C 87.13 197.44 87.71 193.90 87.61 191.00 C 87.82 181.01 87.38 170.99 87.81 161.01 Z" />
</g>
<g id="#0f3a7eff">
<path fill="#0f3a7e" stroke="#0f3a7e" stroke-width="0.09375" opacity="1.00" d=" M 91.37 66.26 C 104.62 64.32 118.02 75.52 118.11 88.95 C 118.95 98.16 113.60 107.13 105.79 111.76 C 95.67 117.50 81.60 114.81 74.52 105.51 C 69.72 99.62 68.44 91.43 70.11 84.14 C 72.51 74.49 81.40 66.88 91.37 66.26 M 89.30 72.01 C 80.64 73.79 74.61 82.40 74.75 91.03 C 75.26 95.66 76.91 100.37 80.31 103.67 C 85.88 109.41 95.22 111.03 102.32 107.29 C 109.07 104.07 113.36 96.37 112.58 88.95 C 112.22 77.75 100.08 68.94 89.30 72.01 Z" />
<path fill="#0f3a7e" stroke="#0f3a7e" stroke-width="0.09375" opacity="1.00" d=" M 139.39 67.35 C 146.00 66.24 153.63 65.59 159.51 69.47 C 167.03 73.67 171.85 82.41 171.30 91.03 C 171.46 102.90 161.33 113.69 149.53 114.53 C 141.84 115.24 133.66 112.34 128.70 106.29 C 123.18 100.28 121.68 91.41 123.72 83.66 C 125.96 76.17 131.87 69.70 139.39 67.35 M 141.35 72.32 C 133.79 74.53 127.95 82.03 128.34 90.02 C 127.49 99.88 136.21 109.04 145.97 109.33 C 153.35 109.96 160.51 105.47 163.99 99.09 C 166.31 94.95 165.72 89.96 165.37 85.42 C 163.07 75.21 151.18 68.78 141.35 72.32 Z" />
</g>
<g id="#efecfeff">
<path fill="#efecfe" stroke="#efecfe" stroke-width="0.09375" opacity="1.00" d=" M 89.30 72.01 C 100.08 68.94 112.22 77.75 112.58 88.95 C 113.36 96.37 109.07 104.07 102.32 107.29 C 95.22 111.03 85.88 109.41 80.31 103.67 C 76.91 100.37 75.26 95.66 74.75 91.03 C 74.61 82.40 80.64 73.79 89.30 72.01 M 90.45 80.67 C 85.65 82.61 81.93 88.47 84.15 93.56 C 85.77 98.33 91.02 101.67 96.04 100.37 C 100.00 99.15 104.10 95.53 103.35 91.01 C 105.04 83.89 96.85 78.45 90.45 80.67 M 104.21 88.74 C 103.47 89.76 103.79 91.33 104.27 92.42 C 106.00 92.49 106.02 88.54 104.21 88.74 Z" />
</g>
<g id="#efedfeff">
<path fill="#efedfe" stroke="#efedfe" stroke-width="0.09375" opacity="1.00" d=" M 141.35 72.32 C 151.18 68.78 163.07 75.21 165.37 85.42 C 165.72 89.96 166.31 94.95 163.99 99.09 C 160.51 105.47 153.35 109.96 145.97 109.33 C 136.21 109.04 127.49 99.88 128.34 90.02 C 127.95 82.03 133.79 74.53 141.35 72.32 M 143.49 80.75 C 139.91 82.08 137.47 85.46 136.62 89.09 C 136.03 93.51 138.99 98.16 143.12 99.75 C 149.29 102.80 157.55 96.81 156.70 90.04 C 157.00 83.45 149.56 78.61 143.49 80.75 Z" />
</g>
<g id="#200235ff">
<path fill="#200235" stroke="#200235" stroke-width="0.09375" opacity="1.00" d=" M 90.45 80.67 C 96.85 78.45 105.04 83.89 103.35 91.01 C 104.10 95.53 100.00 99.15 96.04 100.37 C 91.02 101.67 85.77 98.33 84.15 93.56 C 81.93 88.47 85.65 82.61 90.45 80.67 Z" />
<path fill="#200235" stroke="#200235" stroke-width="0.09375" opacity="1.00" d=" M 143.49 80.75 C 149.56 78.61 157.00 83.45 156.70 90.04 C 157.55 96.81 149.29 102.80 143.12 99.75 C 138.99 98.16 136.03 93.51 136.62 89.09 C 137.47 85.46 139.91 82.08 143.49 80.75 Z" />
</g>
<g id="#bdb2cbff">
<path fill="#bdb2cb" stroke="#bdb2cb" stroke-width="0.09375" opacity="1.00" d=" M 104.21 88.74 C 106.02 88.54 106.00 92.49 104.27 92.42 C 103.79 91.33 103.47 89.76 104.21 88.74 Z" />
</g>
<g id="#f03a2fff">
<path fill="#f03a2f" stroke="#f03a2f" stroke-width="0.09375" opacity="1.00" d=" M 28.38 119.72 C 27.19 116.51 31.18 114.18 33.96 114.71 C 40.68 115.55 47.82 120.69 47.80 128.04 C 48.20 131.21 46.55 134.01 44.72 136.44 C 41.95 136.20 39.18 135.98 36.39 136.05 C 35.54 129.79 30.95 125.21 28.38 119.72 Z" />
<path fill="#f03a2f" stroke="#f03a2f" stroke-width="0.09375" opacity="1.00" d=" M 223.38 126.41 C 224.46 124.44 227.29 125.02 228.66 126.35 C 235.69 131.99 233.13 144.65 225.08 148.04 C 222.85 148.79 220.49 148.97 218.19 149.37 C 217.17 146.72 216.14 144.07 214.74 141.59 C 218.84 137.26 220.19 131.29 223.38 126.41 Z" />
</g>
<g id="#f03b30ff">
<path fill="#f03b30" stroke="#f03b30" stroke-width="0.09375" opacity="1.00" d=" M 192.27 128.04 C 192.46 120.49 199.96 115.12 207.00 114.68 C 209.65 114.45 212.89 116.84 211.70 119.75 C 209.27 125.27 204.81 129.85 203.72 135.99 C 200.93 135.94 198.16 136.19 195.40 136.46 C 193.73 133.96 191.86 131.22 192.27 128.04 Z" />
</g>
<g id="#fdc75cff">
<path fill="#fdc75c" stroke="#fdc75c" stroke-width="0.09375" opacity="1.00" d=" M 103.86 121.91 C 103.86 119.87 105.64 118.45 106.71 116.87 C 106.70 119.99 106.64 123.11 106.54 126.23 C 105.58 124.85 104.31 123.58 103.86 121.91 Z" />
</g>
<g id="#f76038ff">
<path fill="#f76038" stroke="#f76038" stroke-width="0.09375" opacity="1.00" d=" M 106.71 116.87 C 107.50 116.79 109.09 116.64 109.88 116.56 C 109.68 120.08 109.51 123.60 109.29 127.12 C 108.61 126.90 107.23 126.45 106.54 126.23 C 106.64 123.11 106.70 119.99 106.71 116.87 Z" />
</g>
<g id="#fec862ff">
<path fill="#fec862" stroke="#fec862" stroke-width="0.09375" opacity="1.00" d=" M 109.88 116.56 C 110.58 116.57 111.96 116.57 112.65 116.57 C 112.65 119.92 112.61 123.27 112.94 126.61 C 111.72 126.78 110.51 126.95 109.29 127.12 C 109.51 123.60 109.68 120.08 109.88 116.56 Z" />
</g>
<g id="#f65f39ff">
<path fill="#f65f39" stroke="#f65f39" stroke-width="0.09375" opacity="1.00" d=" M 112.65 116.57 C 113.47 116.58 115.11 116.59 115.93 116.59 C 115.71 120.15 115.52 123.70 115.21 127.25 C 114.64 127.09 113.51 126.77 112.94 126.61 C 112.61 123.27 112.65 119.92 112.65 116.57 Z" />
</g>
<g id="#fcc568ff">
<path fill="#fcc568" stroke="#fcc568" stroke-width="0.09375" opacity="1.00" d=" M 115.93 116.59 C 116.47 116.59 117.55 116.59 118.09 116.59 C 118.28 119.98 118.36 123.39 118.94 126.74 C 117.69 126.91 116.45 127.08 115.21 127.25 C 115.52 123.70 115.71 120.15 115.93 116.59 Z" />
</g>
<g id="#f6643bff">
<path fill="#f6643b" stroke="#f6643b" stroke-width="0.09375" opacity="1.00" d=" M 118.09 116.59 C 119.36 116.59 120.62 116.60 121.89 116.62 C 121.67 120.17 121.47 123.73 121.13 127.27 C 120.58 127.14 119.49 126.87 118.94 126.74 C 118.36 123.39 118.28 119.98 118.09 116.59 Z" />
</g>
<g id="#fcc365ff">
<path fill="#fcc365" stroke="#fcc365" stroke-width="0.09375" opacity="1.00" d=" M 121.89 116.62 C 122.45 116.61 123.57 116.59 124.13 116.58 C 124.14 119.98 124.12 123.39 124.09 126.79 C 123.35 126.91 121.87 127.15 121.13 127.27 C 121.47 123.73 121.67 120.17 121.89 116.62 Z" />
</g>
<g id="#f7633cff">
<path fill="#f7633c" stroke="#f7633c" stroke-width="0.09375" opacity="1.00" d=" M 124.13 116.58 C 124.92 116.58 126.49 116.58 127.27 116.58 C 127.28 119.98 127.29 123.37 127.28 126.76 C 126.48 126.77 124.89 126.79 124.09 126.79 C 124.12 123.39 124.14 119.98 124.13 116.58 Z" />
</g>
<g id="#fed367ff">
<path fill="#fed367" stroke="#fed367" stroke-width="0.09375" opacity="1.00" d=" M 127.27 116.58 C 127.96 116.58 129.34 116.58 130.03 116.58 C 130.22 120.14 130.40 123.71 130.67 127.27 C 129.54 127.09 128.41 126.92 127.28 126.76 C 127.29 123.37 127.28 119.98 127.27 116.58 Z" />
</g>
<g id="#f66139ff">
<path fill="#f66139" stroke="#f66139" stroke-width="0.09375" opacity="1.00" d=" M 130.03 116.58 C 130.84 116.62 132.47 116.70 133.28 116.74 C 133.34 119.89 133.47 123.05 133.46 126.21 C 132.76 126.47 131.37 127.00 130.67 127.27 C 130.40 123.71 130.22 120.14 130.03 116.58 Z" />
</g>
<g id="#fec65cff">
<path fill="#fec65c" stroke="#fec65c" stroke-width="0.09375" opacity="1.00" d=" M 133.28 116.74 C 134.59 118.38 136.11 119.95 136.76 121.99 C 135.97 123.62 134.70 124.92 133.46 126.21 C 133.47 123.05 133.34 119.89 133.28 116.74 Z" />
</g>
<g id="#bbc4deff">
<path fill="#bbc4de" stroke="#bbc4de" stroke-width="0.09375" opacity="1.00" d=" M 174.72 129.60 C 175.98 129.62 177.25 129.63 178.51 129.64 C 178.34 131.00 178.21 132.37 178.10 133.74 C 176.89 133.38 175.69 133.02 174.49 132.67 C 174.57 131.64 174.64 130.62 174.72 129.60 Z" />
</g>
<g id="#ef8009ff">
<path fill="#ef8009" stroke="#ef8009" stroke-width="0.09375" opacity="1.00" d=" M 25.27 141.47 C 28.79 139.32 32.26 136.84 36.39 136.05 C 39.18 135.98 41.95 136.20 44.72 136.44 C 45.19 137.45 45.67 138.46 46.16 139.47 C 38.61 144.07 30.96 148.47 22.93 152.20 C 22.66 150.78 22.48 149.36 22.39 147.92 C 23.35 145.77 24.31 143.62 25.27 141.47 Z" />
</g>
<g id="#ee7f09ff">
<path fill="#ee7f09" stroke="#ee7f09" stroke-width="0.09375" opacity="1.00" d=" M 195.40 136.46 C 198.16 136.19 200.93 135.94 203.72 135.99 C 207.77 136.97 211.45 139.09 214.74 141.59 C 216.14 144.07 217.17 146.72 218.19 149.37 C 217.88 150.06 217.26 151.44 216.95 152.13 C 209.17 148.09 201.49 143.85 193.89 139.48 C 194.40 138.48 194.90 137.47 195.40 136.46 Z" />
</g>
<g id="#8eb2eeff">
<path fill="#8eb2ee" stroke="#8eb2ee" stroke-width="0.09375" opacity="1.00" d=" M 106.58 140.56 C 115.63 140.85 124.69 140.82 133.74 140.57 C 134.14 140.56 134.93 140.54 135.33 140.52 C 135.42 142.51 135.54 144.50 135.73 146.49 C 125.91 146.31 116.10 146.31 106.28 146.48 C 106.44 144.51 106.54 142.53 106.58 140.56 Z" />
</g>
<g id="#afb6d4ff">
<path fill="#afb6d4" stroke="#afb6d4" stroke-width="0.09375" opacity="1.00" d=" M 36.00 150.23 C 37.19 150.15 38.38 150.11 39.57 150.11 C 39.55 151.25 39.54 152.40 39.53 153.54 C 38.28 153.58 37.03 153.62 35.79 153.66 C 35.69 152.50 35.75 151.35 36.00 150.23 Z" />
<path fill="#afb6d4" stroke="#afb6d4" stroke-width="0.09375" opacity="1.00" d=" M 163.25 153.77 C 165.23 154.30 167.20 154.91 169.15 155.57 C 167.68 155.55 166.21 155.54 164.74 155.52 C 164.84 161.63 163.30 167.97 165.56 173.85 C 164.88 174.05 164.19 174.24 163.51 174.42 C 163.87 167.54 163.43 160.65 163.25 153.77 Z" />
</g>
<g id="#103b7fff">
<path fill="#103b7f" stroke="#103b7f" stroke-width="0.09375" opacity="1.00" d=" M 164.74 155.52 C 166.21 155.54 167.68 155.55 169.15 155.57 C 170.84 157.08 172.71 158.43 174.17 160.19 C 175.08 162.70 172.59 164.66 171.56 166.72 C 169.85 169.32 168.07 171.95 165.56 173.85 C 163.30 167.97 164.84 161.63 164.74 155.52 Z" />
</g>
<g id="#79a4ebff">
<path fill="#79a4eb" stroke="#79a4eb" stroke-width="0.09375" opacity="1.00" d=" M 91.23 161.12 C 92.28 160.17 93.66 159.71 94.97 159.24 C 95.09 172.17 94.90 185.10 95.07 198.04 C 93.56 197.52 92.08 196.93 90.60 196.34 C 90.13 187.56 90.55 178.76 90.28 169.97 C 90.34 167.02 90.13 163.92 91.23 161.12 Z" />
</g>
<g id="#0f4c8fff">
<path fill="#0f4c8f" stroke="#0f4c8f" stroke-width="0.09375" opacity="1.00" d=" M 118.21 159.29 C 119.40 159.35 120.59 159.37 121.79 159.41 C 122.42 160.30 123.05 161.18 123.66 162.09 C 129.01 171.92 133.62 182.13 138.96 191.97 C 139.31 193.25 139.60 194.54 139.89 195.83 C 136.68 195.78 132.94 196.10 130.92 193.06 C 127.91 186.39 124.25 180.04 121.29 173.35 C 120.83 173.36 119.91 173.38 119.44 173.39 C 115.36 181.20 112.06 189.46 107.20 196.84 C 105.33 196.24 103.45 195.72 101.57 195.20 C 101.48 194.72 101.31 193.76 101.22 193.27 C 106.97 181.99 112.60 170.64 118.21 159.29 Z" />
</g>
<g id="#79a4eaff">
<path fill="#79a4ea" stroke="#79a4ea" stroke-width="0.09375" opacity="1.00" d=" M 145.05 159.21 C 146.87 160.07 149.06 161.14 149.27 163.42 C 150.56 170.45 148.35 177.74 150.65 184.65 C 152.14 176.35 150.99 167.92 151.58 159.55 C 152.98 166.62 152.10 173.86 152.29 181.00 C 152.12 186.74 152.76 192.52 151.73 198.20 C 151.57 194.98 151.20 191.78 150.92 188.57 C 149.60 192.18 149.61 197.84 144.88 198.68 C 145.15 185.52 144.88 172.37 145.05 159.21 Z" />
</g>
<g id="#fffffeff">
<path fill="#fffffe" stroke="#fffffe" stroke-width="0.09375" opacity="1.00" d=" M 119.44 173.39 C 119.91 173.38 120.83 173.36 121.29 173.35 C 124.25 180.04 127.91 186.39 130.92 193.06 C 131.69 194.79 132.42 196.55 133.16 198.30 C 124.52 198.09 115.48 200.05 107.20 196.84 C 112.06 189.46 115.36 181.20 119.44 173.39 Z" />
</g>
<g id="#130227ff">
<path fill="#130227" stroke="#130227" stroke-width="0.09375" opacity="1.00" d=" M 181.23 175.44 C 184.04 179.01 186.58 182.78 189.50 186.27 C 187.47 188.92 184.47 190.13 181.16 189.89 C 181.14 185.07 181.08 180.25 181.23 175.44 Z" />
</g>
<g id="#0a011cff">
<path fill="#0a011c" stroke="#0a011c" stroke-width="0.09375" opacity="1.00" d=" M 54.10 189.82 C 54.00 184.97 56.97 180.91 59.31 176.91 C 59.97 181.02 60.27 185.17 60.82 189.29 C 58.59 189.57 56.34 189.69 54.10 189.82 Z" />
</g>
<g id="#b3b9d9ff">
<path fill="#b3b9d9" stroke="#b3b9d9" stroke-width="0.09375" opacity="1.00" d=" M 82.44 202.33 C 83.83 202.20 85.23 202.05 86.62 201.91 C 86.60 203.18 86.57 204.45 86.55 205.73 C 85.27 205.59 83.99 205.45 82.71 205.33 C 82.62 204.33 82.53 203.32 82.44 202.33 Z" />
</g>
<g id="#bfc3dfff">
<path fill="#bfc3df" stroke="#bfc3df" stroke-width="0.09375" opacity="1.00" d=" M 154.20 202.24 C 155.34 202.26 156.47 202.29 157.61 202.33 C 157.57 203.38 157.53 204.44 157.49 205.50 C 156.45 205.52 155.42 205.54 154.38 205.56 C 154.32 204.45 154.26 203.34 154.20 202.24 Z" />
</g>
<g id="#8cafeaff">
<path fill="#8cafea" stroke="#8cafea" stroke-width="0.09375" opacity="1.00" d=" M 94.12 211.16 C 111.71 210.68 129.32 211.05 146.91 210.92 C 146.73 211.45 146.36 212.50 146.18 213.02 C 149.43 213.04 152.68 213.06 155.94 213.08 C 156.04 213.53 156.24 214.42 156.34 214.86 C 148.61 214.86 140.89 214.27 133.16 214.31 C 116.81 215.03 100.42 213.75 84.09 215.10 C 84.07 214.58 84.03 213.55 84.01 213.03 C 87.62 213.04 91.22 213.05 94.82 213.04 C 94.65 212.57 94.30 211.63 94.12 211.16 Z" />
</g>
<g id="#123d81ff">
<path fill="#123d81" stroke="#123d81" stroke-width="0.09375" opacity="1.00" d=" M 84.09 215.10 C 100.42 213.75 116.81 215.03 133.16 214.31 C 140.89 214.27 148.61 214.86 156.34 214.86 C 156.12 224.33 152.19 233.98 144.85 240.11 C 129.91 240.59 114.93 240.13 99.98 240.33 C 97.66 240.21 94.85 240.88 93.15 238.83 C 86.96 232.67 82.98 223.96 83.06 215.18 L 84.09 215.10 Z" />
</g>
<g id="#ec7201ff">
<path fill="#ec7201" stroke="#ec7201" stroke-width="0.09375" opacity="1.00" d=" M 83.50 245.62 C 85.63 245.19 87.82 245.37 89.98 245.35 C 111.31 245.44 132.64 245.31 153.96 245.40 C 155.73 245.24 158.26 246.62 157.61 248.68 C 157.28 251.29 154.06 251.28 152.06 251.31 C 129.72 251.20 107.37 251.38 85.03 251.23 C 81.89 251.39 80.20 246.77 83.50 245.62 Z" />
</g>
<g id="#eb6b03ff">
<path fill="#eb6b03" stroke="#eb6b03" stroke-width="0.09375" opacity="1.00" d=" M 94.62 258.71 C 98.34 257.82 102.22 258.42 106.00 258.28 C 119.46 258.46 132.94 257.92 146.38 258.57 C 146.58 259.73 146.77 260.89 146.96 262.06 C 143.69 264.24 139.69 263.52 136.00 263.58 C 123.07 263.52 110.14 263.63 97.22 263.55 C 94.64 263.88 91.98 260.58 94.62 258.71 Z" />
</g>
<g id="#ec7605ff">
<path fill="#ec7605" stroke="#ec7605" stroke-width="0.09375" opacity="1.00" d=" M 108.40 270.48 C 115.77 270.24 123.20 270.16 130.57 270.53 C 134.40 271.70 132.27 276.87 128.94 276.70 C 122.65 276.78 116.35 276.75 110.06 276.72 C 106.58 277.01 104.50 271.63 108.40 270.48 Z" />
</g>
</svg>
