<?xml version="1.0" encoding="UTF-8" ?>
<!DOCTYPE svg PUBLIC "-//W3C//DTD SVG 1.1//EN" "http://www.w3.org/Graphics/SVG/1.1/DTD/svg11.dtd">
<svg width="600pt" height="600pt" viewBox="0 0 600 600" version="1.1" xmlns="http://www.w3.org/2000/svg">
<path fill="#ffffff" stroke="#ffffff" stroke-width="0.09375" opacity="1.00" d=" M 0.00 0.00 L 297.80 0.00 C 295.37 0.90 292.87 1.59 290.37 2.22 C 279.09 7.06 272.99 20.98 277.15 32.55 C 280.07 39.91 286.23 46.01 294.06 47.82 C 293.60 47.87 292.68 47.99 292.22 48.04 C 289.06 58.90 286.45 69.93 283.94 80.96 L 283.71 81.98 C 247.47 82.03 211.23 81.99 174.98 82.00 C 170.75 82.08 166.42 81.56 162.28 82.67 C 161.34 82.83 160.41 82.98 159.48 83.14 C 158.48 83.72 157.49 84.31 156.49 84.90 C 156.03 84.96 155.10 85.08 154.63 85.14 C 146.37 89.61 139.85 96.89 136.16 105.52 C 136.05 105.99 135.83 106.92 135.72 107.39 C 135.17 109.49 134.78 111.63 134.17 113.72 C 133.75 172.47 134.16 231.24 133.96 289.99 C 133.94 292.55 134.01 295.12 134.56 297.63 C 134.93 299.29 135.26 300.97 135.68 302.63 C 135.80 303.10 136.06 304.03 136.18 304.50 C 139.22 311.34 143.80 317.55 149.95 321.89 C 152.12 323.21 154.30 324.52 156.45 325.87 C 156.94 325.96 157.92 326.13 158.41 326.21 C 160.15 326.78 161.92 327.27 163.65 327.87 C 198.08 328.21 232.51 327.85 266.94 328.05 L 266.99 329.04 C 267.08 333.47 266.98 337.91 266.96 342.35 L 266.95 343.00 C 248.88 343.10 230.79 342.78 212.72 343.16 C 211.31 343.60 209.88 343.94 208.46 344.29 C 201.79 346.87 196.14 351.98 193.14 358.48 C 193.00 358.95 192.72 359.89 192.58 360.36 C 191.25 368.01 192.43 375.84 191.93 383.56 L 190.84 384.27 C 190.61 384.42 190.16 384.70 189.93 384.84 L 189.01 385.16 C 189.01 378.15 188.96 371.15 189.05 364.14 C 186.85 364.74 184.60 365.15 182.39 365.71 C 181.93 365.82 181.00 366.05 180.53 366.16 C 176.39 368.31 172.01 370.30 168.73 373.72 C 166.59 375.96 164.74 378.47 162.97 381.00 C 165.85 385.75 169.81 389.74 172.61 394.55 C 172.74 394.80 173.01 395.30 173.14 395.55 C 164.90 400.02 157.30 405.55 149.13 410.12 C 140.84 396.80 132.84 383.30 124.88 369.78 C 124.71 369.49 124.37 368.90 124.20 368.60 C 126.48 365.45 128.04 361.88 129.83 358.45 C 129.94 357.99 130.15 357.06 130.25 356.60 C 130.68 355.26 131.08 353.91 131.49 352.58 C 132.49 346.32 131.92 339.94 131.87 333.64 C 131.27 331.91 130.78 330.16 130.21 328.43 C 130.13 327.95 129.97 326.99 129.89 326.51 C 128.85 324.62 127.92 322.66 126.64 320.92 C 123.30 321.99 120.23 323.78 117.42 325.85 C 117.27 325.73 116.97 325.50 116.82 325.39 C 114.60 323.66 112.27 322.06 109.72 320.86 C 113.54 317.40 116.56 313.19 118.86 308.60 C 119.65 305.19 120.46 301.75 120.64 298.25 C 120.34 294.94 119.65 291.68 118.84 288.46 C 115.67 277.78 106.31 270.68 96.57 266.25 C 90.51 263.77 83.79 263.34 77.37 264.37 C 72.67 265.55 68.81 269.96 70.00 275.01 C 71.68 281.23 75.71 286.51 79.23 291.81 C 81.65 295.24 83.43 299.06 85.73 302.56 C 85.88 303.03 86.17 303.97 86.32 304.44 C 88.13 308.90 90.44 314.26 88.03 318.93 C 80.10 320.76 72.76 324.81 66.93 330.49 C 58.40 327.14 55.11 317.99 51.19 310.50 C 51.10 309.99 50.92 308.96 50.82 308.44 C 49.93 306.80 49.06 305.16 48.16 303.53 C 48.08 303.01 47.91 301.97 47.82 301.45 C 44.93 296.68 42.85 288.81 36.03 288.96 C 28.56 290.76 22.59 296.83 20.13 304.05 C 16.75 312.24 17.73 321.32 20.17 329.61 C 24.32 337.43 29.58 345.58 38.45 348.50 C 44.46 350.57 51.11 350.65 57.22 348.94 C 56.90 351.03 56.59 353.13 56.22 355.22 C 56.62 356.21 57.01 357.20 57.41 358.19 C 54.70 359.62 52.09 361.23 49.52 362.91 C 48.77 362.98 47.26 363.13 46.51 363.20 C 49.67 368.01 52.86 372.94 57.28 376.70 C 61.33 379.90 65.79 382.54 70.45 384.75 C 71.49 385.05 72.54 385.37 73.58 385.71 C 74.04 385.88 74.95 386.23 75.40 386.40 C 77.36 386.79 79.33 387.05 81.30 387.37 C 85.38 388.34 89.69 388.33 93.78 387.38 C 93.88 387.57 94.08 387.96 94.18 388.16 C 100.62 399.23 106.99 410.35 113.75 421.24 C 118.79 428.68 123.14 436.55 127.78 444.23 C 128.79 445.95 130.25 447.33 131.84 448.50 L 132.13 448.75 C 133.32 449.36 134.48 450.05 135.62 450.77 C 136.06 450.94 136.93 451.26 137.37 451.42 C 141.05 452.30 144.94 452.31 148.62 451.41 C 149.08 451.26 150.01 450.95 150.48 450.79 C 151.04 450.52 152.17 449.99 152.73 449.72 L 152.95 449.59 C 155.69 448.11 158.46 446.70 161.06 445.00 C 171.18 438.51 181.53 432.37 191.58 425.76 L 191.70 426.66 C 192.17 430.41 192.00 434.20 192.01 437.97 C 191.98 453.33 192.03 468.69 191.97 484.05 C 191.80 489.31 195.48 493.58 198.41 497.58 C 200.80 499.31 203.15 501.09 205.50 502.87 C 205.98 502.97 206.93 503.15 207.40 503.24 C 208.73 503.67 210.08 504.07 211.43 504.49 C 219.89 505.64 228.48 504.65 237.00 505.07 C 237.00 507.69 237.00 510.31 237.00 512.93 C 227.33 513.07 217.66 512.97 208.00 513.00 C 207.99 516.58 207.70 520.23 208.66 523.73 C 208.94 526.03 209.14 528.35 209.61 530.63 C 209.84 531.54 210.08 532.46 210.33 533.39 C 210.68 534.74 210.97 536.11 211.28 537.49 C 211.79 538.85 212.29 540.22 212.82 541.59 C 212.89 542.07 213.03 543.04 213.10 543.53 C 213.70 544.51 214.31 545.50 214.91 546.49 C 214.96 546.98 215.06 547.96 215.11 548.45 C 220.67 559.29 227.56 569.60 236.45 578.00 C 278.16 578.00 319.86 578.00 361.56 578.00 C 366.14 573.41 370.89 568.93 374.39 563.43 C 377.25 559.64 379.15 555.26 381.83 551.37 C 381.90 550.91 382.05 550.00 382.12 549.54 C 383.05 547.85 383.94 546.15 384.87 544.47 C 384.95 543.99 385.12 543.05 385.21 542.58 C 385.59 541.56 385.96 540.55 386.33 539.54 C 386.68 538.53 387.02 537.53 387.36 536.53 C 387.72 535.21 388.04 533.89 388.38 532.58 C 388.87 530.14 389.14 527.66 389.80 525.26 C 390.05 521.16 389.69 516.95 391.01 512.99 C 382.01 512.98 373.00 513.06 364.00 512.93 C 364.00 510.34 364.00 507.76 364.00 505.18 C 372.20 504.46 380.52 505.83 388.64 504.37 C 389.60 504.17 390.55 503.98 391.52 503.80 C 398.13 501.08 403.88 496.07 406.87 489.50 C 407.00 489.04 407.28 488.11 407.42 487.64 C 407.82 485.79 408.01 483.89 408.03 482.00 C 408.01 463.34 407.94 444.68 408.05 426.03 L 409.02 425.93 C 420.72 433.22 432.52 440.36 443.99 448.02 C 446.31 449.38 448.65 450.72 450.98 452.08 C 451.28 449.67 451.55 447.26 451.73 444.85 C 451.61 447.20 451.60 449.57 451.74 451.93 C 455.31 452.01 458.87 452.01 462.44 451.97 C 467.24 449.91 470.81 446.06 473.70 441.83 C 476.81 438.05 479.04 433.66 481.59 429.51 C 489.85 415.78 498.07 402.01 506.34 388.29 C 506.58 388.01 507.05 387.45 507.29 387.17 C 510.79 388.53 514.61 387.99 518.26 387.81 C 519.94 387.32 521.66 386.97 523.38 386.62 C 524.77 386.30 526.17 386.03 527.59 385.78 C 528.56 385.22 529.53 384.66 530.51 384.10 C 531.02 384.05 532.04 383.97 532.54 383.93 C 540.70 379.41 547.40 372.84 552.96 365.41 C 552.97 364.91 553.00 363.91 553.01 363.40 C 549.87 362.00 546.77 360.49 543.88 358.63 C 543.98 355.48 544.08 352.32 543.86 349.17 C 549.61 350.68 555.85 350.40 561.57 348.85 C 569.69 345.36 576.01 338.50 579.77 330.59 C 582.53 324.06 582.26 316.90 581.88 309.97 C 581.01 301.74 575.76 294.38 568.70 290.25 C 566.17 288.63 562.73 288.38 560.31 290.34 C 556.38 293.41 554.51 298.22 552.17 302.46 C 552.09 302.99 551.95 304.03 551.87 304.55 C 551.29 305.51 550.71 306.47 550.14 307.43 C 550.06 307.95 549.90 308.99 549.81 309.52 C 545.72 316.66 543.36 325.71 535.50 329.78 C 534.98 329.92 533.93 330.22 533.40 330.37 C 527.40 324.73 519.97 320.83 511.98 318.87 C 511.58 313.59 512.27 308.34 514.23 303.41 C 516.73 299.21 519.29 295.06 521.92 290.95 C 525.32 285.18 529.83 279.73 531.01 272.96 C 530.87 269.61 527.76 267.44 525.74 265.09 C 518.73 263.22 511.16 263.44 504.43 266.27 C 495.63 269.90 487.66 275.86 483.11 284.40 C 483.01 284.90 482.81 285.91 482.71 286.42 C 479.13 293.60 478.92 302.38 482.28 309.68 C 484.24 314.02 487.43 317.63 490.47 321.25 C 487.86 322.56 485.38 324.11 482.75 325.38 C 480.15 324.18 477.61 322.83 475.32 321.12 C 474.84 321.08 473.88 321.00 473.39 320.95 C 472.71 322.47 472.00 323.98 471.30 325.49 C 470.95 326.51 470.61 327.54 470.26 328.57 C 470.12 329.03 469.83 329.97 469.69 330.44 C 469.16 332.52 468.78 334.64 468.17 336.70 C 467.92 340.56 467.91 344.44 468.17 348.30 C 468.78 350.37 469.17 352.49 469.70 354.59 C 469.84 355.05 470.13 355.96 470.27 356.41 C 470.60 357.45 470.93 358.49 471.25 359.54 C 472.62 362.35 474.00 365.18 475.90 367.70 C 475.91 368.17 475.91 369.11 475.92 369.58 C 467.90 383.23 459.49 396.65 451.62 410.39 C 443.64 405.56 435.63 400.73 427.92 395.48 C 427.67 395.30 427.17 394.94 426.92 394.75 C 430.27 390.15 433.96 385.79 437.03 380.99 C 434.28 377.16 431.49 373.15 427.44 370.57 C 424.93 368.85 422.15 367.58 419.47 366.16 C 419.00 366.05 418.06 365.82 417.59 365.71 C 415.38 365.15 413.14 364.74 410.95 364.15 C 410.86 370.85 411.40 377.60 410.68 384.28 L 410.26 385.86 C 409.98 385.39 409.42 384.44 409.14 383.96 C 408.90 383.54 408.43 382.71 408.19 382.29 C 407.45 375.00 408.79 367.59 407.42 360.36 C 407.28 359.90 407.00 358.96 406.87 358.49 C 403.86 351.97 398.20 346.89 391.55 344.27 C 389.77 343.98 388.00 343.69 386.27 343.21 C 368.54 342.73 350.79 343.13 333.05 343.00 L 333.04 342.36 C 333.01 337.91 332.91 333.47 333.01 329.04 L 333.06 328.05 C 363.06 327.94 393.07 328.03 423.07 328.00 C 427.91 327.94 432.78 328.32 437.59 327.55 C 439.64 326.89 441.66 326.15 443.62 325.25 C 444.08 325.15 444.99 324.95 445.44 324.85 C 448.98 322.28 452.84 320.08 455.80 316.79 C 459.41 313.37 461.63 308.85 463.84 304.47 C 463.95 304.00 464.17 303.07 464.28 302.61 C 464.82 300.51 465.21 298.38 465.83 296.30 C 466.23 239.54 465.89 182.75 466.00 125.98 C 465.92 121.44 466.40 116.84 465.43 112.37 C 465.07 110.71 464.74 109.05 464.33 107.40 C 464.20 106.93 463.96 106.00 463.83 105.53 C 461.63 101.15 459.41 96.65 455.81 93.22 C 452.84 89.92 448.97 87.72 445.42 85.12 C 444.94 85.06 443.98 84.93 443.49 84.87 C 442.52 84.33 441.54 83.80 440.57 83.27 C 439.12 82.94 437.68 82.60 436.27 82.17 C 395.95 81.76 355.62 82.14 315.30 81.98 L 315.06 80.97 C 312.44 69.79 310.28 58.48 306.88 47.51 C 307.79 47.27 308.70 47.04 309.62 46.81 C 320.68 41.68 326.97 28.08 322.84 16.44 C 320.96 12.74 319.14 8.84 315.74 6.27 C 311.93 2.76 306.88 1.34 302.01 0.00 L 600.00 0.00 L 600.00 600.00 L 394.27 600.00 C 394.70 595.62 391.93 590.69 387.03 591.05 C 330.69 591.06 274.35 591.10 218.01 591.03 C 214.26 591.24 209.85 590.13 206.70 592.77 C 204.47 594.49 204.20 597.48 203.51 600.00 L 0.00 600.00 L 0.00 0.00 Z" />
<path fill="#ef4136" stroke="#ef4136" stroke-width="0.09375" opacity="1.00" d=" M 297.80 0.00 L 302.01 0.00 C 306.88 1.34 311.93 2.76 315.74 6.27 C 319.14 8.84 320.96 12.74 322.84 16.44 C 326.97 28.08 320.68 41.68 309.62 46.81 C 308.70 47.04 307.79 47.27 306.88 47.51 C 306.26 47.66 305.04 47.97 304.43 48.13 C 301.47 48.20 298.51 48.19 295.56 48.12 C 295.18 48.05 294.44 47.89 294.06 47.82 C 286.23 46.01 280.07 39.91 277.15 32.55 C 272.99 20.98 279.09 7.06 290.37 2.22 C 292.87 1.59 295.37 0.90 297.80 0.00 Z" />
<path fill="#78aea4" stroke="#78aea4" stroke-width="0.09375" opacity="1.00" d=" M 292.22 48.04 C 292.68 47.99 293.60 47.87 294.06 47.82 C 294.44 47.89 295.18 48.05 295.56 48.12 C 298.46 49.02 301.53 49.13 304.43 48.13 C 305.04 47.97 306.26 47.66 306.88 47.51 C 310.28 58.48 312.44 69.79 315.06 80.97 C 304.69 81.02 294.32 81.03 283.94 80.96 C 286.45 69.93 289.06 58.90 292.22 48.04 Z" />
<path fill="#c7a8a2" stroke="#c7a8a2" stroke-width="0.09375" opacity="1.00" d=" M 295.56 48.12 C 298.51 48.19 301.47 48.20 304.43 48.13 C 301.53 49.13 298.46 49.02 295.56 48.12 Z" />
<path fill="#01745b" stroke="#01745b" stroke-width="0.09375" opacity="1.00" d=" M 283.94 80.96 C 294.32 81.03 304.69 81.02 315.06 80.97 L 315.30 81.98 C 355.62 82.14 395.95 81.76 436.27 82.17 C 437.68 82.60 439.12 82.94 440.57 83.27 C 441.54 83.80 442.52 84.33 443.49 84.87 C 443.98 84.93 444.94 85.06 445.42 85.12 C 448.97 87.72 452.84 89.92 455.81 93.22 C 459.41 96.65 461.63 101.15 463.83 105.53 C 463.96 106.00 464.20 106.93 464.33 107.40 C 464.74 109.05 465.07 110.71 465.43 112.37 C 466.40 116.84 465.92 121.44 466.00 125.98 C 465.89 182.75 466.23 239.54 465.83 296.30 C 465.21 298.38 464.82 300.51 464.28 302.61 C 464.17 303.07 463.95 304.00 463.84 304.47 C 461.63 308.85 459.41 313.37 455.80 316.79 C 452.84 320.08 448.98 322.28 445.44 324.85 C 444.99 324.95 444.08 325.15 443.62 325.25 C 441.66 326.15 439.64 326.89 437.59 327.55 C 432.78 328.32 427.91 327.94 423.07 328.00 C 393.07 328.03 363.06 327.94 333.06 328.05 L 333.01 329.04 C 311.00 328.98 289.00 328.98 266.99 329.04 L 266.94 328.05 C 232.51 327.85 198.08 328.21 163.65 327.87 C 161.92 327.27 160.15 326.78 158.41 326.21 C 157.92 326.13 156.94 325.96 156.45 325.87 C 154.30 324.52 152.12 323.21 149.95 321.89 C 143.80 317.55 139.22 311.34 136.18 304.50 C 136.06 304.03 135.80 303.10 135.68 302.63 C 135.26 300.97 134.93 299.29 134.56 297.63 C 134.01 295.12 133.94 292.55 133.96 289.99 C 134.16 231.24 133.75 172.47 134.17 113.72 C 134.78 111.63 135.17 109.49 135.72 107.39 C 135.83 106.92 136.05 105.99 136.16 105.52 C 139.85 96.89 146.37 89.61 154.63 85.14 C 155.10 85.08 156.03 84.96 156.49 84.90 C 157.49 84.31 158.48 83.72 159.48 83.14 C 160.41 82.98 161.34 82.83 162.28 82.67 C 166.42 81.56 170.75 82.08 174.98 82.00 C 211.23 81.99 247.47 82.03 283.71 81.98 L 283.94 80.96 M 155.44 99.90 C 154.28 101.10 153.09 102.28 151.89 103.44 C 151.59 107.05 153.82 109.91 157.01 111.32 C 159.73 109.91 161.90 107.76 163.31 105.04 C 161.95 101.82 159.05 99.60 155.44 99.90 M 435.94 105.90 C 436.95 108.48 439.74 109.72 441.91 111.19 C 443.21 110.30 444.53 109.41 445.88 108.57 C 448.23 105.41 445.78 102.34 443.80 99.79 C 440.11 99.67 436.04 101.82 435.94 105.90 M 190.39 109.39 C 186.36 110.00 182.20 110.52 178.64 112.66 C 169.87 117.45 162.40 126.58 162.96 137.02 C 163.06 183.35 162.96 229.68 163.01 276.01 C 163.80 284.05 169.09 290.98 175.61 295.47 C 182.87 300.79 192.34 301.16 201.00 301.01 C 266.99 301.00 332.97 301.00 398.96 301.01 C 407.63 301.15 417.13 300.80 424.41 295.46 C 431.39 290.60 436.90 282.76 437.02 274.02 C 436.99 227.99 437.00 181.97 437.01 135.95 C 436.90 127.21 431.37 119.40 424.41 114.54 C 419.14 110.60 412.35 109.72 406.00 109.00 C 338.00 109.00 270.00 109.00 202.01 109.00 C 198.13 109.01 194.23 108.75 190.39 109.39 M 153.99 301.22 C 152.75 303.14 151.91 305.27 151.88 307.59 C 153.05 308.68 154.21 309.79 155.36 310.91 C 156.86 310.95 158.36 310.99 159.87 311.03 C 161.03 309.37 162.17 307.68 163.30 305.99 C 162.00 303.61 160.27 301.50 157.88 300.18 C 156.58 300.55 155.29 300.89 153.99 301.22 M 441.38 299.93 C 439.54 301.29 437.55 302.54 436.15 304.38 C 435.38 307.01 437.93 309.05 439.19 311.07 C 440.67 311.01 442.15 310.97 443.64 310.93 C 444.72 309.84 445.81 308.76 446.91 307.69 C 446.95 306.54 446.99 305.39 447.05 304.24 C 445.25 302.68 443.36 301.24 441.38 299.93 Z" />
<path fill="#78aea4" stroke="#78aea4" stroke-width="0.09375" opacity="1.00" d=" M 155.44 99.90 C 159.05 99.60 161.95 101.82 163.31 105.04 C 161.90 107.76 159.73 109.91 157.01 111.32 C 153.82 109.91 151.59 107.05 151.89 103.44 C 153.09 102.28 154.28 101.10 155.44 99.90 Z" />
<path fill="#78aea4" stroke="#78aea4" stroke-width="0.09375" opacity="1.00" d=" M 435.94 105.90 C 436.04 101.82 440.11 99.67 443.80 99.79 C 445.78 102.34 448.23 105.41 445.88 108.57 C 444.53 109.41 443.21 110.30 441.91 111.19 C 439.74 109.72 436.95 108.48 435.94 105.90 Z" />
<path fill="#78aea4" stroke="#78aea4" stroke-width="0.09375" opacity="1.00" d=" M 190.39 109.39 C 194.23 108.75 198.13 109.01 202.01 109.00 C 270.00 109.00 338.00 109.00 406.00 109.00 C 412.35 109.72 419.14 110.60 424.41 114.54 C 431.37 119.40 436.90 127.21 437.01 135.95 C 437.00 181.97 436.99 227.99 437.02 274.02 C 436.90 282.76 431.39 290.60 424.41 295.46 C 417.13 300.80 407.63 301.15 398.96 301.01 C 332.97 301.00 266.99 301.00 201.00 301.01 C 192.34 301.16 182.87 300.79 175.61 295.47 C 169.09 290.98 163.80 284.05 163.01 276.01 C 162.96 229.68 163.06 183.35 162.96 137.02 C 162.40 126.58 169.87 117.45 178.64 112.66 C 182.20 110.52 186.36 110.00 190.39 109.39 M 213.43 143.48 C 201.83 147.17 192.18 155.20 184.44 164.38 C 176.24 175.45 171.00 189.16 171.99 203.09 C 170.88 219.63 178.31 235.66 189.22 247.75 C 201.48 259.25 218.04 266.78 235.06 266.03 C 241.82 266.44 248.47 264.83 254.90 262.91 C 264.30 259.98 272.44 254.12 279.77 247.71 C 289.39 237.10 296.30 223.49 297.03 209.03 C 296.76 203.16 297.61 197.20 296.43 191.41 C 293.98 178.99 288.28 166.84 278.78 158.26 C 269.89 148.33 257.00 142.84 244.03 140.79 C 233.81 138.73 223.28 140.53 213.43 143.48 M 339.45 146.38 C 334.17 149.72 328.45 152.58 324.18 157.26 C 313.11 167.47 306.33 181.98 305.00 196.92 C 304.98 201.29 304.88 205.67 305.06 210.04 C 306.48 222.29 311.08 234.35 319.22 243.73 C 321.87 246.42 324.54 249.08 327.22 251.73 C 340.57 263.40 359.16 267.72 376.53 265.63 C 388.48 263.99 399.88 258.73 409.19 251.11 C 414.59 246.76 418.45 240.90 422.23 235.17 C 425.47 230.22 427.08 224.46 428.81 218.87 C 430.60 213.72 429.60 208.19 430.77 202.93 C 429.95 198.79 430.18 194.55 429.45 190.40 C 428.49 185.47 426.93 180.66 425.02 176.02 C 422.00 169.45 417.41 163.74 412.75 158.27 C 406.34 152.75 399.49 147.43 391.44 144.53 C 385.65 141.82 379.24 141.21 373.01 140.17 C 361.52 139.19 349.95 141.76 339.45 146.38 M 274.91 267.19 C 277.20 270.53 278.95 274.40 282.41 276.74 C 289.35 282.03 298.63 282.24 306.94 281.22 C 312.35 280.29 318.39 278.07 321.10 272.94 C 321.51 272.70 322.32 272.23 322.73 271.99 C 323.52 270.44 324.31 268.90 325.13 267.36 C 324.54 266.66 323.95 265.97 323.37 265.28 C 318.49 269.38 312.19 271.37 305.94 272.05 C 295.94 272.97 285.12 271.75 276.93 265.46 C 276.42 265.89 275.42 266.76 274.91 267.19 Z" />
<path fill="#01745b" stroke="#01745b" stroke-width="0.09375" opacity="1.00" d=" M 213.43 143.48 C 223.28 140.53 233.81 138.73 244.03 140.79 C 257.00 142.84 269.89 148.33 278.78 158.26 C 288.28 166.84 293.98 178.99 296.43 191.41 C 297.61 197.20 296.76 203.16 297.03 209.03 C 296.30 223.49 289.39 237.10 279.77 247.71 C 272.44 254.12 264.30 259.98 254.90 262.91 C 248.47 264.83 241.82 266.44 235.06 266.03 C 218.04 266.78 201.48 259.25 189.22 247.75 C 178.31 235.66 170.88 219.63 171.99 203.09 C 171.00 189.16 176.24 175.45 184.44 164.38 C 192.18 155.20 201.83 147.17 213.43 143.48 M 227.38 156.71 C 225.73 156.96 224.07 157.17 222.45 157.54 C 221.44 157.95 220.44 158.37 219.44 158.81 C 218.95 158.89 217.97 159.05 217.47 159.13 C 216.51 159.66 215.54 160.19 214.57 160.70 C 211.26 162.20 208.44 164.52 205.31 166.32 C 202.89 168.54 200.55 170.85 198.36 173.30 C 196.57 175.94 194.52 178.42 193.27 181.39 C 192.30 183.45 191.27 185.49 190.17 187.48 C 190.07 187.97 189.86 188.96 189.76 189.45 C 189.20 191.16 188.77 192.91 188.16 194.60 C 188.03 196.51 187.96 198.43 187.84 200.34 C 186.80 201.83 187.01 203.64 187.06 205.35 C 188.40 207.54 187.78 210.23 188.61 212.58 C 188.96 213.91 189.30 215.25 189.70 216.57 C 189.84 217.04 190.13 217.98 190.27 218.45 C 190.62 219.49 190.94 220.53 191.25 221.59 C 192.88 225.18 195.33 228.30 197.32 231.70 C 200.21 234.80 203.23 237.77 206.29 240.71 C 209.23 242.55 212.26 244.23 215.40 245.71 C 216.75 246.38 218.10 247.07 219.45 247.75 C 220.84 248.01 222.24 248.27 223.59 248.74 C 224.51 248.91 225.44 249.08 226.37 249.26 C 228.74 250.45 231.46 249.90 234.00 250.03 C 236.87 249.85 239.93 250.55 242.62 249.26 C 243.55 249.08 244.48 248.91 245.42 248.74 C 246.76 248.24 248.16 248.01 249.57 247.78 C 250.51 247.27 251.46 246.77 252.41 246.26 C 253.75 245.62 255.09 244.97 256.43 244.34 C 259.10 243.16 261.28 241.22 263.70 239.64 C 266.49 237.13 269.11 234.44 271.68 231.70 C 272.51 230.24 273.46 228.84 274.36 227.43 C 275.70 225.57 276.76 223.54 277.86 221.55 C 277.95 221.05 278.11 220.04 278.20 219.54 C 278.61 218.54 279.02 217.53 279.40 216.52 C 279.75 215.21 280.04 213.89 280.36 212.58 C 281.17 210.36 281.00 207.97 281.16 205.65 C 282.30 204.07 282.32 201.93 281.16 200.36 C 281.03 198.44 280.96 196.52 280.84 194.60 C 280.22 192.91 279.80 191.16 279.24 189.45 C 279.14 188.96 278.93 187.97 278.83 187.48 C 277.58 185.22 276.43 182.91 275.33 180.58 C 274.16 177.90 272.21 175.72 270.64 173.30 C 268.45 170.85 266.12 168.54 263.70 166.33 C 262.64 165.71 261.60 165.05 260.59 164.37 C 258.95 163.30 257.33 162.21 255.63 161.24 C 254.24 160.59 252.86 159.89 251.51 159.17 C 251.02 159.08 250.04 158.89 249.54 158.80 C 248.54 158.37 247.54 157.95 246.54 157.55 C 244.91 157.17 243.26 156.96 241.62 156.71 C 237.08 155.53 231.91 155.52 227.38 156.71 Z" />
<path fill="#01745b" stroke="#01745b" stroke-width="0.09375" opacity="1.00" d=" M 339.45 146.38 C 349.95 141.76 361.52 139.19 373.01 140.17 C 379.24 141.21 385.65 141.82 391.44 144.53 C 399.49 147.43 406.34 152.75 412.75 158.27 C 417.41 163.74 422.00 169.45 425.02 176.02 C 426.93 180.66 428.49 185.47 429.45 190.40 C 430.18 194.55 429.95 198.79 430.77 202.93 C 429.60 208.19 430.60 213.72 428.81 218.87 C 427.08 224.46 425.47 230.22 422.23 235.17 C 418.45 240.90 414.59 246.76 409.19 251.11 C 399.88 258.73 388.48 263.99 376.53 265.63 C 359.16 267.72 340.57 263.40 327.22 251.73 C 324.54 249.08 321.87 246.42 319.22 243.73 C 311.08 234.35 306.48 222.29 305.06 210.04 C 304.88 205.67 304.98 201.29 305.00 196.92 C 306.33 181.98 313.11 167.47 324.18 157.26 C 328.45 152.58 334.17 149.72 339.45 146.38 M 360.37 156.72 C 358.69 156.96 356.96 157.07 355.38 157.73 C 354.89 157.83 353.92 158.02 353.43 158.12 C 352.46 158.71 351.50 159.30 350.53 159.90 C 350.02 159.96 349.00 160.07 348.49 160.12 C 347.97 160.40 346.92 160.96 346.40 161.23 C 344.68 162.21 343.03 163.30 341.36 164.35 C 340.09 165.45 338.78 166.52 337.31 167.36 C 335.54 168.89 333.89 170.55 332.36 172.31 C 331.52 173.78 330.45 175.09 329.35 176.37 C 328.03 178.38 326.74 180.41 325.69 182.57 C 325.21 183.53 324.73 184.49 324.25 185.45 C 323.97 186.47 323.67 187.49 323.37 188.50 C 322.99 189.52 322.60 190.53 322.20 191.54 C 322.05 192.49 321.91 193.43 321.76 194.38 C 320.43 197.06 321.16 200.14 320.98 203.01 C 321.13 205.87 320.49 208.92 321.72 211.62 C 321.96 213.29 322.08 215.00 322.71 216.59 C 322.83 217.08 323.06 218.05 323.18 218.54 C 324.05 220.14 324.88 221.77 325.72 223.40 C 327.06 226.82 329.26 229.74 331.37 232.71 C 333.55 235.15 335.89 237.46 338.30 239.68 C 340.79 241.11 343.12 242.79 345.54 244.32 C 347.20 245.12 348.86 245.95 350.49 246.84 C 350.98 246.93 351.96 247.11 352.45 247.21 C 353.45 247.62 354.45 248.02 355.46 248.41 C 356.77 248.75 358.08 249.04 359.41 249.36 C 362.12 250.42 365.09 249.91 367.93 250.03 C 370.49 249.92 373.21 250.41 375.62 249.29 C 377.30 249.04 379.03 248.92 380.62 248.27 C 381.11 248.17 382.08 247.98 382.56 247.89 C 383.54 247.28 384.51 246.68 385.49 246.08 C 386.01 246.05 387.06 245.98 387.58 245.94 C 390.28 244.18 392.90 242.29 395.70 240.69 C 399.13 237.46 402.43 234.10 405.70 230.71 C 407.54 227.77 409.24 224.73 410.71 221.58 C 410.99 221.07 411.56 220.04 411.84 219.53 C 411.95 219.04 412.16 218.07 412.27 217.58 C 412.69 216.26 413.02 214.92 413.38 213.58 C 413.88 211.52 414.00 209.35 414.85 207.38 C 414.86 204.07 415.71 200.47 414.21 197.37 C 414.05 196.10 413.93 194.84 413.80 193.58 C 413.22 191.89 412.79 190.15 412.24 188.45 C 412.14 187.95 411.93 186.96 411.83 186.47 C 410.22 183.38 408.66 180.25 406.63 177.41 C 405.94 176.39 405.28 175.35 404.66 174.29 C 401.69 171.28 398.98 167.90 395.39 165.57 C 393.39 163.75 391.06 162.38 388.60 161.28 C 387.22 160.60 385.86 159.89 384.51 159.16 C 384.02 159.07 383.04 158.89 382.55 158.81 C 381.55 158.37 380.54 157.96 379.54 157.55 C 377.92 157.17 376.26 156.96 374.63 156.71 C 370.08 155.52 364.91 155.53 360.37 156.72 Z" />
<path fill="#f1f1f2" stroke="#f1f1f2" stroke-width="0.09375" opacity="1.00" d=" M 227.38 156.71 C 231.91 155.52 237.08 155.53 241.62 156.71 C 243.26 156.96 244.91 157.17 246.54 157.55 C 247.54 157.95 248.54 158.37 249.54 158.80 C 250.04 158.89 251.02 159.08 251.51 159.17 C 252.86 159.89 254.24 160.59 255.63 161.24 C 257.33 162.21 258.95 163.30 260.59 164.37 C 261.60 165.05 262.64 165.71 263.70 166.33 C 266.12 168.54 268.45 170.85 270.64 173.30 C 272.21 175.72 274.16 177.90 275.33 180.58 C 276.43 182.91 277.58 185.22 278.83 187.48 C 278.93 187.97 279.14 188.96 279.24 189.45 C 279.80 191.16 280.22 192.91 280.84 194.60 C 280.96 196.52 281.03 198.44 281.16 200.36 C 282.32 201.93 282.30 204.07 281.16 205.65 C 281.00 207.97 281.17 210.36 280.36 212.58 C 280.04 213.89 279.75 215.21 279.40 216.52 C 279.02 217.53 278.61 218.54 278.20 219.54 C 278.11 220.04 277.95 221.05 277.86 221.55 C 276.76 223.54 275.70 225.57 274.36 227.43 C 273.46 228.84 272.51 230.24 271.68 231.70 C 269.11 234.44 266.49 237.13 263.70 239.64 C 261.28 241.22 259.10 243.16 256.43 244.34 C 255.09 244.97 253.75 245.62 252.41 246.26 C 251.46 246.77 250.51 247.27 249.57 247.78 C 248.16 248.01 246.76 248.24 245.42 248.74 C 244.48 248.91 243.55 249.08 242.62 249.26 C 239.93 250.55 236.87 249.85 234.00 250.03 C 231.46 249.90 228.74 250.45 226.37 249.26 C 225.44 249.08 224.51 248.91 223.59 248.74 C 222.24 248.27 220.84 248.01 219.45 247.75 C 218.10 247.07 216.75 246.38 215.40 245.71 C 212.26 244.23 209.23 242.55 206.29 240.71 C 203.23 237.77 200.21 234.80 197.32 231.70 C 195.33 228.30 192.88 225.18 191.25 221.59 C 190.94 220.53 190.62 219.49 190.27 218.45 C 190.13 217.98 189.84 217.04 189.70 216.57 C 189.30 215.25 188.96 213.91 188.61 212.58 C 187.78 210.23 188.40 207.54 187.06 205.35 C 187.01 203.64 186.80 201.83 187.84 200.34 C 187.96 198.43 188.03 196.51 188.16 194.60 C 188.77 192.91 189.20 191.16 189.76 189.45 C 189.86 188.96 190.07 187.97 190.17 187.48 C 191.27 185.49 192.30 183.45 193.27 181.39 C 194.52 178.42 196.57 175.94 198.36 173.30 C 200.55 170.85 202.89 168.54 205.31 166.32 C 208.44 164.52 211.26 162.20 214.57 160.70 C 215.54 160.19 216.51 159.66 217.47 159.13 C 217.97 159.05 218.95 158.89 219.44 158.81 C 220.44 158.37 221.44 157.95 222.45 157.54 C 224.07 157.17 225.73 156.96 227.38 156.71 M 220.51 181.86 C 217.06 184.50 214.07 187.76 211.82 191.48 C 211.21 193.27 210.51 195.03 209.66 196.71 C 209.37 202.66 208.58 209.07 211.77 214.44 C 216.18 223.78 226.86 229.40 237.04 228.40 C 243.09 227.89 248.33 224.57 252.96 220.90 C 254.86 218.14 256.82 215.42 258.30 212.40 C 260.50 205.61 260.05 198.06 257.25 191.51 C 253.52 185.75 248.40 180.34 241.45 178.78 C 234.47 176.08 226.71 178.23 220.51 181.86 Z" />
<path fill="#f1f1f2" stroke="#f1f1f2" stroke-width="0.09375" opacity="1.00" d=" M 360.37 156.72 C 364.91 155.53 370.08 155.52 374.63 156.71 C 376.26 156.96 377.92 157.17 379.54 157.55 C 380.54 157.96 381.55 158.37 382.55 158.81 C 383.04 158.89 384.02 159.07 384.51 159.16 C 385.86 159.89 387.22 160.60 388.60 161.28 C 391.06 162.38 393.39 163.75 395.39 165.57 C 398.98 167.90 401.69 171.28 404.66 174.29 C 405.28 175.35 405.94 176.39 406.63 177.41 C 408.66 180.25 410.22 183.38 411.83 186.47 C 411.93 186.96 412.14 187.95 412.24 188.45 C 412.79 190.15 413.22 191.89 413.80 193.58 C 413.93 194.84 414.05 196.10 414.21 197.37 C 415.71 200.47 414.86 204.07 414.85 207.38 C 414.00 209.35 413.88 211.52 413.38 213.58 C 413.02 214.92 412.69 216.26 412.27 217.58 C 412.16 218.07 411.95 219.04 411.84 219.53 C 411.56 220.04 410.99 221.07 410.71 221.58 C 409.24 224.73 407.54 227.77 405.70 230.71 C 402.43 234.10 399.13 237.46 395.70 240.69 C 392.90 242.29 390.28 244.18 387.58 245.94 C 387.06 245.98 386.01 246.05 385.49 246.08 C 384.51 246.68 383.54 247.28 382.56 247.89 C 382.08 247.98 381.11 248.17 380.62 248.27 C 379.03 248.92 377.30 249.04 375.62 249.29 C 373.21 250.41 370.49 249.92 367.93 250.03 C 365.09 249.91 362.12 250.42 359.41 249.36 C 358.08 249.04 356.77 248.75 355.46 248.41 C 354.45 248.02 353.45 247.62 352.45 247.21 C 351.96 247.11 350.98 246.93 350.49 246.84 C 348.86 245.95 347.20 245.12 345.54 244.32 C 343.12 242.79 340.79 241.11 338.30 239.68 C 335.89 237.46 333.55 235.15 331.37 232.71 C 329.26 229.74 327.06 226.82 325.72 223.40 C 324.88 221.77 324.05 220.14 323.18 218.54 C 323.06 218.05 322.83 217.08 322.71 216.59 C 322.08 215.00 321.96 213.29 321.72 211.62 C 320.49 208.92 321.13 205.87 320.98 203.01 C 321.16 200.14 320.43 197.06 321.76 194.38 C 321.91 193.43 322.05 192.49 322.20 191.54 C 322.60 190.53 322.99 189.52 323.37 188.50 C 323.67 187.49 323.97 186.47 324.25 185.45 C 324.73 184.49 325.21 183.53 325.69 182.57 C 326.74 180.41 328.03 178.38 329.35 176.37 C 330.45 175.09 331.52 173.78 332.36 172.31 C 333.89 170.55 335.54 168.89 337.31 167.36 C 338.78 166.52 340.09 165.45 341.36 164.35 C 343.03 163.30 344.68 162.21 346.40 161.23 C 346.92 160.96 347.97 160.40 348.49 160.12 C 349.00 160.07 350.02 159.96 350.53 159.90 C 351.50 159.30 352.46 158.71 353.43 158.12 C 353.92 158.02 354.89 157.83 355.38 157.73 C 356.96 157.07 358.69 156.96 360.37 156.72 M 363.69 177.62 C 361.36 178.42 358.98 179.05 356.60 179.69 C 351.00 182.47 346.42 186.91 343.71 192.58 C 341.19 198.52 340.78 205.16 342.73 211.34 C 345.17 217.05 349.08 222.15 354.52 225.28 C 355.89 225.93 357.26 226.58 358.62 227.27 C 370.78 231.47 385.07 225.13 390.31 213.43 C 391.22 210.00 392.64 206.59 392.48 202.98 C 392.62 199.37 391.18 195.98 390.26 192.55 C 388.47 190.06 387.07 187.26 384.95 185.02 C 381.92 182.23 378.18 180.41 374.47 178.71 C 370.95 177.77 367.33 177.30 363.69 177.62 Z" />
<path fill="#231f21" stroke="#231f21" stroke-width="0.09375" opacity="1.00" d=" M 220.51 181.86 C 226.71 178.23 234.47 176.08 241.45 178.78 C 248.40 180.34 253.52 185.75 257.25 191.51 C 260.05 198.06 260.50 205.61 258.30 212.40 C 256.82 215.42 254.86 218.14 252.96 220.90 C 248.33 224.57 243.09 227.89 237.04 228.40 C 226.86 229.40 216.18 223.78 211.77 214.44 C 208.58 209.07 209.37 202.66 209.66 196.71 C 210.51 195.03 211.21 193.27 211.82 191.48 C 214.07 187.76 217.06 184.50 220.51 181.86 Z" />
<path fill="#231f21" stroke="#231f21" stroke-width="0.09375" opacity="1.00" d=" M 363.69 177.62 C 367.33 177.30 370.95 177.77 374.47 178.71 C 378.18 180.41 381.92 182.23 384.95 185.02 C 387.07 187.26 388.47 190.06 390.26 192.55 C 391.18 195.98 392.62 199.37 392.48 202.98 C 392.64 206.59 391.22 210.00 390.31 213.43 C 385.07 225.13 370.78 231.47 358.62 227.27 C 357.26 226.58 355.89 225.93 354.52 225.28 C 349.08 222.15 345.17 217.05 342.73 211.34 C 340.78 205.16 341.19 198.52 343.71 192.58 C 346.42 186.91 351.00 182.47 356.60 179.69 C 358.98 179.05 361.36 178.42 363.69 177.62 Z" />
<path fill="#ef4136" stroke="#ef4136" stroke-width="0.09375" opacity="1.00" d=" M 77.37 264.37 C 83.79 263.34 90.51 263.77 96.57 266.25 C 106.31 270.68 115.67 277.78 118.84 288.46 C 119.65 291.68 120.34 294.94 120.64 298.25 C 120.46 301.75 119.65 305.19 118.86 308.60 C 116.56 313.19 113.54 317.40 109.72 320.86 C 102.87 318.13 95.26 317.48 88.03 318.93 C 90.44 314.26 88.13 308.90 86.32 304.44 C 86.17 303.97 85.88 303.03 85.73 302.56 C 83.43 299.06 81.65 295.24 79.23 291.81 C 75.71 286.51 71.68 281.23 70.00 275.01 C 68.81 269.96 72.67 265.55 77.37 264.37 Z" />
<path fill="#ef4136" stroke="#ef4136" stroke-width="0.09375" opacity="1.00" d=" M 504.43 266.27 C 511.16 263.44 518.73 263.22 525.74 265.09 C 527.76 267.44 530.87 269.61 531.01 272.96 C 529.83 279.73 525.32 285.18 521.92 290.95 C 519.29 295.06 516.73 299.21 514.23 303.41 C 512.27 308.34 511.58 313.59 511.98 318.87 C 504.79 317.58 497.10 317.99 490.47 321.25 C 487.43 317.63 484.24 314.02 482.28 309.68 C 478.92 302.38 479.13 293.60 482.71 286.42 C 482.81 285.91 483.01 284.90 483.11 284.40 C 487.66 275.86 495.63 269.90 504.43 266.27 Z" />
<path fill="#000000" stroke="#000000" stroke-width="0.09375" opacity="1.00" d=" M 274.91 267.19 C 275.42 266.76 276.42 265.89 276.93 265.46 C 285.12 271.75 295.94 272.97 305.94 272.05 C 312.19 271.37 318.49 269.38 323.37 265.28 C 323.95 265.97 324.54 266.66 325.13 267.36 C 324.31 268.90 323.52 270.44 322.73 271.99 C 322.32 272.23 321.51 272.70 321.10 272.94 C 318.39 278.07 312.35 280.29 306.94 281.22 C 298.63 282.24 289.35 282.03 282.41 276.74 C 278.95 274.40 277.20 270.53 274.91 267.19 Z" />
<path fill="#ef4136" stroke="#ef4136" stroke-width="0.09375" opacity="1.00" d=" M 20.13 304.05 C 22.59 296.83 28.56 290.76 36.03 288.96 C 42.85 288.81 44.93 296.68 47.82 301.45 C 47.91 301.97 48.08 303.01 48.16 303.53 C 49.06 305.16 49.93 306.80 50.82 308.44 C 50.92 308.96 51.10 309.99 51.19 310.50 C 55.11 317.99 58.40 327.14 66.93 330.49 C 61.99 335.50 58.16 341.87 57.22 348.94 C 51.11 350.65 44.46 350.57 38.45 348.50 C 29.58 345.58 24.32 337.43 20.17 329.61 C 17.73 321.32 16.75 312.24 20.13 304.05 Z" />
<path fill="#ef4136" stroke="#ef4136" stroke-width="0.09375" opacity="1.00" d=" M 560.31 290.34 C 562.73 288.38 566.17 288.63 568.70 290.25 C 575.76 294.38 581.01 301.74 581.88 309.97 C 582.26 316.90 582.53 324.06 579.77 330.59 C 576.01 338.50 569.69 345.36 561.57 348.85 C 555.85 350.40 549.61 350.68 543.86 349.17 C 541.92 342.21 538.77 335.37 533.40 330.37 C 533.93 330.22 534.98 329.92 535.50 329.78 C 543.36 325.71 545.72 316.66 549.81 309.52 C 549.90 308.99 550.06 307.95 550.14 307.43 C 550.71 306.47 551.29 305.51 551.87 304.55 C 551.95 304.03 552.09 302.99 552.17 302.46 C 554.51 298.22 556.38 293.41 560.31 290.34 Z" />
<path fill="#78aea4" stroke="#78aea4" stroke-width="0.09375" opacity="1.00" d=" M 153.99 301.22 C 155.29 300.89 156.58 300.55 157.88 300.18 C 160.27 301.50 162.00 303.61 163.30 305.99 C 162.17 307.68 161.03 309.37 159.87 311.03 C 158.36 310.99 156.86 310.95 155.36 310.91 C 154.21 309.79 153.05 308.68 151.88 307.59 C 151.91 305.27 152.75 303.14 153.99 301.22 Z" />
<path fill="#78aea4" stroke="#78aea4" stroke-width="0.09375" opacity="1.00" d=" M 441.38 299.93 C 443.36 301.24 445.25 302.68 447.05 304.24 C 446.99 305.39 446.95 306.54 446.91 307.69 C 445.81 308.76 444.72 309.84 443.64 310.93 C 442.15 310.97 440.67 311.01 439.19 311.07 C 437.93 309.05 435.38 307.01 436.15 304.38 C 437.55 302.54 439.54 301.29 441.38 299.93 Z" />
<path fill="#fbba63" stroke="#fbba63" stroke-width="0.09375" opacity="1.00" d=" M 88.03 318.93 C 95.26 317.48 102.87 318.13 109.72 320.86 C 112.27 322.06 114.60 323.66 116.82 325.39 C 112.61 328.49 107.79 330.58 103.27 333.19 C 87.97 341.49 72.69 349.84 57.41 358.19 C 57.01 357.20 56.62 356.21 56.22 355.22 C 56.59 353.13 56.90 351.03 57.22 348.94 C 58.16 341.87 61.99 335.50 66.93 330.49 C 72.76 324.81 80.10 320.76 88.03 318.93 Z" />
<path fill="#fbba63" stroke="#fbba63" stroke-width="0.09375" opacity="1.00" d=" M 490.47 321.25 C 497.10 317.99 504.79 317.58 511.98 318.87 C 519.97 320.83 527.40 324.73 533.40 330.37 C 538.77 335.37 541.92 342.21 543.86 349.17 C 544.08 352.32 543.98 355.48 543.88 358.63 C 523.52 347.51 503.21 336.31 482.75 325.38 C 485.38 324.11 487.86 322.56 490.47 321.25 Z" />
<path fill="#01745b" stroke="#01745b" stroke-width="0.09375" opacity="1.00" d=" M 117.42 325.85 C 120.23 323.78 123.30 321.99 126.64 320.92 C 127.92 322.66 128.85 324.62 129.89 326.51 C 129.97 326.99 130.13 327.95 130.21 328.43 C 130.78 330.16 131.27 331.91 131.87 333.64 C 131.92 339.94 132.49 346.32 131.49 352.58 C 131.08 353.91 130.68 355.26 130.25 356.60 C 130.15 357.06 129.94 357.99 129.83 358.45 C 128.04 361.88 126.48 365.45 124.20 368.60 C 124.37 368.90 124.71 369.49 124.88 369.78 C 121.72 372.66 118.87 375.86 115.67 378.70 C 109.53 383.77 101.91 386.59 94.18 388.16 C 94.08 387.96 93.88 387.57 93.78 387.38 C 89.69 388.33 85.38 388.34 81.30 387.37 C 79.33 387.05 77.36 386.79 75.40 386.40 C 74.95 386.23 74.04 385.88 73.58 385.71 C 72.54 385.37 71.49 385.05 70.45 384.75 C 65.79 382.54 61.33 379.90 57.28 376.70 C 52.86 372.94 49.67 368.01 46.51 363.20 C 47.26 363.13 48.77 362.98 49.52 362.91 C 52.09 361.23 54.70 359.62 57.41 358.19 C 72.69 349.84 87.97 341.49 103.27 333.19 C 107.79 330.58 112.61 328.49 116.82 325.39 C 116.97 325.50 117.27 325.73 117.42 325.85 M 92.35 352.07 C 91.25 353.17 90.15 354.26 89.05 355.36 C 89.05 356.44 89.04 357.53 89.04 358.63 C 90.15 359.72 91.25 360.82 92.34 361.93 C 93.83 361.96 95.32 362.01 96.82 362.06 C 98.01 360.39 99.16 358.70 100.29 357.00 C 99.17 355.30 98.03 353.62 96.86 351.97 C 95.35 351.99 93.85 352.03 92.35 352.07 Z" />
<path fill="#01745b" stroke="#01745b" stroke-width="0.09375" opacity="1.00" d=" M 473.39 320.95 C 473.88 321.00 474.84 321.08 475.32 321.12 C 477.61 322.83 480.15 324.18 482.75 325.38 C 503.21 336.31 523.52 347.51 543.88 358.63 C 546.77 360.49 549.87 362.00 553.01 363.40 C 553.00 363.91 552.97 364.91 552.96 365.41 C 547.40 372.84 540.70 379.41 532.54 383.93 C 532.04 383.97 531.02 384.05 530.51 384.10 C 529.53 384.66 528.56 385.22 527.59 385.78 C 526.17 386.03 524.77 386.30 523.38 386.62 C 521.66 386.97 519.94 387.32 518.26 387.81 C 514.61 387.99 510.79 388.53 507.29 387.17 C 507.05 387.45 506.58 388.01 506.34 388.29 C 500.48 386.51 494.30 385.30 489.13 381.83 C 483.94 378.70 479.37 374.57 475.92 369.58 C 475.91 369.11 475.91 368.17 475.90 367.70 C 474.00 365.18 472.62 362.35 471.25 359.54 C 470.93 358.49 470.60 357.45 470.27 356.41 C 470.13 355.96 469.84 355.05 469.70 354.59 C 469.17 352.49 468.78 350.37 468.17 348.30 C 467.91 344.44 467.92 340.56 468.17 336.70 C 468.78 334.64 469.16 332.52 469.69 330.44 C 469.83 329.97 470.12 329.03 470.26 328.57 C 470.61 327.54 470.95 326.51 471.30 325.49 C 472.00 323.98 472.71 322.47 473.39 320.95 M 502.37 352.06 C 501.26 353.16 500.15 354.26 499.04 355.36 C 499.04 356.45 499.04 357.54 499.05 358.64 C 500.16 359.73 501.27 360.84 502.38 361.95 C 503.87 361.97 505.36 361.99 506.87 362.02 C 508.03 360.36 509.17 358.67 510.29 356.98 C 509.15 355.29 508.01 353.61 506.83 351.95 C 505.34 351.98 503.85 352.02 502.37 352.06 Z" />
<path fill="#78aea4" stroke="#78aea4" stroke-width="0.09375" opacity="1.00" d=" M 266.99 329.04 C 289.00 328.98 311.00 328.98 333.01 329.04 C 332.91 333.47 333.01 337.91 333.04 342.36 C 330.72 342.72 328.39 343.02 326.05 343.05 C 308.68 342.97 291.31 342.97 273.94 343.05 C 271.60 343.02 269.27 342.73 266.96 342.35 C 266.98 337.91 267.08 333.47 266.99 329.04 Z" />
<path fill="#01745b" stroke="#01745b" stroke-width="0.09375" opacity="1.00" d=" M 266.96 342.35 C 269.27 342.73 271.60 343.02 273.94 343.05 C 291.31 342.97 308.68 342.97 326.05 343.05 C 328.39 343.02 330.72 342.72 333.04 342.36 L 333.05 343.00 C 350.79 343.13 368.54 342.73 386.27 343.21 C 388.00 343.69 389.77 343.98 391.55 344.27 C 398.20 346.89 403.86 351.97 406.87 358.49 C 407.00 358.96 407.28 359.90 407.42 360.36 C 408.79 367.59 407.45 375.00 408.19 382.29 C 408.43 382.71 408.90 383.54 409.14 383.96 C 408.87 397.95 409.03 411.94 409.02 425.93 L 408.05 426.03 C 407.94 444.68 408.01 463.34 408.03 482.00 C 408.01 483.89 407.82 485.79 407.42 487.64 C 407.28 488.11 407.00 489.04 406.87 489.50 C 403.88 496.07 398.13 501.08 391.52 503.80 C 390.55 503.98 389.60 504.17 388.64 504.37 C 380.52 505.83 372.20 504.46 364.00 505.18 L 363.02 505.21 C 321.02 504.77 279.00 505.04 237.00 505.07 C 228.48 504.65 219.89 505.64 211.43 504.49 C 210.08 504.07 208.73 503.67 207.40 503.24 C 206.93 503.15 205.98 502.97 205.50 502.87 C 203.15 501.09 200.80 499.31 198.41 497.58 C 195.48 493.58 191.80 489.31 191.97 484.05 C 192.03 468.69 191.98 453.33 192.01 437.97 C 192.00 434.20 192.17 430.41 191.70 426.66 L 191.58 425.76 C 190.18 411.99 191.55 398.09 190.84 384.27 L 191.93 383.56 C 192.43 375.84 191.25 368.01 192.58 360.36 C 192.72 359.89 193.00 358.95 193.14 358.48 C 196.14 351.98 201.79 346.87 208.46 344.29 C 209.88 343.94 211.31 343.60 212.72 343.16 C 230.79 342.78 248.88 343.10 266.95 343.00 L 266.96 342.35 M 210.35 359.05 C 209.25 360.16 208.15 361.26 207.05 362.37 C 207.03 363.79 207.01 365.22 207.00 366.66 C 207.75 367.33 208.51 368.01 209.26 368.70 C 210.43 369.06 211.61 369.44 212.78 369.83 C 214.20 368.84 215.62 367.84 217.03 366.83 C 217.00 365.34 216.98 363.86 216.95 362.38 C 215.85 361.27 214.75 360.17 213.66 359.06 C 212.55 359.05 211.45 359.04 210.35 359.05 M 383.94 364.93 C 384.94 367.40 387.58 368.60 389.62 370.10 C 392.06 368.61 393.96 366.49 395.32 364.00 C 394.29 362.59 393.59 360.79 392.01 359.90 C 388.58 357.32 383.95 361.19 383.94 364.93 M 232.46 368.31 C 225.49 369.86 219.36 376.69 219.95 384.05 C 220.04 411.04 220.01 438.03 219.96 465.02 C 219.71 470.73 224.03 475.52 228.59 478.38 C 231.64 480.50 235.47 480.00 238.98 480.03 C 281.65 479.93 324.32 480.09 366.99 479.95 C 373.23 478.76 378.75 473.24 379.95 467.00 C 380.10 439.68 379.90 412.34 380.04 385.01 C 381.17 376.08 372.80 367.64 363.96 367.97 C 321.31 368.02 278.66 368.02 236.01 367.97 C 234.81 367.97 233.63 368.08 232.46 368.31 M 207.01 484.12 C 207.00 485.69 206.99 487.27 206.97 488.86 C 208.85 490.08 210.62 492.01 212.99 492.07 C 214.50 491.18 215.70 489.88 216.99 488.72 C 216.99 487.19 217.01 485.67 217.03 484.15 C 215.36 482.97 213.68 481.83 211.98 480.71 C 210.31 481.82 208.65 482.95 207.01 484.12 M 384.00 486.88 C 384.69 490.83 389.24 493.31 392.69 490.89 C 393.22 489.99 393.75 489.08 394.28 488.18 C 396.50 485.11 392.11 482.59 390.03 480.91 C 386.92 481.04 384.00 483.71 384.00 486.88 Z" />
<path fill="#78aea4" stroke="#78aea4" stroke-width="0.09375" opacity="1.00" d=" M 92.35 352.07 C 93.85 352.03 95.35 351.99 96.86 351.97 C 98.03 353.62 99.17 355.30 100.29 357.00 C 99.16 358.70 98.01 360.39 96.82 362.06 C 95.32 362.01 93.83 361.96 92.34 361.93 C 91.25 360.82 90.15 359.72 89.04 358.63 C 89.04 357.53 89.05 356.44 89.05 355.36 C 90.15 354.26 91.25 353.17 92.35 352.07 Z" />
<path fill="#78aea4" stroke="#78aea4" stroke-width="0.09375" opacity="1.00" d=" M 502.37 352.06 C 503.85 352.02 505.34 351.98 506.83 351.95 C 508.01 353.61 509.15 355.29 510.29 356.98 C 509.17 358.67 508.03 360.36 506.87 362.02 C 505.36 361.99 503.87 361.97 502.38 361.95 C 501.27 360.84 500.16 359.73 499.05 358.64 C 499.04 357.54 499.04 356.45 499.04 355.36 C 500.15 354.26 501.26 353.16 502.37 352.06 Z" />
<path fill="#78aea4" stroke="#78aea4" stroke-width="0.09375" opacity="1.00" d=" M 210.35 359.05 C 211.45 359.04 212.55 359.05 213.66 359.06 C 214.75 360.17 215.85 361.27 216.95 362.38 C 216.98 363.86 217.00 365.34 217.03 366.83 C 215.62 367.84 214.20 368.84 212.78 369.83 C 211.61 369.44 210.43 369.06 209.26 368.70 C 208.51 368.01 207.75 367.33 207.00 366.66 C 207.01 365.22 207.03 363.79 207.05 362.37 C 208.15 361.26 209.25 360.16 210.35 359.05 Z" />
<path fill="#78aea4" stroke="#78aea4" stroke-width="0.09375" opacity="1.00" d=" M 383.94 364.93 C 383.95 361.19 388.58 357.32 392.01 359.90 C 393.59 360.79 394.29 362.59 395.32 364.00 C 393.96 366.49 392.06 368.61 389.62 370.10 C 387.58 368.60 384.94 367.40 383.94 364.93 Z" />
<path fill="#01745b" stroke="#01745b" stroke-width="0.09375" opacity="1.00" d=" M 182.39 365.71 C 184.60 365.15 186.85 364.74 189.05 364.14 C 188.96 371.15 189.01 378.15 189.01 385.16 L 189.93 384.84 C 190.00 395.43 190.09 406.02 189.90 416.60 C 187.02 415.88 185.16 413.62 183.71 411.18 C 180.29 405.90 175.81 401.31 173.14 395.55 C 173.01 395.30 172.74 394.80 172.61 394.55 C 169.81 389.74 165.85 385.75 162.97 381.00 C 164.74 378.47 166.59 375.96 168.73 373.72 C 172.01 370.30 176.39 368.31 180.53 366.16 C 181.00 366.05 181.93 365.82 182.39 365.71 Z" />
<path fill="#01745b" stroke="#01745b" stroke-width="0.09375" opacity="1.00" d=" M 410.95 364.15 C 413.14 364.74 415.38 365.15 417.59 365.71 C 418.06 365.82 419.00 366.05 419.47 366.16 C 422.15 367.58 424.93 368.85 427.44 370.57 C 431.49 373.15 434.28 377.16 437.03 380.99 C 433.96 385.79 430.27 390.15 426.92 394.75 C 427.17 394.94 427.67 395.30 427.92 395.48 C 422.59 402.09 417.75 409.10 412.83 416.02 C 412.12 416.02 410.72 416.01 410.02 416.00 C 410.12 405.96 409.69 395.90 410.26 385.86 L 410.68 384.28 C 411.40 377.60 410.86 370.85 410.95 364.15 Z" />
<path fill="#78aea4" stroke="#78aea4" stroke-width="0.09375" opacity="1.00" d=" M 232.46 368.31 C 233.63 368.08 234.81 367.97 236.01 367.97 C 278.66 368.02 321.31 368.02 363.96 367.97 C 372.80 367.64 381.17 376.08 380.04 385.01 C 379.90 412.34 380.10 439.68 379.95 467.00 C 378.75 473.24 373.23 478.76 366.99 479.95 C 324.32 480.09 281.65 479.93 238.98 480.03 C 235.47 480.00 231.64 480.50 228.59 478.38 C 224.03 475.52 219.71 470.73 219.96 465.02 C 220.01 438.03 220.04 411.04 219.95 384.05 C 219.36 376.69 225.49 369.86 232.46 368.31 M 233.34 375.22 C 230.06 376.56 228.19 379.66 226.20 382.40 C 225.59 384.54 224.92 386.70 224.98 388.96 C 225.04 412.64 224.97 436.33 225.01 460.02 C 225.19 468.32 232.80 475.13 241.01 474.97 C 279.99 475.06 318.98 474.94 357.97 475.03 C 362.46 475.03 366.91 473.14 370.32 470.27 C 373.96 467.34 374.79 462.38 375.01 457.98 C 375.00 435.32 374.97 412.65 375.03 389.99 C 374.99 382.65 370.07 374.25 362.04 373.99 C 322.68 374.00 283.32 374.01 243.96 373.99 C 240.42 374.13 236.56 373.31 233.34 375.22 Z" />
<path fill="#78aea4" stroke="#78aea4" stroke-width="0.09375" opacity="1.00" d=" M 115.67 378.70 C 118.87 375.86 121.72 372.66 124.88 369.78 C 132.84 383.30 140.84 396.80 149.13 410.12 C 157.30 405.55 164.90 400.02 173.14 395.55 C 175.81 401.31 180.29 405.90 183.71 411.18 C 185.16 413.62 187.02 415.88 189.90 416.60 C 190.09 406.02 190.00 395.43 189.93 384.84 C 190.16 384.70 190.61 384.42 190.84 384.27 C 191.55 398.09 190.18 411.99 191.58 425.76 C 181.53 432.37 171.18 438.51 161.06 445.00 C 158.46 446.70 155.69 448.11 152.95 449.59 C 151.34 437.96 150.33 426.25 148.76 414.61 C 143.04 425.87 137.21 437.08 131.84 448.50 C 130.25 447.33 128.79 445.95 127.78 444.23 C 123.14 436.55 118.79 428.68 113.75 421.24 C 106.99 410.35 100.62 399.23 94.18 388.16 C 101.91 386.59 109.53 383.77 115.67 378.70 Z" />
<path fill="#78aea4" stroke="#78aea4" stroke-width="0.09375" opacity="1.00" d=" M 451.62 410.39 C 459.49 396.65 467.90 383.23 475.92 369.58 C 479.37 374.57 483.94 378.70 489.13 381.83 C 494.30 385.30 500.48 386.51 506.34 388.29 C 498.07 402.01 489.85 415.78 481.59 429.51 C 479.04 433.66 476.81 438.05 473.70 441.83 C 466.42 431.96 459.60 421.76 452.02 412.12 C 451.72 423.03 452.23 433.95 451.73 444.85 C 451.55 447.26 451.28 449.67 450.98 452.08 C 448.65 450.72 446.31 449.38 443.99 448.02 C 432.52 440.36 420.72 433.22 409.02 425.93 C 409.03 411.94 408.87 397.95 409.14 383.96 C 409.42 384.44 409.98 385.39 410.26 385.86 C 409.69 395.90 410.12 405.96 410.02 416.00 C 410.72 416.01 412.12 416.02 412.83 416.02 C 417.75 409.10 422.59 402.09 427.92 395.48 C 435.63 400.73 443.64 405.56 451.62 410.39 Z" />
<path fill="#ffffff" stroke="#ffffff" stroke-width="0.09375" opacity="1.00" d=" M 233.34 375.22 C 236.56 373.31 240.42 374.13 243.96 373.99 C 283.32 374.01 322.68 374.00 362.04 373.99 C 370.07 374.25 374.99 382.65 375.03 389.99 C 374.97 412.65 375.00 435.32 375.01 457.98 C 374.79 462.38 373.96 467.34 370.32 470.27 C 366.91 473.14 362.46 475.03 357.97 475.03 C 318.98 474.94 279.99 475.06 241.01 474.97 C 232.80 475.13 225.19 468.32 225.01 460.02 C 224.97 436.33 225.04 412.64 224.98 388.96 C 224.92 386.70 225.59 384.54 226.20 382.40 C 228.19 379.66 230.06 376.56 233.34 375.22 M 279.10 394.55 C 277.15 394.75 275.24 395.24 273.46 396.05 C 272.78 395.92 271.43 395.67 270.75 395.55 C 268.36 396.11 265.97 396.78 263.80 397.96 C 257.33 399.69 250.81 401.97 245.34 405.94 C 240.35 405.73 235.35 405.91 230.35 405.72 C 230.31 406.19 230.24 407.12 230.20 407.59 C 231.29 407.95 232.39 408.31 233.49 408.67 C 233.46 414.19 233.86 419.74 233.32 425.24 C 232.12 425.78 230.91 426.30 229.68 426.77 C 230.25 427.51 230.99 427.86 231.89 427.82 C 238.14 427.81 244.40 427.75 250.65 427.87 C 253.85 432.51 259.35 434.58 263.94 437.53 C 263.45 437.67 262.47 437.94 261.98 438.08 C 259.05 436.83 255.87 436.32 252.96 435.03 C 248.77 433.39 245.36 430.35 241.30 428.46 C 241.93 429.81 242.77 431.13 244.10 431.92 C 249.82 435.67 256.26 438.21 262.77 440.20 C 264.91 441.14 267.23 442.01 269.61 441.59 C 289.55 445.20 310.07 445.22 330.03 441.80 C 329.74 441.24 329.15 440.13 328.86 439.57 C 332.16 439.15 335.26 437.77 338.11 436.09 C 340.54 434.60 343.28 433.23 344.56 430.51 C 339.16 432.21 335.02 437.02 329.02 436.87 C 331.89 434.54 335.44 432.59 336.69 428.87 C 333.57 428.67 330.44 428.61 327.32 428.61 C 327.64 426.49 327.90 424.36 328.07 422.23 C 326.00 424.09 325.50 426.93 324.25 429.30 C 322.89 432.12 320.75 434.44 318.63 436.70 C 316.46 436.67 314.29 436.65 312.13 436.64 C 313.57 433.84 314.96 430.98 315.50 427.86 C 318.35 427.78 321.20 428.03 324.06 427.89 C 325.09 425.74 321.37 426.29 320.21 425.47 C 319.79 422.02 319.81 418.53 319.75 415.07 C 325.33 419.57 331.04 423.92 336.67 428.37 C 338.03 428.36 339.40 428.36 340.78 428.37 C 341.09 423.67 341.26 418.97 341.10 414.27 C 342.53 414.77 343.98 415.21 345.47 415.57 C 344.81 414.49 344.15 413.42 343.48 412.36 C 344.92 411.17 346.35 409.96 347.77 408.75 C 346.88 408.51 345.12 408.03 344.23 407.79 L 345.52 406.47 C 345.74 406.44 346.20 406.39 346.43 406.37 C 346.23 402.46 342.23 402.00 339.64 400.19 C 342.77 400.32 345.67 401.60 348.38 403.09 C 348.83 404.09 349.33 405.08 349.86 406.06 C 350.43 405.71 351.58 405.00 352.16 404.64 C 352.69 405.02 353.76 405.78 354.29 406.16 C 353.18 406.33 352.08 406.51 350.99 406.70 C 349.77 408.09 348.56 409.49 347.35 410.89 C 347.75 414.18 349.88 416.97 352.96 418.19 C 352.69 418.76 352.14 419.90 351.86 420.46 L 351.51 419.42 C 350.53 419.47 348.56 419.58 347.58 419.63 C 347.62 421.78 347.70 423.94 347.73 426.10 C 345.82 426.26 342.74 427.66 343.80 430.00 C 346.26 431.49 349.25 430.45 351.88 430.07 C 351.62 431.29 351.35 432.51 351.19 433.75 C 354.55 434.08 356.91 431.21 359.19 429.20 C 357.38 428.92 355.57 428.69 353.79 428.33 C 358.14 428.85 363.00 429.23 366.91 426.86 C 369.14 425.51 371.11 422.71 369.98 420.05 C 369.03 417.43 366.41 415.99 363.94 415.09 C 365.48 414.44 367.11 414.07 368.72 413.62 C 369.27 411.77 368.49 409.75 368.36 407.84 C 365.57 404.79 360.73 405.42 356.99 405.75 C 352.24 404.13 348.07 401.20 343.28 399.71 C 335.71 397.34 327.93 395.70 320.07 394.71 C 306.55 392.26 292.68 392.91 279.10 394.55 M 342.39 419.11 C 341.67 420.30 343.69 421.57 344.62 420.70 C 345.32 419.50 343.31 418.20 342.39 419.11 M 248.23 438.22 C 247.15 440.16 246.46 442.28 245.61 444.33 C 247.43 445.08 249.28 445.78 251.15 446.41 C 252.18 444.56 253.13 442.66 254.04 440.75 C 252.36 439.65 250.34 437.37 248.23 438.22 M 345.60 441.96 C 346.34 443.30 346.92 444.78 347.98 445.92 C 350.54 445.72 352.68 443.90 354.90 442.74 C 354.32 442.82 353.16 442.97 352.58 443.05 C 351.02 443.05 349.60 443.46 348.65 444.81 C 348.34 444.03 347.73 442.46 347.42 441.68 C 348.29 441.72 350.03 441.79 350.90 441.83 C 349.79 438.96 347.27 440.88 345.60 441.96 M 338.88 448.74 C 340.21 448.33 341.55 447.94 342.90 447.59 C 342.63 446.04 342.41 444.48 342.24 442.93 C 343.64 444.33 344.75 446.02 346.07 447.52 C 345.99 445.41 345.13 443.49 344.19 441.64 C 342.90 442.26 341.62 442.89 340.34 443.53 C 341.72 444.95 340.79 446.58 340.19 447.97 C 339.60 445.59 338.99 443.22 338.25 440.90 C 336.09 443.08 338.53 446.22 338.88 448.74 M 254.67 442.52 C 253.79 443.73 253.19 445.19 253.19 446.72 C 254.47 447.69 256.12 448.49 257.77 447.75 L 256.92 447.20 C 256.44 447.02 255.47 446.67 254.99 446.49 C 255.38 445.45 255.78 444.42 256.19 443.39 C 255.92 444.62 256.19 445.54 257.01 446.14 C 257.47 445.58 258.39 444.46 258.85 443.90 C 257.52 443.48 256.15 441.77 254.67 442.52 M 258.41 448.61 C 258.74 448.67 259.41 448.81 259.74 448.88 C 260.50 446.31 261.18 443.71 261.46 441.06 C 259.34 443.00 259.27 446.05 258.41 448.61 M 263.09 442.09 C 262.81 444.70 260.17 447.63 262.05 450.05 C 262.86 448.99 262.11 446.33 263.78 446.19 C 264.21 447.51 264.51 448.89 264.86 450.25 C 265.21 450.32 265.93 450.47 266.29 450.55 C 267.19 448.74 268.08 446.92 268.87 445.07 C 267.97 445.84 266.17 447.38 265.27 448.15 C 265.38 447.47 265.60 446.11 265.71 445.43 C 265.29 445.31 264.46 445.07 264.04 444.94 C 263.95 444.21 263.77 442.73 263.69 441.99 L 263.09 442.09 M 329.22 449.09 C 328.76 448.49 327.82 447.28 327.35 446.68 C 326.09 446.71 324.82 446.83 323.60 446.45 C 320.10 446.31 320.18 451.05 322.64 452.41 C 322.61 450.60 322.61 448.80 322.63 447.01 C 324.18 448.32 324.54 450.38 325.24 452.18 C 325.70 450.50 326.04 448.78 326.78 447.20 C 327.61 449.30 328.76 451.39 328.43 453.75 C 331.40 451.82 330.27 447.87 330.55 444.89 C 329.14 445.87 329.16 447.50 329.22 449.09 M 275.17 446.60 L 275.21 448.43 C 273.86 447.42 272.44 446.36 271.01 445.52 C 270.63 448.38 272.64 448.97 274.69 449.23 C 274.56 450.00 274.31 451.54 274.19 452.31 C 275.85 451.63 275.83 449.80 276.17 448.33 C 276.89 448.43 278.33 448.64 279.05 448.74 C 279.45 449.92 279.85 451.10 280.27 452.28 C 279.88 453.25 279.49 454.23 279.12 455.22 C 282.63 454.16 282.90 449.96 283.83 446.99 C 282.41 447.98 281.67 449.55 280.81 451.00 C 280.72 450.18 280.53 448.55 280.44 447.73 C 278.67 447.40 276.92 447.00 275.17 446.60 M 287.90 446.95 C 287.28 448.60 287.22 450.47 287.62 452.19 C 288.73 453.39 290.43 453.29 291.92 453.52 C 292.68 452.74 293.45 451.97 294.24 451.23 L 296.31 454.26 C 296.14 452.58 295.98 450.91 295.82 449.25 C 296.31 449.52 297.30 450.06 297.79 450.33 L 297.67 451.17 L 297.27 451.95 C 297.26 452.14 297.24 452.52 297.22 452.71 C 298.75 452.27 300.24 452.46 301.55 453.40 C 301.81 451.89 302.06 450.39 302.32 448.89 C 303.66 450.25 303.15 452.54 304.57 453.82 C 304.88 452.16 305.17 450.50 305.43 448.84 C 306.32 450.54 306.98 452.37 308.00 454.01 C 307.74 452.25 308.97 449.41 307.02 448.30 C 304.89 448.28 302.76 448.40 300.64 448.49 C 300.99 452.26 298.76 448.87 297.66 448.50 C 296.49 447.30 295.30 448.84 294.58 449.67 C 293.36 451.41 291.10 451.63 289.19 452.03 C 289.16 450.57 289.18 449.12 289.26 447.68 C 291.01 446.94 292.48 448.32 294.03 448.92 C 293.87 445.85 289.89 444.85 287.90 446.95 M 268.16 450.22 C 270.03 451.09 273.04 452.78 273.48 449.38 C 272.66 449.54 271.02 449.86 270.20 450.02 C 270.38 448.89 270.74 446.62 270.92 445.49 C 269.50 446.74 268.58 448.32 268.16 450.22 M 309.24 448.37 C 309.37 450.50 309.49 452.64 309.54 454.79 C 309.78 455.02 310.26 455.47 310.49 455.70 C 310.68 455.15 311.06 454.05 311.25 453.50 C 312.28 453.13 313.23 452.62 314.11 451.99 C 314.33 450.43 313.73 448.96 313.33 447.50 C 311.96 447.78 310.60 448.07 309.24 448.37 M 315.24 447.72 C 315.35 449.20 315.34 450.72 315.58 452.20 C 316.90 453.14 318.71 452.18 320.24 452.21 C 319.93 450.70 319.72 449.20 319.30 447.73 C 318.02 446.96 316.58 447.55 315.24 447.72 M 331.99 448.96 C 330.94 449.88 332.10 452.40 333.49 451.43 C 334.49 450.50 333.37 447.93 331.99 448.96 Z" />
<path fill="#d8d8d8" stroke="#d8d8d8" stroke-width="0.09375" opacity="1.00" d=" M 279.10 394.55 C 292.68 392.91 306.55 392.26 320.07 394.71 C 315.33 395.17 310.62 395.97 305.96 396.94 C 304.03 395.57 301.77 395.07 299.44 395.32 C 300.22 396.20 301.00 397.08 301.79 397.96 C 300.72 397.62 299.66 397.26 298.62 396.87 C 298.77 396.38 299.08 395.42 299.23 394.93 C 291.41 395.36 283.67 396.74 275.83 396.62 C 275.24 396.48 274.05 396.19 273.46 396.05 C 275.24 395.24 277.15 394.75 279.10 394.55 Z" />
<path fill="#e6e8e7" stroke="#e6e8e7" stroke-width="0.09375" opacity="1.00" d=" M 275.83 396.62 C 283.67 396.74 291.41 395.36 299.23 394.93 C 299.08 395.42 298.77 396.38 298.62 396.87 C 297.00 397.85 295.33 398.73 293.67 399.63 C 294.23 400.03 295.34 400.83 295.90 401.23 C 297.16 400.38 298.42 399.54 299.70 398.73 C 299.16 403.49 293.35 401.28 290.32 403.27 C 289.63 404.51 289.12 405.83 288.58 407.14 C 290.71 406.61 292.84 406.04 295.00 405.59 C 295.36 405.52 296.07 405.38 296.43 405.31 C 295.17 406.47 294.00 407.74 293.08 409.19 C 291.49 408.60 289.91 407.97 288.34 407.35 C 287.33 406.93 286.31 406.53 285.26 406.21 C 286.08 404.06 286.94 401.90 287.33 399.62 C 288.37 397.09 283.46 397.69 285.34 399.91 C 281.35 400.18 278.94 403.58 276.33 406.13 L 275.11 406.18 C 276.10 403.60 278.03 401.58 279.87 399.58 C 276.84 400.44 273.94 401.65 271.06 402.90 C 271.07 402.01 271.09 400.23 271.10 399.34 C 267.23 399.29 263.86 401.37 260.24 402.38 C 262.04 400.55 264.22 399.18 266.45 397.93 C 265.79 397.94 264.46 397.95 263.80 397.96 C 265.97 396.78 268.36 396.11 270.75 395.55 C 270.93 396.50 271.27 398.41 271.44 399.37 C 272.90 398.44 274.34 397.50 275.83 396.62 Z" />
<path fill="#f1f0f0" stroke="#f1f0f0" stroke-width="0.09375" opacity="1.00" d=" M 299.44 395.32 C 301.77 395.07 304.03 395.57 305.96 396.94 C 304.57 397.29 303.18 397.63 301.79 397.96 C 301.00 397.08 300.22 396.20 299.44 395.32 Z" />
<path fill="#adc9c0" stroke="#adc9c0" stroke-width="0.09375" opacity="1.00" d=" M 305.96 396.94 C 310.62 395.97 315.33 395.17 320.07 394.71 C 327.93 395.70 335.71 397.34 343.28 399.71 C 348.07 401.20 352.24 404.13 356.99 405.75 C 356.31 405.85 354.96 406.05 354.29 406.16 C 353.76 405.78 352.69 405.02 352.16 404.64 C 351.58 405.00 350.43 405.71 349.86 406.06 C 349.33 405.08 348.83 404.09 348.38 403.09 C 345.67 401.60 342.77 400.32 339.64 400.19 C 342.23 402.00 346.23 402.46 346.43 406.37 C 346.20 406.39 345.74 406.44 345.52 406.47 C 341.10 406.25 336.68 406.04 332.26 406.24 C 334.03 407.70 337.35 408.38 336.92 411.27 C 334.54 411.79 332.38 412.89 330.53 414.47 C 325.84 411.34 322.18 405.80 316.02 405.75 C 315.65 412.25 316.69 418.90 315.47 425.31 C 314.84 425.61 313.57 426.21 312.94 426.50 C 314.45 424.21 315.48 421.66 315.82 418.92 C 314.43 419.38 313.05 419.86 311.67 420.34 C 311.12 422.09 310.57 423.85 310.00 425.60 C 306.14 420.46 303.91 414.35 300.98 408.67 C 302.21 408.68 303.43 408.69 304.67 408.71 C 307.66 411.31 310.57 414.48 314.54 415.51 C 314.67 415.39 314.94 415.15 315.07 415.04 C 311.02 412.19 306.56 409.56 304.42 404.84 C 302.17 405.20 299.90 405.03 297.70 404.46 C 297.52 404.65 297.14 405.03 296.95 405.22 L 296.43 405.31 C 296.07 405.38 295.36 405.52 295.00 405.59 C 292.84 406.04 290.71 406.61 288.58 407.14 C 289.12 405.83 289.63 404.51 290.32 403.27 C 293.35 401.28 299.16 403.49 299.70 398.73 C 298.42 399.54 297.16 400.38 295.90 401.23 C 295.34 400.83 294.23 400.03 293.67 399.63 C 295.33 398.73 297.00 397.85 298.62 396.87 C 299.66 397.26 300.72 397.62 301.79 397.96 C 303.18 397.63 304.57 397.29 305.96 396.94 Z" />
<path fill="#afc1bc" stroke="#afc1bc" stroke-width="0.09375" opacity="1.00" d=" M 270.75 395.55 C 271.43 395.67 272.78 395.92 273.46 396.05 C 274.05 396.19 275.24 396.48 275.83 396.62 C 274.34 397.50 272.90 398.44 271.44 399.37 C 271.27 398.41 270.93 396.50 270.75 395.55 Z" />
<path fill="#abcac0" stroke="#abcac0" stroke-width="0.09375" opacity="1.00" d=" M 245.34 405.94 C 250.81 401.97 257.33 399.69 263.80 397.96 C 264.46 397.95 265.79 397.94 266.45 397.93 C 264.22 399.18 262.04 400.55 260.24 402.38 C 263.86 401.37 267.23 399.29 271.10 399.34 C 271.09 400.23 271.07 402.01 271.06 402.90 C 269.80 403.13 268.53 403.25 267.28 403.39 C 266.90 403.68 266.16 404.27 265.79 404.56 C 264.27 405.10 262.74 405.64 261.23 406.21 C 259.37 406.19 257.51 406.17 255.65 406.30 C 255.52 407.56 257.07 407.83 257.80 408.55 C 256.42 409.02 255.04 409.51 253.68 410.06 C 253.58 408.87 253.48 407.69 253.36 406.52 C 250.69 406.33 248.01 406.13 245.34 405.94 Z" />
<path fill="#c3d4cf" stroke="#c3d4cf" stroke-width="0.09375" opacity="1.00" d=" M 285.34 399.91 C 283.46 397.69 288.37 397.09 287.33 399.62 C 286.83 399.69 285.84 399.84 285.34 399.91 Z" />
<path fill="#ffffff" stroke="#ffffff" stroke-width="0.09375" opacity="1.00" d=" M 271.06 402.90 C 273.94 401.65 276.84 400.44 279.87 399.58 C 278.03 401.58 276.10 403.60 275.11 406.18 C 275.28 406.55 275.61 407.30 275.78 407.67 C 276.64 407.94 278.35 408.47 279.21 408.73 C 277.62 412.87 275.77 416.90 274.07 420.99 C 272.24 416.76 270.21 412.62 268.16 408.50 C 269.68 408.10 271.20 407.69 272.72 407.27 C 269.26 405.19 265.02 406.63 261.23 406.21 C 262.74 405.64 264.27 405.10 265.79 404.56 C 266.16 404.27 266.90 403.68 267.28 403.39 C 268.53 403.25 269.80 403.13 271.06 402.90 Z" />
<path fill="#ffffff" stroke="#ffffff" stroke-width="0.09375" opacity="1.00" d=" M 276.33 406.13 C 278.94 403.58 281.35 400.18 285.34 399.91 C 285.84 399.84 286.83 399.69 287.33 399.62 C 286.94 401.90 286.08 404.06 285.26 406.21 C 282.28 406.15 279.30 406.16 276.33 406.13 Z" />
<path fill="#ffffff" stroke="#ffffff" stroke-width="0.09375" opacity="1.00" d=" M 296.95 405.22 C 297.14 405.03 297.52 404.65 297.70 404.46 C 299.90 405.03 302.17 405.20 304.42 404.84 C 306.56 409.56 311.02 412.19 315.07 415.04 C 314.94 415.15 314.67 415.39 314.54 415.51 C 310.57 414.48 307.66 411.31 304.67 408.71 C 303.43 408.69 302.21 408.68 300.98 408.67 C 300.22 406.92 298.77 405.75 296.95 405.22 Z" />
<path fill="#0c775d" stroke="#0c775d" stroke-width="0.09375" opacity="1.00" d=" M 230.35 405.72 C 235.35 405.91 240.35 405.73 245.34 405.94 C 248.01 406.13 250.69 406.33 253.36 406.52 C 253.48 407.69 253.58 408.87 253.68 410.06 C 253.71 410.59 253.77 411.66 253.80 412.19 C 253.22 412.16 252.05 412.09 251.47 412.06 C 249.37 408.53 245.40 408.31 241.70 408.47 C 241.79 410.86 241.68 413.26 241.58 415.66 C 243.57 415.50 245.57 415.31 247.56 415.08 C 247.71 414.50 248.00 413.32 248.15 412.74 C 248.70 412.75 249.81 412.77 250.36 412.78 C 250.66 415.04 250.45 417.33 250.33 419.61 C 249.37 420.33 248.48 421.21 248.04 422.35 C 247.83 422.73 247.42 423.51 247.22 423.89 C 247.27 421.87 247.35 419.84 247.43 417.83 C 245.46 417.75 243.49 417.69 241.53 417.63 C 241.57 420.22 241.61 422.81 241.69 425.40 C 243.75 425.56 245.85 425.92 247.92 425.52 C 250.43 424.94 251.75 422.52 253.12 420.58 C 253.76 420.55 255.04 420.48 255.69 420.45 C 255.59 421.65 255.49 422.85 255.37 424.06 C 254.93 426.66 253.49 428.54 250.65 427.87 C 244.40 427.75 238.14 427.81 231.89 427.82 C 230.99 427.86 230.25 427.51 229.68 426.77 C 230.91 426.30 232.12 425.78 233.32 425.24 C 233.86 419.74 233.46 414.19 233.49 408.67 C 232.39 408.31 231.29 407.95 230.20 407.59 C 230.24 407.12 230.31 406.19 230.35 405.72 M 235.09 407.89 C 235.41 413.88 235.36 419.88 235.23 425.88 C 237.01 425.92 238.80 425.97 240.59 426.03 C 239.77 423.05 239.68 419.95 240.50 416.96 C 239.96 413.99 239.93 410.97 240.48 408.01 C 238.68 407.96 236.88 407.93 235.09 407.89 Z" />
<path fill="#21816d" stroke="#21816d" stroke-width="0.09375" opacity="1.00" d=" M 255.65 406.30 C 257.51 406.17 259.37 406.19 261.23 406.21 C 265.02 406.63 269.26 405.19 272.72 407.27 C 271.20 407.69 269.68 408.10 268.16 408.50 C 270.21 412.62 272.24 416.76 274.07 420.99 C 275.77 416.90 277.62 412.87 279.21 408.73 C 278.35 408.47 276.64 407.94 275.78 407.67 C 275.61 407.30 275.28 406.55 275.11 406.18 L 276.33 406.13 C 279.30 406.16 282.28 406.15 285.26 406.21 C 286.31 406.53 287.33 406.93 288.34 407.35 C 286.80 408.02 284.89 408.36 283.85 409.82 C 280.23 415.74 277.58 422.19 274.09 428.18 C 272.39 428.17 270.70 428.16 269.01 428.16 C 266.86 424.25 264.80 420.28 262.75 416.32 C 261.28 413.62 259.71 410.96 257.80 408.55 C 257.07 407.83 255.52 407.56 255.65 406.30 Z" />
<path fill="#21816d" stroke="#21816d" stroke-width="0.09375" opacity="1.00" d=" M 293.08 409.19 C 294.00 407.74 295.17 406.47 296.43 405.31 L 296.95 405.22 C 298.77 405.75 300.22 406.92 300.98 408.67 C 303.91 414.35 306.14 420.46 310.00 425.60 C 310.97 425.92 311.95 426.22 312.94 426.50 C 313.57 426.21 314.84 425.61 315.47 425.31 C 316.69 418.90 315.65 412.25 316.02 405.75 C 322.18 405.80 325.84 411.34 330.53 414.47 C 332.66 416.12 334.77 417.81 336.87 419.50 C 336.89 416.76 336.93 414.01 336.92 411.27 C 337.35 408.38 334.03 407.70 332.26 406.24 C 336.68 406.04 341.10 406.25 345.52 406.47 L 344.23 407.79 C 343.16 407.96 342.09 408.13 341.03 408.31 C 341.04 410.29 341.06 412.27 341.10 414.27 C 341.26 418.97 341.09 423.67 340.78 428.37 C 339.40 428.36 338.03 428.36 336.67 428.37 C 331.04 423.92 325.33 419.57 319.75 415.07 C 319.81 418.53 319.79 422.02 320.21 425.47 C 321.37 426.29 325.09 425.74 324.06 427.89 C 321.20 428.03 318.35 427.78 315.50 427.86 L 314.16 427.89 C 312.26 427.89 310.36 427.89 308.46 427.90 C 305.70 427.88 302.94 427.89 300.18 428.01 C 298.70 428.15 297.39 427.81 296.26 426.97 C 297.57 426.33 298.89 425.73 300.25 425.17 C 299.49 423.81 298.80 422.40 297.82 421.20 C 295.69 420.79 293.52 420.92 291.37 420.96 C 290.63 422.37 289.88 423.77 289.14 425.19 C 290.64 425.81 292.14 426.45 293.63 427.11 C 290.92 428.07 288.00 427.96 285.17 427.98 L 283.32 427.91 C 282.84 427.75 281.88 427.43 281.39 427.27 C 285.06 424.83 287.36 421.12 289.13 417.19 C 290.50 414.55 291.76 411.86 293.08 409.19 M 294.77 414.06 C 293.93 415.61 293.06 417.14 292.20 418.69 C 293.45 418.71 295.94 418.74 297.18 418.75 C 296.36 417.19 295.56 415.63 294.77 414.06 Z" />
<path fill="#197d66" stroke="#197d66" stroke-width="0.09375" opacity="1.00" d=" M 354.29 406.16 C 354.96 406.05 356.31 405.85 356.99 405.75 C 360.73 405.42 365.57 404.79 368.36 407.84 C 368.31 409.47 368.87 411.32 367.77 412.74 C 364.50 413.73 363.86 408.18 360.73 407.79 C 358.85 407.80 357.05 408.40 355.24 408.77 C 351.68 407.16 348.51 411.31 350.60 414.43 C 354.34 417.32 359.55 417.70 362.94 421.12 C 364.95 422.79 363.15 425.20 362.62 427.14 C 365.24 425.68 369.14 423.92 367.72 420.18 C 365.65 415.88 358.62 417.13 356.84 412.29 C 359.13 413.41 361.54 414.25 363.94 415.09 C 366.41 415.99 369.03 417.43 369.98 420.05 C 371.11 422.71 369.14 425.51 366.91 426.86 C 363.00 429.23 358.14 428.85 353.79 428.33 C 351.64 427.96 349.64 427.09 347.73 426.10 C 347.70 423.94 347.62 421.78 347.58 419.63 C 348.56 419.58 350.53 419.47 351.51 419.42 L 351.86 420.46 C 352.35 422.32 353.51 423.87 354.75 425.31 C 357.51 426.96 360.70 426.39 362.96 424.17 C 360.94 420.43 356.52 419.72 352.96 418.19 C 349.88 416.97 347.75 414.18 347.35 410.89 C 348.56 409.49 349.77 408.09 350.99 406.70 C 352.08 406.51 353.18 406.33 354.29 406.16 Z" />
<path fill="#eae8eb" stroke="#eae8eb" stroke-width="0.09375" opacity="1.00" d=" M 355.24 408.77 C 357.05 408.40 358.85 407.80 360.73 407.79 C 363.86 408.18 364.50 413.73 367.77 412.74 C 368.87 411.32 368.31 409.47 368.36 407.84 C 368.49 409.75 369.27 411.77 368.72 413.62 C 367.11 414.07 365.48 414.44 363.94 415.09 C 361.54 414.25 359.13 413.41 356.84 412.29 C 356.17 411.18 355.72 409.96 355.24 408.77 Z" />
<path fill="#21816d" stroke="#21816d" stroke-width="0.09375" opacity="1.00" d=" M 235.09 407.89 C 236.88 407.93 238.68 407.96 240.48 408.01 C 239.93 410.97 239.96 413.99 240.50 416.96 C 239.68 419.95 239.77 423.05 240.59 426.03 C 238.80 425.97 237.01 425.92 235.23 425.88 C 235.36 419.88 235.41 413.88 235.09 407.89 Z" />
<path fill="#abcbc1" stroke="#abcbc1" stroke-width="0.09375" opacity="1.00" d=" M 283.85 409.82 C 284.89 408.36 286.80 408.02 288.34 407.35 C 289.91 407.97 291.49 408.60 293.08 409.19 C 291.76 411.86 290.50 414.55 289.13 417.19 C 287.30 416.57 285.36 416.08 283.85 414.82 C 283.60 413.16 283.72 411.48 283.85 409.82 Z" />
<path fill="#b8d4cc" stroke="#b8d4cc" stroke-width="0.09375" opacity="1.00" d=" M 341.03 408.31 C 342.09 408.13 343.16 407.96 344.23 407.79 C 345.12 408.03 346.88 408.51 347.77 408.75 C 346.35 409.96 344.92 411.17 343.48 412.36 C 344.15 413.42 344.81 414.49 345.47 415.57 C 343.98 415.21 342.53 414.77 341.10 414.27 C 341.06 412.27 341.04 410.29 341.03 408.31 Z" />
<path fill="#21816d" stroke="#21816d" stroke-width="0.09375" opacity="1.00" d=" M 350.60 414.43 C 348.51 411.31 351.68 407.16 355.24 408.77 C 355.72 409.96 356.17 411.18 356.84 412.29 C 358.62 417.13 365.65 415.88 367.72 420.18 C 369.14 423.92 365.24 425.68 362.62 427.14 C 363.15 425.20 364.95 422.79 362.94 421.12 C 359.55 417.70 354.34 417.32 350.60 414.43 Z" />
<path fill="#ffffff" stroke="#ffffff" stroke-width="0.09375" opacity="1.00" d=" M 241.70 408.47 C 245.40 408.31 249.37 408.53 251.47 412.06 C 252.05 412.09 253.22 412.16 253.80 412.19 C 253.77 411.66 253.71 410.59 253.68 410.06 C 255.04 409.51 256.42 409.02 257.80 408.55 C 259.71 410.96 261.28 413.62 262.75 416.32 C 259.30 415.76 255.80 415.75 252.34 416.09 C 252.60 417.58 252.86 419.08 253.12 420.58 C 251.75 422.52 250.43 424.94 247.92 425.52 C 245.85 425.92 243.75 425.56 241.69 425.40 C 241.61 422.81 241.57 420.22 241.53 417.63 C 243.49 417.69 245.46 417.75 247.43 417.83 C 247.35 419.84 247.27 421.87 247.22 423.89 C 247.42 423.51 247.83 422.73 248.04 422.35 C 248.48 421.21 249.37 420.33 250.33 419.61 C 250.45 417.33 250.66 415.04 250.36 412.78 C 249.81 412.77 248.70 412.75 248.15 412.74 C 246.58 411.28 245.37 407.94 242.84 409.90 C 242.81 410.39 242.73 411.37 242.70 411.86 C 243.63 413.70 245.96 414.01 247.56 415.08 C 245.57 415.31 243.57 415.50 241.58 415.66 C 241.68 413.26 241.79 410.86 241.70 408.47 Z" />
<path fill="#a8c7bd" stroke="#a8c7bd" stroke-width="0.09375" opacity="1.00" d=" M 242.84 409.90 C 245.37 407.94 246.58 411.28 248.15 412.74 C 248.00 413.32 247.71 414.50 247.56 415.08 C 245.96 414.01 243.63 413.70 242.70 411.86 C 242.73 411.37 242.81 410.39 242.84 409.90 Z" />
<path fill="#ffffff" stroke="#ffffff" stroke-width="0.09375" opacity="1.00" d=" M 274.09 428.18 C 277.58 422.19 280.23 415.74 283.85 409.82 C 283.72 411.48 283.60 413.16 283.85 414.82 C 285.36 416.08 287.30 416.57 289.13 417.19 C 287.36 421.12 285.06 424.83 281.39 427.27 C 281.88 427.43 282.84 427.75 283.32 427.91 C 284.52 431.02 285.97 434.04 287.58 436.97 C 285.05 436.72 282.36 437.01 279.97 436.02 C 278.13 434.66 277.16 432.49 275.94 430.62 C 278.26 430.34 280.57 430.03 282.88 429.65 C 279.96 428.56 276.83 428.47 273.76 428.67 L 274.09 428.18 Z" />
<path fill="#ffffff" stroke="#ffffff" stroke-width="0.09375" opacity="1.00" d=" M 330.53 414.47 C 332.38 412.89 334.54 411.79 336.92 411.27 C 336.93 414.01 336.89 416.76 336.87 419.50 C 334.77 417.81 332.66 416.12 330.53 414.47 Z" />
<path fill="#231f21" stroke="#231f21" stroke-width="0.09375" opacity="1.00" d=" M 452.02 412.12 C 459.60 421.76 466.42 431.96 473.70 441.83 C 470.81 446.06 467.24 449.91 462.44 451.97 C 458.87 452.01 455.31 452.01 451.74 451.93 C 451.60 449.57 451.61 447.20 451.73 444.85 C 452.23 433.95 451.72 423.03 452.02 412.12 Z" />
<path fill="#ffffff" stroke="#ffffff" stroke-width="0.09375" opacity="1.00" d=" M 294.77 414.06 C 295.56 415.63 296.36 417.19 297.18 418.75 C 295.94 418.74 293.45 418.71 292.20 418.69 C 293.06 417.14 293.93 415.61 294.77 414.06 Z" />
<path fill="#231f21" stroke="#231f21" stroke-width="0.09375" opacity="1.00" d=" M 131.84 448.50 C 137.21 437.08 143.04 425.87 148.76 414.61 C 150.33 426.25 151.34 437.96 152.95 449.59 L 152.73 449.72 C 152.17 449.99 151.04 450.52 150.48 450.79 C 150.01 450.95 149.08 451.26 148.62 451.41 C 144.94 452.31 141.05 452.30 137.37 451.42 C 136.93 451.26 136.06 450.94 135.62 450.77 C 134.48 450.05 133.32 449.36 132.13 448.75 L 131.84 448.50 Z" />
<path fill="#adc9c0" stroke="#adc9c0" stroke-width="0.09375" opacity="1.00" d=" M 252.34 416.09 C 255.80 415.75 259.30 415.76 262.75 416.32 C 264.80 420.28 266.86 424.25 269.01 428.16 C 270.70 428.16 272.39 428.17 274.09 428.18 L 273.76 428.67 L 272.40 428.74 C 271.79 428.76 270.57 428.81 269.96 428.83 C 268.89 429.85 267.83 430.87 266.79 431.93 C 266.01 433.54 267.05 435.04 267.67 436.50 C 261.10 435.37 259.23 428.44 255.37 424.06 C 255.49 422.85 255.59 421.65 255.69 420.45 C 255.04 420.48 253.76 420.55 253.12 420.58 C 252.86 419.08 252.60 417.58 252.34 416.09 Z" />
<path fill="#ffffff" stroke="#ffffff" stroke-width="0.09375" opacity="1.00" d=" M 311.67 420.34 C 313.05 419.86 314.43 419.38 315.82 418.92 C 315.48 421.66 314.45 424.21 312.94 426.50 C 311.95 426.22 310.97 425.92 310.00 425.60 C 310.57 423.85 311.12 422.09 311.67 420.34 Z" />
<path fill="#bdcdc8" stroke="#bdcdc8" stroke-width="0.09375" opacity="1.00" d=" M 342.39 419.11 C 343.31 418.20 345.32 419.50 344.62 420.70 C 343.69 421.57 341.67 420.30 342.39 419.11 Z" />
<path fill="#fafdfd" stroke="#fafdfd" stroke-width="0.09375" opacity="1.00" d=" M 352.96 418.19 C 356.52 419.72 360.94 420.43 362.96 424.17 C 361.05 423.87 359.16 423.59 357.26 423.29 C 356.42 423.95 355.58 424.63 354.75 425.31 C 353.51 423.87 352.35 422.32 351.86 420.46 C 352.14 419.90 352.69 418.76 352.96 418.19 Z" />
<path fill="#ffffff" stroke="#ffffff" stroke-width="0.09375" opacity="1.00" d=" M 291.37 420.96 C 293.52 420.92 295.69 420.79 297.82 421.20 C 298.80 422.40 299.49 423.81 300.25 425.17 C 298.89 425.73 297.57 426.33 296.26 426.97 C 297.39 427.81 298.70 428.15 300.18 428.01 L 299.51 428.46 C 298.85 431.15 298.62 433.92 298.43 436.68 C 295.43 436.69 292.43 436.69 289.43 436.68 C 288.27 433.66 287.06 430.62 285.17 427.98 C 288.00 427.96 290.92 428.07 293.63 427.11 C 292.14 426.45 290.64 425.81 289.14 425.19 C 289.88 423.77 290.63 422.37 291.37 420.96 Z" />
<path fill="#f7f3f6" stroke="#f7f3f6" stroke-width="0.09375" opacity="1.00" d=" M 324.25 429.30 C 325.50 426.93 326.00 424.09 328.07 422.23 C 327.90 424.36 327.64 426.49 327.32 428.61 C 330.44 428.61 333.57 428.67 336.69 428.87 C 335.44 432.59 331.89 434.54 329.02 436.87 C 335.02 437.02 339.16 432.21 344.56 430.51 C 343.28 433.23 340.54 434.60 338.11 436.09 C 335.26 437.77 332.16 439.15 328.86 439.57 C 321.62 440.04 314.36 439.54 307.12 439.92 C 307.27 439.43 307.56 438.47 307.71 437.99 C 305.35 438.00 302.99 438.02 300.63 438.05 C 300.38 438.81 299.89 440.32 299.65 441.08 L 299.09 441.18 C 298.95 440.48 298.68 439.07 298.55 438.37 C 296.11 438.34 293.67 438.31 291.23 438.28 C 291.84 439.21 292.45 440.14 293.06 441.08 C 292.74 441.04 292.09 440.97 291.77 440.94 C 289.31 439.10 286.42 438.10 283.37 437.85 C 283.58 438.50 284.00 439.79 284.20 440.44 C 281.90 439.60 279.61 438.77 277.31 437.93 C 277.93 438.76 278.54 439.60 279.16 440.44 C 276.46 439.70 273.77 438.92 271.09 438.11 C 272.46 439.03 273.83 439.96 275.24 440.82 C 273.36 441.04 271.49 441.36 269.61 441.59 C 267.23 442.01 264.91 441.14 262.77 440.20 C 263.52 440.18 265.00 440.16 265.74 440.14 C 264.49 439.42 263.26 438.71 261.98 438.08 C 262.47 437.94 263.45 437.67 263.94 437.53 C 259.35 434.58 253.85 432.51 250.65 427.87 C 253.49 428.54 254.93 426.66 255.37 424.06 C 259.23 428.44 261.10 435.37 267.67 436.50 C 267.05 435.04 266.01 433.54 266.79 431.93 C 270.03 434.49 273.52 436.96 277.82 437.09 C 275.89 434.39 274.03 431.63 272.40 428.74 L 273.76 428.67 C 276.83 428.47 279.96 428.56 282.88 429.65 C 280.57 430.03 278.26 430.34 275.94 430.62 C 277.16 432.49 278.13 434.66 279.97 436.02 C 282.36 437.01 285.05 436.72 287.58 436.97 C 285.97 434.04 284.52 431.02 283.32 427.91 L 285.17 427.98 C 287.06 430.62 288.27 433.66 289.43 436.68 C 292.43 436.69 295.43 436.69 298.43 436.68 C 298.62 433.92 298.85 431.15 299.51 428.46 C 299.75 428.87 300.22 429.70 300.45 430.11 C 300.48 432.31 300.35 434.52 300.27 436.73 C 303.49 436.66 306.84 437.08 309.96 436.11 C 311.74 433.58 312.72 430.60 314.16 427.89 L 315.50 427.86 C 314.96 430.98 313.57 433.84 312.13 436.64 C 314.29 436.65 316.46 436.67 318.63 436.70 C 320.75 434.44 322.89 432.12 324.25 429.30 M 326.52 430.52 C 324.48 432.34 322.99 434.65 321.34 436.80 C 326.50 437.35 330.29 433.52 333.86 430.44 C 331.41 430.38 328.94 430.14 326.52 430.52 Z" />
<path fill="#98bfb3" stroke="#98bfb3" stroke-width="0.09375" opacity="1.00" d=" M 357.26 423.29 C 359.16 423.59 361.05 423.87 362.96 424.17 C 360.70 426.39 357.51 426.96 354.75 425.31 C 355.58 424.63 356.42 423.95 357.26 423.29 Z" />
<path fill="#a7c7bc" stroke="#a7c7bc" stroke-width="0.09375" opacity="1.00" d=" M 343.80 430.00 C 342.74 427.66 345.82 426.26 347.73 426.10 C 349.64 427.09 351.64 427.96 353.79 428.33 C 355.57 428.69 357.38 428.92 359.19 429.20 C 356.91 431.21 354.55 434.08 351.19 433.75 C 351.35 432.51 351.62 431.29 351.88 430.07 C 349.25 430.45 346.26 431.49 343.80 430.00 Z" />
<path fill="#b3cec6" stroke="#b3cec6" stroke-width="0.09375" opacity="1.00" d=" M 300.18 428.01 C 302.94 427.89 305.70 427.88 308.46 427.90 C 307.32 429.01 306.23 430.18 304.94 431.11 C 303.40 430.96 301.92 430.53 300.45 430.11 C 300.22 429.70 299.75 428.87 299.51 428.46 L 300.18 428.01 Z" />
<path fill="#ffffff" stroke="#ffffff" stroke-width="0.09375" opacity="1.00" d=" M 308.46 427.90 C 310.36 427.89 312.26 427.89 314.16 427.89 C 312.72 430.60 311.74 433.58 309.96 436.11 C 306.84 437.08 303.49 436.66 300.27 436.73 C 300.35 434.52 300.48 432.31 300.45 430.11 C 301.92 430.53 303.40 430.96 304.94 431.11 C 306.23 430.18 307.32 429.01 308.46 427.90 Z" />
<path fill="#cdcecf" stroke="#cdcecf" stroke-width="0.09375" opacity="1.00" d=" M 241.30 428.46 C 245.36 430.35 248.77 433.39 252.96 435.03 C 255.87 436.32 259.05 436.83 261.98 438.08 C 263.26 438.71 264.49 439.42 265.74 440.14 C 265.00 440.16 263.52 440.18 262.77 440.20 C 256.26 438.21 249.82 435.67 244.10 431.92 C 242.77 431.13 241.93 429.81 241.30 428.46 Z" />
<path fill="#ffffff" stroke="#ffffff" stroke-width="0.09375" opacity="1.00" d=" M 266.79 431.93 C 267.83 430.87 268.89 429.85 269.96 428.83 C 270.57 428.81 271.79 428.76 272.40 428.74 C 274.03 431.63 275.89 434.39 277.82 437.09 C 273.52 436.96 270.03 434.49 266.79 431.93 Z" />
<path fill="#ffffff" stroke="#ffffff" stroke-width="0.09375" opacity="1.00" d=" M 326.52 430.52 C 328.94 430.14 331.41 430.38 333.86 430.44 C 330.29 433.52 326.50 437.35 321.34 436.80 C 322.99 434.65 324.48 432.34 326.52 430.52 Z" />
<path fill="#0c775d" stroke="#0c775d" stroke-width="0.09375" opacity="1.00" d=" M 248.23 438.22 C 250.34 437.37 252.36 439.65 254.04 440.75 C 253.13 442.66 252.18 444.56 251.15 446.41 C 249.28 445.78 247.43 445.08 245.61 444.33 C 246.46 442.28 247.15 440.16 248.23 438.22 M 248.99 439.47 C 248.61 440.95 248.21 442.43 247.96 443.94 C 250.52 445.94 251.53 442.84 252.32 440.94 C 251.21 440.44 250.10 439.95 248.99 439.47 Z" />
<path fill="#ffffff" stroke="#ffffff" stroke-width="0.09375" opacity="1.00" d=" M 271.09 438.11 C 273.77 438.92 276.46 439.70 279.16 440.44 C 278.54 439.60 277.93 438.76 277.31 437.93 C 279.61 438.77 281.90 439.60 284.20 440.44 C 284.00 439.79 283.58 438.50 283.37 437.85 C 286.42 438.10 289.31 439.10 291.77 440.94 C 286.28 441.77 280.73 441.38 275.24 440.82 C 273.83 439.96 272.46 439.03 271.09 438.11 Z" />
<path fill="#ffffff" stroke="#ffffff" stroke-width="0.09375" opacity="1.00" d=" M 291.23 438.28 C 293.67 438.31 296.11 438.34 298.55 438.37 C 298.68 439.07 298.95 440.48 299.09 441.18 C 297.08 441.35 295.06 441.29 293.06 441.08 C 292.45 440.14 291.84 439.21 291.23 438.28 Z" />
<path fill="#f4f6f6" stroke="#f4f6f6" stroke-width="0.09375" opacity="1.00" d=" M 300.63 438.05 C 302.99 438.02 305.35 438.00 307.71 437.99 C 307.56 438.47 307.27 439.43 307.12 439.92 C 304.61 440.18 302.13 440.63 299.65 441.08 C 299.89 440.32 300.38 438.81 300.63 438.05 Z" />
<path fill="#ffffff" stroke="#ffffff" stroke-width="0.09375" opacity="1.00" d=" M 248.99 439.47 C 250.10 439.95 251.21 440.44 252.32 440.94 C 251.53 442.84 250.52 445.94 247.96 443.94 C 248.21 442.43 248.61 440.95 248.99 439.47 Z" />
<path fill="#a7c7bc" stroke="#a7c7bc" stroke-width="0.09375" opacity="1.00" d=" M 299.65 441.08 C 302.13 440.63 304.61 440.18 307.12 439.92 C 314.36 439.54 321.62 440.04 328.86 439.57 C 329.15 440.13 329.74 441.24 330.03 441.80 C 310.07 445.22 289.55 445.20 269.61 441.59 C 271.49 441.36 273.36 441.04 275.24 440.82 C 280.73 441.38 286.28 441.77 291.77 440.94 C 292.09 440.97 292.74 441.04 293.06 441.08 C 295.06 441.29 297.08 441.35 299.09 441.18 L 299.65 441.08 Z" />
<path fill="#0c775d" stroke="#0c775d" stroke-width="0.09375" opacity="1.00" d=" M 345.60 441.96 C 347.27 440.88 349.79 438.96 350.90 441.83 C 350.03 441.79 348.29 441.72 347.42 441.68 C 347.73 442.46 348.34 444.03 348.65 444.81 C 349.60 443.46 351.02 443.05 352.58 443.05 C 353.16 442.97 354.32 442.82 354.90 442.74 C 352.68 443.90 350.54 445.72 347.98 445.92 C 346.92 444.78 346.34 443.30 345.60 441.96 Z" />
<path fill="#0c775d" stroke="#0c775d" stroke-width="0.09375" opacity="1.00" d=" M 338.88 448.74 C 338.53 446.22 336.09 443.08 338.25 440.90 C 338.99 443.22 339.60 445.59 340.19 447.97 C 340.79 446.58 341.72 444.95 340.34 443.53 C 341.62 442.89 342.90 442.26 344.19 441.64 C 345.13 443.49 345.99 445.41 346.07 447.52 C 344.75 446.02 343.64 444.33 342.24 442.93 C 342.41 444.48 342.63 446.04 342.90 447.59 C 341.55 447.94 340.21 448.33 338.88 448.74 Z" />
<path fill="#0c775d" stroke="#0c775d" stroke-width="0.09375" opacity="1.00" d=" M 254.67 442.52 C 256.15 441.77 257.52 443.48 258.85 443.90 C 258.39 444.46 257.47 445.58 257.01 446.14 C 256.19 445.54 255.92 444.62 256.19 443.39 C 255.78 444.42 255.38 445.45 254.99 446.49 C 255.47 446.67 256.44 447.02 256.92 447.20 L 257.77 447.75 C 256.12 448.49 254.47 447.69 253.19 446.72 C 253.19 445.19 253.79 443.73 254.67 442.52 Z" />
<path fill="#0c775d" stroke="#0c775d" stroke-width="0.09375" opacity="1.00" d=" M 258.41 448.61 C 259.27 446.05 259.34 443.00 261.46 441.06 C 261.18 443.71 260.50 446.31 259.74 448.88 C 259.41 448.81 258.74 448.67 258.41 448.61 Z" />
<path fill="#0c775d" stroke="#0c775d" stroke-width="0.09375" opacity="1.00" d=" M 263.09 442.09 L 263.69 441.99 C 263.77 442.73 263.95 444.21 264.04 444.94 C 264.46 445.07 265.29 445.31 265.71 445.43 C 265.60 446.11 265.38 447.47 265.27 448.15 C 266.17 447.38 267.97 445.84 268.87 445.07 C 268.08 446.92 267.19 448.74 266.29 450.55 C 265.93 450.47 265.21 450.32 264.86 450.25 C 264.51 448.89 264.21 447.51 263.78 446.19 C 262.11 446.33 262.86 448.99 262.05 450.05 C 260.17 447.63 262.81 444.70 263.09 442.09 Z" />
<path fill="#0c775d" stroke="#0c775d" stroke-width="0.09375" opacity="1.00" d=" M 329.22 449.09 C 329.16 447.50 329.14 445.87 330.55 444.89 C 330.27 447.87 331.40 451.82 328.43 453.75 C 328.76 451.39 327.61 449.30 326.78 447.20 C 326.04 448.78 325.70 450.50 325.24 452.18 C 324.54 450.38 324.18 448.32 322.63 447.01 C 322.61 448.80 322.61 450.60 322.64 452.41 C 320.18 451.05 320.10 446.31 323.60 446.45 C 324.82 446.83 326.09 446.71 327.35 446.68 C 327.82 447.28 328.76 448.49 329.22 449.09 Z" />
<path fill="#0c775d" stroke="#0c775d" stroke-width="0.09375" opacity="1.00" d=" M 275.17 446.60 C 276.92 447.00 278.67 447.40 280.44 447.73 C 280.53 448.55 280.72 450.18 280.81 451.00 C 281.67 449.55 282.41 447.98 283.83 446.99 C 282.90 449.96 282.63 454.16 279.12 455.22 C 279.49 454.23 279.88 453.25 280.27 452.28 C 279.85 451.10 279.45 449.92 279.05 448.74 C 278.33 448.64 276.89 448.43 276.17 448.33 C 275.83 449.80 275.85 451.63 274.19 452.31 C 274.31 451.54 274.56 450.00 274.69 449.23 C 272.64 448.97 270.63 448.38 271.01 445.52 C 272.44 446.36 273.86 447.42 275.21 448.43 L 275.17 446.60 Z" />
<path fill="#0c775d" stroke="#0c775d" stroke-width="0.09375" opacity="1.00" d=" M 287.90 446.95 C 289.89 444.85 293.87 445.85 294.03 448.92 C 292.48 448.32 291.01 446.94 289.26 447.68 C 289.18 449.12 289.16 450.57 289.19 452.03 C 291.10 451.63 293.36 451.41 294.58 449.67 C 295.30 448.84 296.49 447.30 297.66 448.50 C 298.76 448.87 300.99 452.26 300.64 448.49 C 302.76 448.40 304.89 448.28 307.02 448.30 C 308.97 449.41 307.74 452.25 308.00 454.01 C 306.98 452.37 306.32 450.54 305.43 448.84 C 305.17 450.50 304.88 452.16 304.57 453.82 C 303.15 452.54 303.66 450.25 302.32 448.89 C 302.06 450.39 301.81 451.89 301.55 453.40 C 300.24 452.46 298.75 452.27 297.22 452.71 C 297.24 452.52 297.26 452.14 297.27 451.95 L 297.67 451.17 L 297.79 450.33 C 297.30 450.06 296.31 449.52 295.82 449.25 C 295.98 450.91 296.14 452.58 296.31 454.26 L 294.24 451.23 C 293.45 451.97 292.68 452.74 291.92 453.52 C 290.43 453.29 288.73 453.39 287.62 452.19 C 287.22 450.47 287.28 448.60 287.90 446.95 Z" />
<path fill="#0c775d" stroke="#0c775d" stroke-width="0.09375" opacity="1.00" d=" M 268.16 450.22 C 268.58 448.32 269.50 446.74 270.92 445.49 C 270.74 446.62 270.38 448.89 270.20 450.02 C 271.02 449.86 272.66 449.54 273.48 449.38 C 273.04 452.78 270.03 451.09 268.16 450.22 Z" />
<path fill="#0c775d" stroke="#0c775d" stroke-width="0.09375" opacity="1.00" d=" M 309.24 448.37 C 310.60 448.07 311.96 447.78 313.33 447.50 C 313.73 448.96 314.33 450.43 314.11 451.99 C 313.23 452.62 312.28 453.13 311.25 453.50 C 311.06 454.05 310.68 455.15 310.49 455.70 C 310.26 455.47 309.78 455.02 309.54 454.79 C 309.49 452.64 309.37 450.50 309.24 448.37 M 311.86 451.94 C 313.64 451.88 313.47 448.96 311.79 448.89 C 310.03 448.93 310.11 451.94 311.86 451.94 Z" />
<path fill="#197d66" stroke="#197d66" stroke-width="0.09375" opacity="1.00" d=" M 315.24 447.72 C 316.58 447.55 318.02 446.96 319.30 447.73 C 319.72 449.20 319.93 450.70 320.24 452.21 C 318.71 452.18 316.90 453.14 315.58 452.20 C 315.34 450.72 315.35 449.20 315.24 447.72 M 317.31 451.47 C 318.79 451.67 318.49 449.08 317.61 448.50 C 316.09 448.28 316.42 450.86 317.31 451.47 Z" />
<path fill="#e6e8e7" stroke="#e6e8e7" stroke-width="0.09375" opacity="1.00" d=" M 317.31 451.47 C 316.42 450.86 316.09 448.28 317.61 448.50 C 318.49 449.08 318.79 451.67 317.31 451.47 Z" />
<path fill="#f7f3f6" stroke="#f7f3f6" stroke-width="0.09375" opacity="1.00" d=" M 311.86 451.94 C 310.11 451.94 310.03 448.93 311.79 448.89 C 313.47 448.96 313.64 451.88 311.86 451.94 Z" />
<path fill="#0c775d" stroke="#0c775d" stroke-width="0.09375" opacity="1.00" d=" M 331.99 448.96 C 333.37 447.93 334.49 450.50 333.49 451.43 C 332.10 452.40 330.94 449.88 331.99 448.96 Z" />
<path fill="#78aea4" stroke="#78aea4" stroke-width="0.09375" opacity="1.00" d=" M 207.01 484.12 C 208.65 482.95 210.31 481.82 211.98 480.71 C 213.68 481.83 215.36 482.97 217.03 484.15 C 217.01 485.67 216.99 487.19 216.99 488.72 C 215.70 489.88 214.50 491.18 212.99 492.07 C 210.62 492.01 208.85 490.08 206.97 488.86 C 206.99 487.27 207.00 485.69 207.01 484.12 Z" />
<path fill="#78aea4" stroke="#78aea4" stroke-width="0.09375" opacity="1.00" d=" M 384.00 486.88 C 384.00 483.71 386.92 481.04 390.03 480.91 C 392.11 482.59 396.50 485.11 394.28 488.18 C 393.75 489.08 393.22 489.99 392.69 490.89 C 389.24 493.31 384.69 490.83 384.00 486.88 Z" />
<path fill="#78aea4" stroke="#78aea4" stroke-width="0.09375" opacity="1.00" d=" M 237.00 505.07 C 279.00 505.04 321.02 504.77 363.02 505.21 L 364.00 505.18 C 364.00 507.76 364.00 510.34 364.00 512.93 C 321.67 513.04 279.33 513.04 237.00 512.93 C 237.00 510.31 237.00 507.69 237.00 505.07 Z" />
<path fill="#01745b" stroke="#01745b" stroke-width="0.09375" opacity="1.00" d=" M 208.00 513.00 C 217.66 512.97 227.33 513.07 237.00 512.93 C 279.33 513.04 321.67 513.04 364.00 512.93 C 373.00 513.06 382.01 512.98 391.01 512.99 C 389.69 516.95 390.05 521.16 389.80 525.26 C 389.14 527.66 388.87 530.14 388.38 532.58 C 388.04 533.89 387.72 535.21 387.36 536.53 C 387.02 537.53 386.68 538.53 386.33 539.54 C 385.96 540.55 385.59 541.56 385.21 542.58 C 385.12 543.05 384.95 543.99 384.87 544.47 C 383.94 546.15 383.05 547.85 382.12 549.54 C 382.05 550.00 381.90 550.91 381.83 551.37 C 379.15 555.26 377.25 559.64 374.39 563.43 C 370.89 568.93 366.14 573.41 361.56 578.00 C 319.86 578.00 278.16 578.00 236.45 578.00 C 227.56 569.60 220.67 559.29 215.11 548.45 C 215.06 547.96 214.96 546.98 214.91 546.49 C 214.31 545.50 213.70 544.51 213.10 543.53 C 213.03 543.04 212.89 542.07 212.82 541.59 C 212.29 540.22 211.79 538.85 211.28 537.49 C 210.97 536.11 210.68 534.74 210.33 533.39 C 210.08 532.46 209.84 531.54 209.61 530.63 C 209.14 528.35 208.94 526.03 208.66 523.73 C 207.70 520.23 207.99 516.58 208.00 513.00 Z" />
<path fill="#fbba63" stroke="#fbba63" stroke-width="0.09375" opacity="1.00" d=" M 206.70 592.77 C 209.85 590.13 214.26 591.24 218.01 591.03 C 274.35 591.10 330.69 591.06 387.03 591.05 C 391.93 590.69 394.70 595.62 394.27 600.00 L 203.51 600.00 C 204.20 597.48 204.47 594.49 206.70 592.77 Z" />
</svg>
