<?xml version="1.0" encoding="UTF-8" ?>
<!DOCTYPE svg PUBLIC "-//W3C//DTD SVG 1.1//EN" "http://www.w3.org/Graphics/SVG/1.1/DTD/svg11.dtd">
<svg width="800pt" height="878pt" viewBox="0 0 800 878" version="1.1" xmlns="http://www.w3.org/2000/svg">
<g id="#000000ff">
</g>
<g id="#ffffffff">
<path fill="#ffffff" stroke="#ffffff" stroke-width="0.09375" opacity="1.00" d=" M 103.60 31.60 C 106.70 31.12 109.87 31.50 113.00 31.40 C 152.91 31.32 192.82 31.56 232.72 31.28 C 232.52 48.09 232.52 64.91 232.72 81.72 C 194.13 81.43 155.54 81.71 116.94 81.58 C 113.74 81.10 111.35 83.68 108.26 83.99 C 105.85 85.63 104.98 88.61 103.70 91.09 C 103.45 123.25 103.72 155.43 103.56 187.60 C 103.32 187.84 102.83 188.32 102.59 188.56 C 82.82 188.74 63.04 188.40 43.27 188.73 C 43.53 152.98 43.38 117.21 43.35 81.46 C 44.57 80.09 46.76 79.12 46.35 76.95 C 46.11 73.22 48.55 70.17 50.02 66.94 C 54.03 60.83 58.13 54.48 64.24 50.26 C 72.05 43.42 81.61 38.59 91.54 35.79 C 93.67 34.06 96.42 34.45 98.97 34.32 C 100.64 33.66 102.07 32.54 103.60 31.60 Z" />
<path fill="#ffffff" stroke="#ffffff" stroke-width="0.09375" opacity="1.00" d=" M 274.41 31.44 C 293.86 31.28 313.32 31.56 332.77 31.30 C 333.94 34.40 333.58 37.76 333.61 41.00 C 333.60 52.68 333.58 64.36 333.63 76.04 C 333.66 77.96 333.42 79.88 332.78 81.70 C 313.32 81.45 293.86 81.72 274.41 81.56 C 274.16 81.32 273.68 80.84 273.44 80.59 C 273.32 65.39 273.47 50.18 273.37 34.98 C 273.46 33.75 272.96 32.08 274.41 31.44 Z" />
<path fill="#ffffff" stroke="#ffffff" stroke-width="0.09375" opacity="1.00" d=" M 374.22 31.31 C 394.05 31.44 413.89 31.50 433.72 31.28 C 433.41 47.71 433.74 64.16 433.56 80.59 C 433.32 80.83 432.84 81.32 432.59 81.56 C 413.20 81.63 393.80 81.63 374.41 81.57 C 374.16 81.32 373.68 80.84 373.43 80.60 C 373.32 66.05 373.46 51.51 373.37 36.96 C 373.33 35.04 373.57 33.12 374.22 31.31 Z" />
<path fill="#ffffff" stroke="#ffffff" stroke-width="0.09375" opacity="1.00" d=" M 474.22 31.31 C 494.07 31.46 513.93 31.46 533.78 31.31 C 534.27 32.82 534.62 34.38 534.61 35.99 C 534.61 50.31 534.57 64.63 534.63 78.95 C 534.87 80.12 534.32 81.87 532.81 81.61 C 513.35 81.57 493.87 81.66 474.41 81.56 C 474.17 81.32 473.68 80.84 473.44 80.59 C 473.32 66.05 473.46 51.50 473.37 36.96 C 473.33 35.04 473.57 33.12 474.22 31.31 Z" />
<path fill="#ffffff" stroke="#ffffff" stroke-width="0.09375" opacity="1.00" d=" M 574.23 31.30 C 616.75 31.54 659.29 31.30 701.81 31.43 C 703.87 31.64 705.01 33.88 707.05 34.37 C 709.12 34.47 711.21 34.46 713.29 34.32 C 713.74 37.77 717.84 36.03 720.25 36.37 C 720.79 39.25 724.02 37.83 725.76 39.30 C 730.95 42.81 736.91 45.19 741.61 49.40 C 746.52 53.78 751.28 58.53 754.82 64.07 C 755.28 64.41 756.20 65.08 756.67 65.41 C 756.63 66.62 756.59 67.83 756.53 69.04 C 757.54 69.54 758.56 70.07 759.57 70.62 C 758.75 73.82 761.92 75.93 761.59 79.02 C 761.48 82.52 763.26 85.70 763.58 89.13 C 763.72 122.32 763.42 155.53 763.72 188.72 C 743.62 188.41 723.51 188.74 703.40 188.56 C 703.16 188.32 702.68 187.84 702.43 187.59 C 702.34 154.44 702.43 121.28 702.39 88.12 C 699.23 85.58 696.11 82.37 692.01 81.62 C 652.80 81.55 613.60 81.67 574.40 81.57 C 574.16 81.32 573.68 80.83 573.43 80.59 C 573.32 66.05 573.46 51.50 573.37 36.96 C 573.33 35.04 573.57 33.12 574.23 31.30 Z" />
<path fill="#ffffff" stroke="#ffffff" stroke-width="0.09375" opacity="1.00" d=" M 387.96 98.30 C 393.16 96.71 398.65 97.63 404.00 97.40 C 407.82 97.54 411.70 97.04 415.49 97.70 C 420.57 99.36 426.06 97.44 431.16 99.10 C 446.52 100.39 461.86 103.16 476.70 107.50 C 496.27 112.39 514.79 120.45 532.86 129.26 C 554.90 141.34 575.71 155.78 594.06 172.94 C 599.83 178.82 605.79 184.53 611.49 190.47 C 616.18 196.72 621.39 202.53 626.32 208.57 C 629.07 213.35 633.06 217.26 635.95 221.95 C 643.01 233.65 650.85 244.95 656.39 257.49 C 662.64 269.23 666.96 281.82 671.47 294.29 C 673.68 303.58 677.22 312.55 678.65 322.03 C 679.23 325.91 680.00 329.78 681.33 333.48 C 681.94 341.46 682.83 349.44 684.48 357.31 C 684.85 366.77 684.35 376.26 684.72 385.72 C 678.33 385.40 671.86 386.19 665.64 384.33 C 665.70 389.17 664.16 393.81 664.47 398.69 C 662.66 404.00 664.54 409.73 662.72 415.05 C 662.74 422.68 660.21 429.99 659.29 437.52 C 657.78 443.08 656.86 448.84 654.65 454.19 C 661.28 455.13 667.44 457.92 673.94 459.42 C 672.51 465.32 670.03 470.87 668.56 476.76 C 665.65 483.82 662.90 490.95 659.65 497.86 C 657.26 501.43 656.66 505.83 654.24 509.39 C 651.43 513.96 648.86 518.67 646.35 523.42 C 637.00 538.96 626.52 553.93 614.19 567.25 C 611.13 571.78 606.43 574.89 603.40 579.46 C 601.66 582.06 598.88 583.56 596.59 585.56 C 592.69 589.72 587.82 592.74 584.04 597.03 C 573.56 605.29 563.03 613.59 551.53 620.44 C 538.32 629.17 523.87 635.80 509.51 642.41 C 500.33 646.25 490.81 649.14 481.35 652.21 C 475.58 654.52 469.27 654.89 463.53 657.34 C 456.83 657.26 450.75 661.01 444.00 660.61 C 437.27 661.46 430.52 662.22 423.85 663.56 C 408.89 663.67 393.92 663.54 378.96 663.62 C 373.57 663.95 368.56 661.23 363.16 661.52 C 356.39 660.29 349.37 660.30 342.83 657.87 C 338.64 657.61 334.65 656.33 330.66 655.13 C 321.97 653.57 313.76 650.21 305.42 647.43 C 286.56 640.79 268.71 631.58 251.57 621.34 C 238.43 612.37 225.20 603.32 213.88 592.08 C 207.38 587.36 202.30 581.02 196.44 575.57 C 193.72 573.22 191.96 570.05 189.41 567.56 C 186.12 564.49 183.82 560.56 180.50 557.52 C 176.43 551.06 171.02 545.54 167.19 538.90 C 159.63 528.14 153.20 516.60 147.30 504.85 C 145.17 499.16 141.67 494.09 139.85 488.28 C 134.50 475.33 129.88 462.05 126.83 448.36 C 124.49 443.25 124.85 437.49 123.00 432.25 C 122.33 427.85 121.09 423.55 121.28 419.05 C 120.38 416.10 120.34 413.04 120.36 410.00 C 119.93 405.96 118.69 402.02 118.40 397.97 C 118.39 385.99 118.39 374.01 118.40 362.04 C 119.06 356.12 120.53 350.29 120.54 344.31 C 121.48 341.37 121.34 338.30 121.56 335.27 C 122.53 331.92 122.69 328.43 123.49 325.05 C 130.00 327.11 137.14 326.59 143.40 329.75 C 142.98 324.63 144.28 319.60 146.08 314.86 C 146.63 311.91 147.15 308.92 148.28 306.13 C 149.81 302.45 150.02 298.35 151.92 294.82 C 153.46 291.78 153.70 288.26 155.41 285.29 C 158.24 279.87 159.99 274.00 162.70 268.53 C 166.08 261.97 169.21 255.26 173.08 248.96 C 174.71 245.37 177.58 242.52 179.00 238.84 C 180.15 236.17 182.63 234.41 183.91 231.83 C 187.56 225.34 193.12 220.26 197.07 213.98 C 201.69 209.34 205.21 203.66 210.51 199.68 C 207.40 197.76 205.79 194.27 202.89 192.10 C 200.40 190.24 197.96 188.31 195.86 186.00 C 203.60 178.69 210.52 170.48 218.93 163.93 C 228.15 156.40 237.59 149.06 247.84 142.94 C 263.44 132.31 280.60 124.11 298.13 117.23 C 315.83 109.92 334.55 105.35 353.31 101.55 C 359.58 101.23 365.62 99.07 371.95 99.28 C 377.15 97.65 382.63 98.78 387.96 98.30 M 396.49 138.30 C 390.61 139.31 384.47 137.63 378.69 139.47 C 368.34 139.42 358.40 142.85 348.14 143.86 C 343.92 145.84 339.15 145.92 334.87 147.71 C 314.09 153.62 294.19 162.51 275.51 173.37 C 269.01 176.63 263.59 181.57 257.41 185.36 C 254.72 186.90 253.00 189.70 250.18 191.05 C 247.95 192.08 246.23 193.83 244.53 195.55 C 235.97 202.22 228.91 210.57 221.06 218.05 C 217.38 222.72 213.12 226.92 209.94 231.98 C 206.45 235.60 203.37 239.60 200.95 244.02 C 189.07 261.31 179.93 280.38 172.74 300.00 C 172.61 303.56 169.79 306.29 169.58 309.81 C 169.27 312.76 168.18 315.54 166.83 318.16 C 166.65 322.65 165.15 326.90 163.82 331.15 C 163.68 337.46 161.39 343.50 161.35 349.81 C 160.42 353.50 160.83 357.38 159.71 361.05 C 159.53 371.93 159.52 382.84 159.72 393.73 C 155.50 393.55 151.26 393.49 147.04 393.68 C 144.51 394.43 141.91 394.76 139.28 394.65 C 140.78 398.29 140.69 402.18 140.59 406.04 C 140.35 409.84 142.69 413.24 142.59 417.03 C 142.67 419.25 142.43 421.52 143.05 423.69 C 145.57 436.93 148.33 450.20 152.80 462.99 C 153.87 468.17 156.83 472.69 157.96 477.86 C 163.00 490.08 168.43 502.19 175.50 513.39 C 178.66 519.99 183.36 525.63 187.03 531.92 C 192.86 538.81 197.41 546.76 204.06 552.95 C 206.54 555.49 208.32 558.64 211.05 560.96 C 216.24 565.78 220.74 571.38 226.41 575.66 C 243.19 591.18 262.55 603.80 282.83 614.30 C 300.00 622.34 317.68 629.58 336.14 634.02 C 341.02 636.20 346.54 635.84 351.52 637.64 C 357.66 639.50 364.23 638.80 370.29 640.97 C 374.21 642.06 378.40 640.70 382.31 641.90 C 384.80 642.67 387.44 642.35 390.01 642.41 C 400.99 642.30 411.99 642.55 422.96 642.30 C 427.61 640.56 432.70 642.28 437.32 640.51 C 442.66 639.01 448.26 638.90 453.69 637.93 C 457.62 636.51 461.75 635.87 465.85 635.12 C 469.52 634.12 473.04 632.54 476.86 632.12 C 493.46 626.81 509.67 620.29 525.16 612.26 C 535.39 607.18 544.58 600.35 554.18 594.23 C 560.76 588.79 568.21 584.37 573.97 577.97 C 578.42 574.85 582.05 570.80 585.89 567.00 C 581.21 562.34 576.58 557.63 571.87 553.00 C 576.18 548.58 580.77 544.42 584.84 539.79 C 588.27 534.63 592.59 530.20 596.37 525.31 C 601.01 517.68 606.93 510.87 610.99 502.85 C 626.21 477.09 636.45 448.48 641.36 418.99 C 641.26 416.04 641.51 413.11 642.52 410.32 C 643.94 406.80 643.12 402.98 643.53 399.32 C 644.03 397.25 644.56 395.18 644.42 393.03 C 644.30 384.03 644.56 375.03 644.30 366.04 C 642.53 361.12 644.34 355.75 642.30 350.90 C 640.74 346.96 641.98 342.63 640.60 338.65 C 638.82 332.16 637.76 325.54 636.25 318.97 C 633.28 308.86 629.62 298.97 626.10 289.04 C 621.74 279.51 617.24 270.06 612.20 260.88 C 605.74 251.04 600.35 240.41 592.50 231.54 C 589.74 227.96 587.34 224.09 583.98 221.02 C 579.52 214.89 573.64 210.02 568.45 204.55 C 564.47 200.13 559.42 196.93 555.35 192.61 C 550.28 189.45 545.92 185.34 541.12 181.81 C 535.93 179.15 531.78 174.87 526.49 172.37 C 507.17 160.95 486.42 151.75 464.66 146.11 C 460.73 145.72 457.30 143.44 453.32 143.42 C 446.57 141.93 439.71 141.08 432.95 139.71 C 430.23 139.53 427.46 139.78 424.84 138.89 C 418.60 137.89 412.09 139.61 405.96 137.70 C 402.80 137.48 399.55 137.33 396.49 138.30 Z" />
<path fill="#ffffff" stroke="#ffffff" stroke-width="0.09375" opacity="1.00" d=" M 447.22 194.56 C 454.14 192.34 460.90 189.36 468.16 188.43 C 469.59 199.64 467.36 211.11 462.76 221.36 C 459.23 231.04 453.60 239.96 446.46 247.38 C 440.33 254.87 432.49 260.84 424.19 265.73 C 420.01 267.75 415.80 270.43 411.01 270.44 C 407.89 270.31 405.16 272.28 402.08 272.34 C 399.48 272.42 396.88 272.34 394.29 272.36 C 396.49 267.17 394.68 261.43 396.51 256.16 C 397.92 250.11 399.74 244.16 402.13 238.42 C 406.70 229.87 410.61 220.55 418.17 214.14 C 421.59 211.25 424.60 207.93 428.02 205.04 C 430.63 202.73 434.07 201.77 436.93 199.84 C 440.10 197.62 443.61 195.93 447.22 194.56 Z" />
<path fill="#ffffff" stroke="#ffffff" stroke-width="0.09375" opacity="1.00" d=" M 37.28 259.28 C 56.19 259.55 75.11 259.35 94.02 259.37 C 95.25 259.47 96.93 258.95 97.56 260.41 C 97.68 276.94 97.54 293.48 97.63 310.02 C 97.53 311.24 98.04 312.93 96.59 313.56 C 76.83 313.74 57.04 313.41 37.28 313.72 C 37.48 295.58 37.48 277.42 37.28 259.28 Z" />
<path fill="#ffffff" stroke="#ffffff" stroke-width="0.09375" opacity="1.00" d=" M 707.27 259.27 C 727.08 259.48 746.91 259.48 766.72 259.28 C 766.52 277.42 766.52 295.58 766.72 313.72 C 746.91 313.52 727.09 313.52 707.28 313.72 C 707.48 295.58 707.48 277.42 707.27 259.27 Z" />
<path fill="#ffffff" stroke="#ffffff" stroke-width="0.09375" opacity="1.00" d=" M 418.57 281.88 C 432.27 277.77 445.88 273.28 459.95 270.67 C 468.98 270.25 478.02 270.25 487.04 270.75 C 491.81 271.38 496.31 273.21 500.93 274.46 C 511.72 277.18 520.70 284.07 529.46 290.55 C 532.21 293.29 535.39 295.69 537.50 298.99 C 531.69 301.12 526.73 305.08 522.11 309.10 C 517.33 313.96 511.83 318.26 508.21 324.13 C 506.62 325.87 505.96 328.23 504.31 329.89 C 499.90 327.11 494.90 325.47 490.45 322.79 C 487.04 320.42 483.31 318.55 479.49 316.96 C 477.25 316.39 474.90 316.79 472.63 316.69 C 472.60 319.17 472.56 321.64 472.57 324.12 C 475.16 324.89 477.29 326.57 479.53 328.01 C 485.88 331.48 492.88 333.71 498.95 337.70 C 497.83 345.59 493.68 352.88 493.17 360.94 C 491.40 371.61 492.32 382.45 493.82 393.09 C 495.63 399.62 496.95 406.51 500.86 412.20 C 496.04 413.71 491.66 416.28 487.12 418.44 C 482.60 421.29 477.95 424.17 472.68 425.39 C 472.50 428.02 472.64 430.65 472.61 433.29 C 475.32 433.14 478.27 433.90 480.76 432.49 C 485.40 430.01 490.26 427.97 494.95 425.59 C 498.19 423.53 501.36 421.07 505.21 420.26 C 509.46 430.43 518.61 437.26 526.59 444.41 C 534.25 450.40 543.28 454.20 552.20 457.90 C 550.93 460.97 550.18 464.25 548.50 467.15 C 544.55 474.30 541.14 481.76 536.95 488.77 C 533.67 492.37 532.14 497.11 529.07 500.86 C 524.63 506.78 520.79 513.19 515.48 518.41 C 508.03 527.89 498.64 535.87 487.93 541.45 C 485.29 542.30 482.69 543.24 480.20 544.46 C 477.56 546.01 474.37 545.29 471.54 546.18 C 469.03 547.16 466.59 545.46 464.05 545.63 C 455.34 545.90 447.51 541.36 439.14 539.63 C 432.52 537.06 425.48 536.06 418.83 533.59 C 410.55 533.48 402.27 531.80 394.00 533.13 C 385.26 533.44 376.72 535.79 368.75 539.33 C 360.19 541.80 351.90 545.41 343.02 546.66 C 337.43 546.80 331.66 547.22 326.41 544.88 C 318.23 542.86 311.31 537.74 305.06 532.30 C 300.63 530.07 297.27 526.41 294.54 522.36 C 285.52 514.11 279.44 503.38 272.35 493.56 C 269.17 488.33 266.95 482.55 263.17 477.70 C 260.73 471.07 256.92 465.09 253.92 458.72 C 251.31 450.45 246.92 442.81 245.33 434.23 C 242.49 428.39 241.78 421.97 240.06 415.81 C 238.74 407.59 237.24 399.35 236.68 391.02 C 236.67 381.40 236.18 371.71 238.19 362.23 C 238.44 354.43 241.07 347.04 242.95 339.55 C 244.75 333.58 246.87 327.65 250.17 322.33 C 253.95 314.77 258.23 307.28 264.37 301.36 C 267.68 297.03 271.50 293.09 275.68 289.59 C 280.48 286.67 284.52 282.53 289.93 280.67 C 298.96 276.10 308.71 272.07 319.01 272.34 C 323.32 271.25 327.90 270.66 332.18 272.30 C 343.96 272.02 355.35 275.35 366.74 277.94 C 374.96 280.58 383.39 282.76 391.98 283.71 C 400.86 283.82 409.94 284.40 418.57 281.88 Z" />
<path fill="#ffffff" stroke="#ffffff" stroke-width="0.09375" opacity="1.00" d=" M 530.86 334.87 C 532.49 333.35 534.07 331.76 535.71 330.24 C 537.21 330.19 538.72 330.20 540.23 330.27 C 541.48 331.67 543.72 332.83 543.56 335.00 C 544.25 338.99 539.86 342.71 535.98 341.48 C 533.52 340.01 531.32 337.81 530.86 334.87 Z" />
<path fill="#ffffff" stroke="#ffffff" stroke-width="0.09375" opacity="1.00" d=" M 38.41 350.43 C 57.36 350.32 76.31 350.47 95.26 350.37 C 95.96 351.24 96.75 352.03 97.63 352.74 C 97.58 369.58 97.59 386.42 97.63 403.26 C 96.75 403.96 95.97 404.75 95.26 405.63 C 75.94 405.65 56.60 405.46 37.28 405.72 C 37.54 388.48 37.35 371.22 37.37 353.97 C 37.47 352.74 36.96 351.07 38.41 350.43 Z" />
<path fill="#ffffff" stroke="#ffffff" stroke-width="0.09375" opacity="1.00" d=" M 707.28 350.28 C 726.36 350.54 745.46 350.34 764.55 350.38 C 765.30 350.99 765.99 351.68 766.62 352.45 C 766.58 366.96 766.60 381.48 766.61 396.00 C 766.57 399.23 766.94 402.59 765.77 405.69 C 746.28 405.56 726.77 405.50 707.28 405.72 C 707.48 387.25 707.48 368.75 707.28 350.28 Z" />
<path fill="#ffffff" stroke="#ffffff" stroke-width="0.09375" opacity="1.00" d=" M 531.32 412.92 C 532.74 410.83 534.89 409.39 537.04 408.12 C 539.64 410.06 544.45 411.96 543.46 415.94 C 542.42 419.84 536.85 422.07 533.66 419.40 C 532.30 417.51 530.78 415.39 531.32 412.92 Z" />
<path fill="#ffffff" stroke="#ffffff" stroke-width="0.09375" opacity="1.00" d=" M 37.28 441.28 C 52.84 441.56 68.42 441.31 84.00 441.40 C 88.22 441.49 92.52 440.99 96.66 442.02 C 96.52 442.47 96.24 443.35 96.10 443.79 C 97.17 444.25 97.66 445.04 97.58 446.16 C 97.74 462.68 97.38 479.21 97.76 495.73 C 97.36 495.54 96.55 495.17 96.15 494.99 C 95.31 495.86 94.50 496.77 93.68 497.67 C 74.88 497.59 56.07 497.48 37.28 497.72 C 37.48 478.91 37.48 460.09 37.28 441.28 Z" />
<path fill="#ffffff" stroke="#ffffff" stroke-width="0.09375" opacity="1.00" d=" M 707.28 441.28 C 725.77 441.59 744.29 441.26 762.79 441.43 C 765.15 441.48 766.84 443.78 766.61 446.07 C 766.60 461.69 766.60 477.31 766.61 492.93 C 766.84 495.21 765.14 497.51 762.78 497.57 C 744.28 497.74 725.77 497.41 707.28 497.72 C 707.48 478.91 707.48 460.09 707.28 441.28 Z" />
<path fill="#ffffff" stroke="#ffffff" stroke-width="0.09375" opacity="1.00" d=" M 37.28 574.28 C 57.38 574.59 77.49 574.26 97.59 574.43 C 97.84 574.68 98.32 575.17 98.57 575.41 C 98.65 606.61 98.59 637.82 98.59 669.02 C 98.52 676.75 106.91 682.12 114.00 681.42 C 151.85 681.36 189.70 681.44 227.54 681.38 C 228.31 681.98 229.00 682.67 229.62 683.45 C 229.66 699.13 229.46 714.81 229.72 730.49 C 227.45 730.74 225.27 731.60 222.97 731.61 C 183.99 731.60 145.01 731.61 106.04 731.60 C 101.86 731.36 97.82 730.05 93.85 728.82 C 91.33 728.53 88.70 728.74 86.40 727.46 C 84.53 726.40 81.68 727.13 80.73 724.79 C 77.71 725.02 75.41 722.93 72.62 722.23 C 68.29 720.07 64.80 716.61 60.46 714.48 C 54.58 708.74 48.28 703.14 44.41 695.76 C 41.98 690.86 38.67 685.89 39.38 680.17 C 39.72 677.79 37.41 676.17 37.41 673.90 C 37.30 640.70 37.57 607.48 37.28 574.28 Z" />
<path fill="#ffffff" stroke="#ffffff" stroke-width="0.09375" opacity="1.00" d=" M 704.28 574.28 C 724.04 574.59 743.82 574.26 763.59 574.43 C 763.84 574.68 764.32 575.16 764.56 575.41 C 764.64 609.22 764.60 643.05 764.58 676.87 C 763.64 682.91 761.28 688.63 759.23 694.37 C 756.75 698.15 753.76 701.58 751.38 705.44 C 747.84 710.64 741.85 713.11 737.56 717.52 C 734.24 720.48 729.89 721.78 726.01 723.82 C 720.56 725.99 715.09 728.51 709.16 728.87 C 705.16 730.01 701.14 731.37 696.97 731.60 C 657.65 731.61 618.34 731.59 579.03 731.61 C 577.04 731.64 575.17 730.97 573.28 730.53 C 573.49 714.43 573.44 698.32 573.30 682.22 C 574.81 681.72 576.38 681.37 577.99 681.40 C 615.67 681.40 653.36 681.40 691.05 681.40 C 693.06 681.67 694.58 680.14 696.41 679.64 C 700.40 679.07 702.47 675.11 704.36 671.98 C 704.37 639.42 704.53 606.84 704.28 574.28 Z" />
<path fill="#ffffff" stroke="#ffffff" stroke-width="0.09375" opacity="1.00" d=" M 270.41 681.43 C 288.62 681.33 306.83 681.46 325.04 681.37 C 326.96 681.33 328.88 681.57 330.70 682.22 C 330.56 698.30 330.51 714.40 330.72 730.48 C 328.44 730.74 326.27 731.60 323.97 731.61 C 307.63 731.61 291.29 731.57 274.96 731.63 C 273.03 731.65 271.12 731.42 269.31 730.77 C 269.55 714.65 269.28 698.52 269.43 682.40 C 269.68 682.16 270.17 681.68 270.41 681.43 Z" />
<path fill="#ffffff" stroke="#ffffff" stroke-width="0.09375" opacity="1.00" d=" M 370.28 681.28 C 390.42 681.48 410.58 681.48 430.72 681.28 C 430.50 697.77 430.56 714.28 430.70 730.78 C 428.88 731.42 426.96 731.65 425.04 731.63 C 408.71 731.57 392.37 731.61 376.03 731.61 C 374.05 731.65 372.18 730.97 370.28 730.53 C 370.48 714.12 370.48 697.69 370.28 681.28 Z" />
<path fill="#ffffff" stroke="#ffffff" stroke-width="0.09375" opacity="1.00" d=" M 473.40 681.43 C 492.80 681.37 512.20 681.37 531.60 681.44 C 531.84 681.68 532.32 682.17 532.56 682.41 C 532.73 698.53 532.44 714.66 532.69 730.77 C 530.88 731.42 528.96 731.66 527.04 731.63 C 512.03 731.58 497.01 731.61 482.00 731.61 C 478.76 731.58 475.41 731.93 472.31 730.78 C 472.55 714.66 472.28 698.53 472.43 682.41 C 472.68 682.16 473.16 681.68 473.40 681.43 Z" />
<path fill="#ffffff" stroke="#ffffff" stroke-width="0.09375" opacity="1.00" d=" M 438.74 754.99 C 442.75 755.01 446.76 755.00 450.78 755.01 C 450.70 762.75 450.77 770.50 450.76 778.25 C 457.50 778.23 464.25 778.30 471.01 778.22 C 470.99 783.74 470.99 789.26 471.00 794.78 C 464.25 794.70 457.50 794.77 450.75 794.75 C 450.82 807.69 450.58 820.63 450.88 833.56 C 457.59 833.42 464.30 833.55 471.02 833.50 C 470.98 838.93 470.99 844.35 471.00 849.78 C 463.73 849.62 456.45 849.92 449.18 849.66 C 442.35 848.16 438.75 840.49 438.75 834.01 C 438.74 807.67 438.76 781.33 438.74 754.99 Z" />
<path fill="#ffffff" stroke="#ffffff" stroke-width="0.09375" opacity="1.00" d=" M 41.98 760.98 C 46.07 761.01 50.17 761.01 54.26 760.99 C 54.22 773.07 54.30 785.15 54.22 797.23 C 58.82 797.20 63.42 797.34 68.02 797.23 C 69.56 797.54 70.05 795.71 70.80 794.79 C 77.54 783.51 84.64 772.45 91.26 761.10 C 95.80 760.93 100.34 760.98 104.88 761.06 C 104.65 763.02 105.10 765.22 103.91 766.95 C 96.43 779.13 88.99 791.34 81.48 803.50 C 81.12 804.33 80.04 805.33 80.81 806.27 C 88.49 818.87 96.24 831.44 103.93 844.05 C 105.08 845.71 104.67 847.81 104.85 849.71 C 100.33 849.77 95.80 849.71 91.27 849.76 C 84.68 838.72 77.84 827.83 71.21 816.81 C 70.50 815.78 70.01 814.52 68.93 813.83 C 64.03 813.58 59.12 813.83 54.22 813.76 C 54.29 825.76 54.24 837.77 54.24 849.78 C 50.16 849.72 46.08 849.72 42.00 849.78 C 41.99 820.18 42.02 790.58 41.98 760.98 Z" />
<path fill="#ffffff" stroke="#ffffff" stroke-width="0.09375" opacity="1.00" d=" M 118.28 775.96 C 118.64 769.13 123.27 761.03 130.90 761.02 C 148.27 760.95 165.65 761.04 183.02 760.98 C 182.98 766.48 182.99 771.99 183.01 777.50 C 165.45 777.49 147.89 777.50 130.33 777.49 C 130.25 796.17 130.10 814.86 130.41 833.53 C 147.94 833.47 165.48 833.53 183.02 833.50 C 182.98 838.93 182.99 844.35 183.00 849.78 C 165.32 849.68 147.63 849.80 129.95 849.73 C 126.10 849.82 123.02 846.92 121.11 843.87 C 118.42 839.78 118.03 834.77 118.24 830.02 C 118.29 812.00 118.20 793.98 118.28 775.96 Z" />
<path fill="#ffffff" stroke="#ffffff" stroke-width="0.09375" opacity="1.00" d=" M 229.22 761.00 C 233.31 761.01 237.40 761.01 241.50 760.99 C 241.44 773.03 241.60 785.07 241.42 797.11 C 246.48 797.18 251.64 797.64 256.64 796.93 C 264.04 785.18 271.09 773.20 278.48 761.45 C 282.83 760.36 287.58 761.31 292.08 761.00 C 291.87 763.03 292.42 765.32 291.09 767.09 C 283.34 779.75 275.49 792.36 267.86 805.10 L 267.86 805.87 C 275.53 818.59 283.36 831.24 291.12 843.91 C 292.38 845.60 291.90 847.78 292.07 849.76 C 287.53 849.72 283.00 849.78 278.47 849.70 C 271.29 837.77 264.05 825.87 256.66 814.08 C 251.66 813.34 246.48 813.82 241.42 813.89 C 241.52 825.87 241.60 837.87 241.37 849.84 C 237.33 849.68 233.28 849.72 229.23 849.77 C 229.26 820.18 229.28 790.59 229.22 761.00 Z" />
<path fill="#ffffff" stroke="#ffffff" stroke-width="0.09375" opacity="1.00" d=" M 549.74 761.00 C 554.11 761.00 558.48 761.01 562.85 760.99 C 570.61 773.77 578.55 786.44 586.28 799.23 C 594.12 786.71 601.66 773.98 609.50 761.46 C 613.80 760.34 618.55 761.33 623.02 760.98 C 622.98 790.58 623.01 820.18 623.00 849.78 C 618.92 849.71 614.84 849.72 610.77 849.78 C 610.69 828.42 610.83 807.06 610.70 785.71 C 602.36 798.72 594.44 812.02 586.31 825.16 C 578.19 812.09 570.41 798.75 561.88 785.95 C 561.58 807.22 561.81 828.49 561.76 849.76 C 557.76 849.73 553.76 849.71 549.76 849.78 C 549.73 820.19 549.76 790.59 549.74 761.00 Z" />
<path fill="#ffffff" stroke="#ffffff" stroke-width="0.09375" opacity="1.00" d=" M 305.24 778.24 C 309.23 778.27 313.24 778.28 317.24 778.22 C 317.21 796.59 317.35 814.97 317.17 833.34 C 326.84 833.70 336.56 833.40 346.25 833.50 C 346.24 815.07 346.28 796.65 346.24 778.23 C 350.28 778.27 354.33 778.31 358.38 778.16 C 358.61 796.41 358.48 814.71 358.45 832.98 C 358.42 839.75 355.08 848.04 347.82 849.66 C 337.86 849.88 327.89 849.67 317.92 849.76 C 310.26 850.18 305.56 841.79 305.29 835.03 C 305.19 816.10 305.30 797.17 305.24 778.24 Z" />
<path fill="#ffffff" stroke="#ffffff" stroke-width="0.09375" opacity="1.00" d=" M 373.81 785.80 C 375.67 781.87 379.36 778.31 383.94 778.28 C 393.58 778.23 403.22 778.23 412.86 778.28 C 417.50 778.31 421.11 782.04 422.98 785.99 C 424.93 789.85 425.04 794.26 425.06 798.49 C 421.05 798.49 417.04 798.46 413.04 798.52 C 413.01 797.58 412.97 795.68 412.94 794.73 C 403.21 794.77 393.48 794.73 383.76 794.76 C 383.76 798.42 383.72 802.09 383.80 805.77 C 393.22 805.74 402.63 805.72 412.05 805.77 C 416.59 805.58 420.51 808.70 422.49 812.58 C 426.03 818.81 424.80 826.23 424.99 833.07 C 424.96 839.72 421.76 847.66 414.83 849.60 C 404.55 849.95 394.25 849.64 383.96 849.75 C 379.53 850.03 376.04 846.56 374.10 842.93 C 371.70 838.88 371.61 834.05 371.73 829.50 C 375.69 829.51 379.65 829.53 383.61 829.47 C 383.72 830.82 383.82 832.18 383.91 833.56 C 393.61 833.37 403.31 833.63 413.02 833.42 C 412.97 829.71 413.04 826.00 412.92 822.30 C 402.63 822.08 392.31 822.51 382.03 822.09 C 374.82 820.17 371.44 811.89 371.73 805.00 C 372.03 798.60 370.67 791.71 373.81 785.80 Z" />
<path fill="#ffffff" stroke="#ffffff" stroke-width="0.09375" opacity="1.00" d=" M 492.39 778.53 C 502.57 777.89 512.84 778.40 523.06 778.27 C 530.92 778.45 535.24 787.05 535.46 794.01 C 535.53 807.34 535.52 820.66 535.46 833.99 C 535.26 840.48 531.70 848.16 524.83 849.66 C 514.24 849.82 503.63 849.79 493.03 849.67 C 486.30 848.53 482.70 841.07 482.30 834.83 C 482.19 821.23 482.26 807.64 482.27 794.05 C 482.48 787.68 485.81 780.38 492.39 778.53 M 494.23 794.80 C 494.23 807.65 494.35 820.49 494.17 833.34 C 503.85 833.75 513.58 833.29 523.28 833.58 C 523.85 820.72 523.27 807.78 523.56 794.89 C 513.79 794.59 504.01 794.77 494.23 794.80 Z" />
<path fill="#ffffff" stroke="#ffffff" stroke-width="0.09375" opacity="1.00" d=" M 637.23 778.24 C 651.14 778.33 665.06 778.13 678.97 778.33 C 686.32 779.18 690.35 787.27 690.48 794.00 C 690.44 812.61 690.64 831.25 690.38 849.85 C 676.31 849.56 662.23 849.91 648.17 849.68 C 641.35 848.47 637.78 840.96 637.36 834.65 C 637.07 825.02 637.38 815.39 637.22 805.76 C 650.94 805.79 664.66 805.62 678.38 805.84 C 678.57 802.17 678.49 798.46 678.46 794.78 C 664.72 794.72 650.97 794.74 637.23 794.76 C 637.27 789.25 637.27 783.74 637.23 778.24 M 649.22 822.23 C 649.30 825.92 649.28 829.61 649.18 833.30 C 658.92 833.75 668.71 833.37 678.48 833.50 C 678.47 829.71 678.59 825.91 678.36 822.15 C 668.65 822.37 658.93 822.21 649.22 822.23 Z" />
<path fill="#ffffff" stroke="#ffffff" stroke-width="0.09375" opacity="1.00" d=" M 704.32 793.18 C 704.76 786.64 708.82 778.91 716.03 778.30 C 729.77 778.16 743.50 778.33 757.24 778.22 C 757.25 783.74 757.25 789.26 757.24 794.78 C 743.57 794.73 729.90 794.70 716.23 794.80 C 716.29 807.70 716.22 820.61 716.27 833.51 C 730.01 833.49 743.75 833.51 757.50 833.50 C 757.43 838.95 757.61 844.41 757.38 849.85 C 742.99 849.48 728.57 850.07 714.20 849.56 C 707.69 847.65 704.40 840.30 704.26 833.96 C 704.28 820.36 704.17 806.77 704.32 793.18 Z" />
</g>
</svg>
