<?xml version="1.0" encoding="UTF-8" ?>
<!DOCTYPE svg PUBLIC "-//W3C//DTD SVG 1.1//EN" "http://www.w3.org/Graphics/SVG/1.1/DTD/svg11.dtd">
<svg width="800pt" height="878pt" viewBox="0 0 800 878" version="1.1" xmlns="http://www.w3.org/2000/svg">
<g id="#000000ff">
</g>
<g id="#99cc67ff">
<path fill="#99cc67" stroke="#99cc67" stroke-width="0.09375" opacity="1.00" d=" M 98.77 33.76 C 100.79 33.40 102.35 31.89 104.23 31.15 C 107.47 30.79 110.74 31.04 114.00 31.00 C 153.66 31.02 193.33 30.99 232.99 31.01 C 233.00 48.00 233.00 65.00 232.99 81.99 C 194.31 82.01 155.63 82.01 116.95 81.99 C 113.67 81.88 110.79 83.70 107.80 84.80 C 104.03 88.45 103.57 94.01 103.98 99.00 C 104.02 127.99 104.00 156.97 104.00 185.95 C 104.38 187.79 102.79 189.38 100.95 189.00 C 81.64 189.01 62.32 189.00 43.00 188.99 C 42.99 153.99 43.02 118.98 42.99 83.97 C 42.74 82.29 43.73 80.93 44.70 79.69 C 46.50 77.58 45.68 74.46 47.13 72.14 C 53.62 56.58 67.33 45.09 82.56 38.52 C 87.86 36.63 93.08 34.11 98.77 33.76 Z" />
<path fill="#99cc67" stroke="#99cc67" stroke-width="0.09375" opacity="1.00" d=" M 273.00 34.04 C 272.62 32.21 274.21 30.62 276.05 31.00 C 295.00 30.99 313.96 31.02 332.92 30.99 C 333.50 32.93 334.08 34.91 334.02 36.96 C 333.99 49.98 333.99 63.01 334.02 76.04 C 334.08 78.09 333.50 80.06 332.93 82.00 C 313.96 81.99 295.00 82.02 276.04 82.00 C 274.20 82.38 272.62 80.78 273.00 78.95 C 272.99 63.98 272.99 49.01 273.00 34.04 Z" />
<path fill="#99cc67" stroke="#99cc67" stroke-width="0.09375" opacity="1.00" d=" M 374.08 31.00 C 394.05 31.01 414.02 30.99 433.99 31.01 C 434.00 46.99 434.01 62.97 434.00 78.95 C 434.38 80.79 432.78 82.38 430.95 82.00 C 412.65 82.01 394.35 82.00 376.05 82.00 C 374.21 82.38 372.61 80.79 373.00 78.95 C 372.96 65.29 373.06 51.62 372.96 37.95 C 372.85 35.58 373.34 33.24 374.08 31.00 Z" />
<path fill="#99cc67" stroke="#99cc67" stroke-width="0.09375" opacity="1.00" d=" M 474.08 31.00 C 494.02 31.00 513.97 31.00 533.92 31.00 C 534.65 33.25 535.14 35.58 535.04 37.96 C 534.94 51.62 535.04 65.29 535.00 78.95 C 535.37 80.79 533.78 82.38 531.95 82.00 C 513.32 82.01 494.68 82.01 476.05 82.00 C 474.21 82.38 472.61 80.79 473.00 78.95 C 472.96 65.29 473.06 51.62 472.96 37.96 C 472.85 35.58 473.34 33.25 474.08 31.00 Z" />
<path fill="#99cc67" stroke="#99cc67" stroke-width="0.09375" opacity="1.00" d=" M 574.08 31.00 C 616.39 31.02 658.70 30.99 701.00 31.01 C 703.83 30.67 705.24 34.18 708.08 33.89 C 710.65 33.91 713.17 34.28 715.44 35.57 C 723.18 36.44 729.45 41.27 736.01 45.00 C 743.98 49.80 750.24 56.92 755.65 64.37 C 758.16 69.37 761.58 74.17 762.06 79.93 C 762.43 83.99 764.20 87.83 764.03 91.96 C 763.96 124.30 764.03 156.65 763.99 188.99 C 744.34 189.00 724.69 189.01 705.04 189.00 C 703.20 189.38 701.61 187.78 702.00 185.95 C 701.98 153.38 702.02 120.82 701.99 88.25 C 698.44 85.56 694.86 81.68 690.05 81.97 C 652.05 82.03 614.04 81.99 576.04 82.00 C 574.20 82.38 572.61 80.79 573.00 78.96 C 572.96 65.29 573.06 51.62 572.96 37.96 C 572.85 35.58 573.34 33.24 574.08 31.00 Z" />
<path fill="#99cc67" stroke="#99cc67" stroke-width="0.09375" opacity="1.00" d=" M 386.97 97.92 C 394.24 96.46 401.66 97.14 409.02 96.97 C 414.07 96.74 418.97 98.43 424.03 98.00 C 446.13 99.58 468.08 103.87 489.13 110.85 C 504.15 115.19 518.25 122.01 532.35 128.66 C 551.48 139.21 569.91 151.20 586.29 165.72 C 594.97 172.63 602.25 181.08 610.25 188.75 C 615.27 194.72 620.18 200.79 625.29 206.68 C 631.11 214.93 637.45 222.83 642.33 231.70 C 656.91 254.37 667.82 279.37 674.91 305.37 C 678.17 314.75 678.98 324.72 681.73 334.22 C 682.36 342.23 683.44 350.21 684.87 358.12 C 685.21 367.40 684.90 376.70 685.00 385.98 C 678.73 386.02 672.40 386.39 666.26 384.84 C 664.98 393.47 664.06 402.15 663.83 410.88 C 662.10 425.38 659.68 439.92 655.20 453.86 C 661.67 455.16 667.85 457.52 674.22 459.24 C 673.36 463.70 671.53 467.87 670.22 472.20 C 668.50 479.27 664.92 485.67 662.48 492.49 C 658.80 500.10 655.87 508.09 651.20 515.18 C 643.97 528.83 635.47 541.78 625.89 553.88 C 621.75 559.98 616.23 564.93 611.72 570.73 C 607.92 574.28 604.85 578.51 601.21 582.21 C 592.30 589.26 584.52 597.63 575.25 604.26 C 556.28 619.24 535.17 631.31 513.10 641.11 C 503.17 645.77 492.62 648.82 482.24 652.28 C 476.18 654.57 469.69 655.34 463.59 657.54 C 457.89 657.97 452.54 660.16 446.88 660.85 C 438.84 661.33 430.91 662.73 422.97 663.94 C 408.64 664.11 394.30 663.91 379.97 664.03 C 374.25 664.23 368.84 661.95 363.15 661.80 C 350.38 660.66 338.00 657.36 325.58 654.38 C 288.57 643.68 253.33 626.06 223.73 601.27 C 202.26 583.44 182.81 562.96 167.33 539.68 C 156.60 524.68 148.34 508.08 140.64 491.37 C 134.97 477.41 129.85 463.20 126.46 448.50 C 124.47 443.30 124.23 437.69 122.78 432.36 C 120.80 423.88 120.45 415.17 119.44 406.57 C 117.09 396.87 118.27 386.86 118.00 377.00 C 118.20 370.57 117.41 364.07 118.68 357.72 C 120.37 346.80 120.88 335.74 123.17 324.91 C 129.73 326.27 136.56 326.50 142.82 329.12 C 142.95 324.47 143.91 319.88 145.46 315.50 C 147.68 305.60 151.06 296.03 154.51 286.50 C 156.57 282.13 158.60 277.75 160.22 273.20 C 168.17 255.91 177.54 239.21 188.98 223.99 C 193.28 219.22 196.44 213.54 201.08 209.08 C 203.76 205.77 206.37 202.34 209.85 199.82 C 206.69 197.09 204.35 193.52 200.99 191.01 C 199.02 189.54 197.27 187.80 195.56 186.04 C 203.34 178.32 210.65 170.08 219.26 163.26 C 228.36 155.90 237.64 148.72 247.68 142.68 C 264.78 131.02 283.72 122.33 303.00 114.99 C 318.69 108.93 335.11 104.97 351.57 101.58 C 363.31 99.85 375.05 97.62 386.97 97.92 M 397.41 138.42 C 391.26 139.75 384.88 138.23 378.74 139.69 C 369.01 140.02 359.57 142.64 349.96 143.99 C 333.06 147.99 316.51 153.50 300.65 160.65 C 283.24 168.73 266.29 178.14 251.55 190.51 C 247.11 192.91 243.81 196.81 239.79 199.80 C 230.06 209.42 220.04 218.85 211.82 229.83 C 209.23 233.53 205.88 236.61 203.46 240.44 C 198.28 249.54 191.63 257.82 187.44 267.47 C 181.78 277.63 177.47 288.47 173.37 299.33 C 172.58 303.28 170.29 306.74 169.75 310.75 C 169.24 314.25 167.25 317.33 166.87 320.86 C 166.09 325.88 163.93 330.60 163.70 335.73 C 161.90 344.73 161.16 353.88 160.02 362.97 C 159.93 373.31 160.05 383.66 159.99 394.00 C 153.25 393.85 146.52 393.87 139.89 395.25 C 140.77 398.43 141.13 401.72 141.00 405.02 C 140.69 409.48 143.00 413.57 142.97 418.00 C 142.94 424.76 145.14 431.22 146.18 437.84 C 151.33 460.74 159.35 482.99 170.23 503.79 C 175.75 513.48 181.51 523.03 187.70 532.30 C 193.43 539.25 198.13 547.06 204.73 553.28 C 210.24 560.36 216.98 566.34 223.27 572.73 C 230.28 578.37 236.55 584.94 244.14 589.86 C 271.63 610.76 303.65 625.32 337.00 634.02 C 341.74 635.70 346.86 635.76 351.64 637.31 C 357.25 638.91 363.19 638.61 368.79 640.20 C 373.79 641.61 379.08 640.52 384.12 641.83 C 396.41 642.21 408.72 641.93 421.02 641.98 C 425.59 641.34 430.17 640.96 434.78 640.75 C 440.09 639.33 445.54 638.65 450.98 637.97 C 471.77 633.80 492.25 627.60 511.42 618.44 C 532.05 609.73 550.61 596.89 568.14 583.13 C 573.72 577.56 580.22 573.00 585.39 566.99 C 580.90 562.23 576.10 557.77 571.61 553.01 C 575.70 548.64 579.97 544.43 584.14 540.15 C 587.94 534.68 592.54 529.87 596.53 524.55 C 599.47 519.00 603.83 514.41 607.02 509.01 C 623.82 481.48 636.04 450.93 640.91 418.96 C 640.95 415.99 641.36 413.05 642.20 410.20 C 643.34 406.65 642.76 402.89 643.30 399.25 C 644.53 393.24 643.84 387.08 644.00 381.00 C 643.83 374.91 644.54 368.75 643.30 362.74 C 642.76 359.10 643.34 355.34 642.20 351.79 C 640.57 346.73 641.30 341.31 639.74 336.23 C 637.65 329.35 637.12 322.07 634.76 315.26 C 632.11 306.46 628.89 297.85 625.79 289.20 C 620.30 277.31 614.94 265.27 607.68 254.33 C 603.14 246.70 598.61 238.97 592.66 232.33 C 581.99 217.27 568.50 204.46 554.58 192.44 C 550.79 189.96 547.29 187.07 543.79 184.21 C 509.74 159.53 469.20 143.63 427.27 139.68 C 420.79 138.19 414.07 139.80 407.59 138.42 C 404.24 137.78 400.76 137.78 397.41 138.42 Z" />
<path fill="#99cc67" stroke="#99cc67" stroke-width="0.09375" opacity="1.00" d=" M 37.01 259.01 C 56.32 259.00 75.64 258.99 94.96 259.00 C 96.79 258.62 98.38 260.21 98.00 262.05 C 98.01 278.35 98.01 294.65 98.00 310.95 C 98.38 312.78 96.79 314.38 94.95 314.00 C 75.64 314.01 56.32 314.00 37.01 313.99 C 36.99 295.66 36.99 277.34 37.01 259.01 Z" />
<path fill="#99cc67" stroke="#99cc67" stroke-width="0.09375" opacity="1.00" d=" M 707.00 259.00 C 727.00 259.00 747.00 258.99 766.99 259.01 C 767.00 277.34 767.01 295.66 766.99 313.99 C 747.00 314.01 727.00 314.00 707.01 313.99 C 706.99 295.66 707.00 277.33 707.00 259.00 Z" />
<path fill="#99cc67" stroke="#99cc67" stroke-width="0.09375" opacity="1.00" d=" M 37.00 353.05 C 36.62 351.21 38.21 349.61 40.05 350.00 C 57.70 349.99 75.35 350.01 93.00 349.99 C 95.78 349.58 98.42 352.21 98.01 355.00 C 98.00 370.33 98.00 385.67 98.01 401.00 C 98.41 403.78 95.78 406.42 93.00 406.01 C 74.34 405.99 55.67 406.01 37.01 405.99 C 37.00 388.34 36.99 370.69 37.00 353.05 Z" />
<path fill="#99cc67" stroke="#99cc67" stroke-width="0.09375" opacity="1.00" d=" M 707.01 350.01 C 726.22 350.01 745.43 349.95 764.65 350.04 C 765.40 350.81 766.17 351.58 766.96 352.35 C 767.07 367.91 766.93 383.48 767.04 399.04 C 767.14 401.42 766.65 403.75 765.92 406.00 C 746.28 405.99 726.64 406.01 707.01 405.99 C 707.00 387.33 707.00 368.67 707.01 350.01 Z" />
<path fill="#99cc67" stroke="#99cc67" stroke-width="0.09375" opacity="1.00" d=" M 37.01 441.01 C 55.02 440.97 73.03 441.04 91.04 440.97 C 93.00 440.92 95.15 441.04 96.67 442.45 C 97.88 444.02 98.06 446.03 98.02 447.96 C 97.99 463.79 97.99 479.62 98.01 495.45 C 95.76 496.47 93.61 498.13 91.02 498.01 C 73.02 498.00 55.01 498.01 37.01 497.99 C 37.00 479.00 36.99 460.00 37.01 441.01 Z" />
<path fill="#99cc67" stroke="#99cc67" stroke-width="0.09375" opacity="1.00" d=" M 707.01 441.01 C 724.69 440.98 742.37 441.03 760.05 440.98 C 762.07 440.92 764.02 441.48 765.95 442.05 C 766.66 444.28 767.14 446.59 767.04 448.96 C 766.92 463.62 767.08 478.29 766.97 492.95 C 767.10 495.80 764.80 498.10 761.96 497.97 C 743.64 498.05 725.32 497.98 707.01 497.99 C 707.00 479.00 707.00 460.00 707.01 441.01 Z" />
<path fill="#99cc67" stroke="#99cc67" stroke-width="0.09375" opacity="1.00" d=" M 37.01 574.01 C 56.66 574.00 76.30 573.99 95.95 574.00 C 97.79 573.61 99.38 575.20 99.00 577.05 C 99.05 608.01 98.91 638.97 99.06 669.93 C 99.17 676.27 105.47 680.02 111.01 680.98 C 149.89 681.07 188.77 680.93 227.65 681.04 C 228.41 681.81 229.18 682.57 229.96 683.35 C 230.06 699.16 229.98 714.97 230.00 730.78 C 227.02 731.26 224.08 732.09 221.04 732.02 C 183.02 731.97 144.99 732.01 106.97 732.00 C 101.19 731.89 95.86 729.22 90.12 728.83 C 84.02 727.48 78.24 724.99 72.53 722.50 C 68.23 720.69 65.07 717.10 60.89 715.08 C 55.91 710.78 51.31 705.96 47.08 700.92 C 43.29 694.57 38.98 687.87 38.80 680.25 C 38.59 677.42 36.83 674.93 36.99 672.05 C 37.02 639.37 36.98 606.69 37.01 574.01 Z" />
<path fill="#99cc67" stroke="#99cc67" stroke-width="0.09375" opacity="1.00" d=" M 704.01 574.01 C 723.32 574.00 742.64 573.99 761.96 574.00 C 763.79 573.61 765.37 575.21 765.00 577.05 C 764.98 610.02 765.03 643.01 764.97 675.99 C 764.15 682.37 761.87 688.51 759.47 694.46 C 757.04 698.59 753.79 702.16 751.14 706.16 C 746.58 711.66 740.22 715.22 734.92 719.94 C 726.76 723.95 718.38 728.09 709.26 729.32 C 704.56 730.41 699.91 732.07 695.03 732.02 C 660.02 731.97 625.01 732.01 590.00 732.00 C 584.31 731.90 578.50 732.59 573.00 730.81 C 573.00 714.57 573.00 698.32 573.00 682.08 C 574.93 681.49 576.90 680.91 578.96 680.98 C 615.99 681.04 653.02 680.97 690.05 681.02 C 695.99 680.63 702.79 677.31 703.96 670.93 C 704.06 638.63 703.96 606.32 704.01 574.01 Z" />
<path fill="#99cc67" stroke="#99cc67" stroke-width="0.09375" opacity="1.00" d=" M 269.00 684.05 C 268.61 682.20 270.21 680.61 272.05 681.00 C 287.36 680.97 302.68 681.03 318.00 681.00 C 322.34 681.04 326.84 680.50 331.00 682.08 C 331.00 698.31 331.00 714.55 331.00 730.79 C 328.02 731.27 325.08 732.09 322.04 732.02 C 308.69 731.99 295.35 731.99 282.00 732.01 C 277.65 731.95 273.16 732.50 269.00 730.92 C 269.02 715.30 268.98 699.67 269.00 684.05 Z" />
<path fill="#99cc67" stroke="#99cc67" stroke-width="0.09375" opacity="1.00" d=" M 370.01 681.01 C 390.34 680.99 410.66 681.00 430.99 681.01 C 431.01 697.65 430.99 714.28 431.00 730.92 C 429.06 731.50 427.09 732.08 425.05 732.02 C 412.36 731.99 399.68 732.00 387.00 732.00 C 381.32 731.90 375.50 732.59 370.00 730.81 C 370.00 714.21 369.98 697.61 370.01 681.01 Z" />
<path fill="#99cc67" stroke="#99cc67" stroke-width="0.09375" opacity="1.00" d=" M 472.00 684.05 C 471.62 682.20 473.21 680.61 475.05 681.00 C 493.35 681.00 511.65 681.00 529.95 681.00 C 531.78 680.61 533.37 682.20 533.00 684.04 C 533.02 699.67 532.98 715.29 533.00 730.92 C 531.06 731.50 529.09 732.07 527.04 732.02 C 513.03 731.99 499.02 731.99 485.01 732.01 C 480.66 731.95 476.16 732.51 472.00 730.92 C 472.02 715.29 471.98 699.67 472.00 684.05 Z" />
</g>
<g id="#ffffffff">
<path fill="#ffffff" stroke="#ffffff" stroke-width="0.09375" opacity="1.00" d=" M 445.37 195.32 C 452.28 192.71 459.39 190.67 466.40 188.34 C 468.40 191.76 469.44 195.83 468.21 199.72 C 467.10 202.63 467.94 205.82 467.00 208.77 C 463.76 220.64 458.80 232.29 451.00 241.92 C 445.77 247.39 441.57 253.96 435.08 258.09 C 427.26 264.04 418.63 270.29 408.46 270.75 C 403.90 272.26 399.04 271.59 394.34 271.67 C 396.34 267.68 395.01 263.19 395.91 258.99 C 397.60 251.71 399.36 244.38 402.51 237.57 C 406.87 229.25 410.84 220.35 418.04 214.03 C 422.15 210.46 425.90 206.42 430.42 203.35 C 435.46 200.78 440.05 197.36 445.37 195.32 Z" />
<path fill="#ffffff" stroke="#ffffff" stroke-width="0.09375" opacity="1.00" d=" M 458.98 270.82 C 463.66 270.18 468.40 270.68 473.11 270.30 C 479.59 270.75 486.28 269.88 492.55 272.03 C 498.89 274.14 505.60 275.35 511.50 278.61 C 521.33 283.80 530.33 290.53 537.85 298.76 C 527.71 302.82 520.08 310.95 512.52 318.52 C 509.63 322.01 506.76 325.63 505.04 329.87 C 499.07 327.06 492.81 324.69 487.39 320.87 C 482.88 318.42 477.73 315.03 472.50 317.57 C 472.55 319.70 472.57 321.85 472.60 323.99 C 474.04 324.63 475.49 325.28 476.81 326.16 C 483.73 330.82 491.93 333.11 498.90 337.67 C 498.77 343.28 495.61 348.17 494.60 353.62 C 492.97 357.48 493.55 361.75 492.59 365.76 C 490.90 371.38 491.26 377.46 492.62 383.11 C 493.48 387.52 493.00 392.16 494.64 396.41 C 496.10 401.85 497.51 407.47 500.79 412.16 C 490.81 415.57 482.43 422.21 472.60 425.89 C 472.57 428.05 472.55 430.21 472.51 432.38 C 474.85 433.02 477.43 434.00 479.78 432.80 C 484.98 430.34 490.25 427.98 495.32 425.28 C 498.32 423.14 501.59 421.41 505.04 420.10 C 509.19 428.70 516.08 435.58 523.42 441.54 C 531.58 449.47 542.38 453.57 552.57 458.17 C 544.89 475.40 535.89 492.14 524.52 507.23 C 521.07 513.04 516.05 517.59 511.94 522.87 C 504.67 530.50 496.50 537.46 486.89 541.94 C 482.60 543.21 478.68 545.80 474.08 545.76 C 469.06 547.39 464.08 545.05 458.96 545.39 C 449.43 543.10 440.11 539.82 430.72 537.01 C 425.04 536.25 419.90 532.91 414.06 533.45 C 398.88 531.47 383.20 533.12 369.10 539.21 C 361.90 541.66 354.72 544.28 347.27 545.89 C 335.89 548.51 323.66 545.70 314.05 539.23 C 309.70 537.04 306.65 533.07 302.41 530.72 C 298.86 528.58 296.59 525.09 294.01 521.98 C 286.18 514.88 280.94 505.57 274.78 497.11 C 270.13 491.23 267.74 483.98 263.32 477.96 C 260.70 471.22 256.76 465.11 253.84 458.52 C 251.21 450.42 246.95 442.90 245.15 434.53 C 242.93 429.16 242.28 423.40 240.72 417.85 C 240.22 412.22 237.86 406.95 238.27 401.20 C 235.80 392.33 236.88 383.05 236.70 373.97 C 236.47 369.55 238.72 365.49 238.45 361.08 C 238.26 354.49 240.99 348.36 242.39 342.03 C 244.80 331.41 250.12 321.83 255.51 312.47 C 258.17 308.24 261.32 304.38 264.76 300.77 C 270.42 293.37 277.81 287.56 285.65 282.66 C 295.26 277.98 305.17 272.95 316.04 272.44 C 320.39 272.77 324.51 270.40 328.88 271.45 C 334.39 273.35 340.41 271.52 345.89 273.66 C 353.24 274.60 360.40 276.55 367.61 278.21 C 375.85 281.21 384.56 282.41 393.06 284.35 C 397.68 284.52 402.32 284.49 406.95 284.37 C 411.81 283.04 416.91 282.77 421.66 281.01 C 433.98 277.17 446.35 273.52 458.98 270.82 Z" />
<path fill="#ffffff" stroke="#ffffff" stroke-width="0.09375" opacity="1.00" d=" M 531.30 337.03 C 530.76 332.43 535.98 329.37 540.14 330.15 C 541.76 331.79 544.17 333.31 543.56 336.01 C 543.96 338.54 541.44 339.91 540.10 341.65 C 536.30 342.39 533.24 340.08 531.30 337.03 Z" />
<path fill="#ffffff" stroke="#ffffff" stroke-width="0.09375" opacity="1.00" d=" M 531.92 416.70 C 529.47 412.89 534.29 408.36 538.02 408.48 C 540.01 409.81 541.74 411.50 543.69 412.92 C 544.29 416.82 541.08 420.86 537.01 420.46 C 534.42 421.03 532.94 418.64 531.92 416.70 Z" />
<path fill="#ffffff" stroke="#ffffff" stroke-width="0.09375" opacity="1.00" d=" M 438.75 755.00 C 442.75 754.99 446.76 754.99 450.76 755.01 C 450.74 762.75 450.73 770.49 450.77 778.23 C 457.51 778.26 464.25 778.25 470.99 778.24 C 471.01 783.74 471.01 789.25 470.99 794.76 C 464.24 794.74 457.51 794.73 450.77 794.77 C 450.78 807.68 450.66 820.60 450.83 833.51 C 457.55 833.50 464.27 833.49 471.00 833.52 C 470.99 838.93 471.01 844.34 470.99 849.76 C 463.72 849.65 456.45 849.90 449.19 849.66 C 442.37 848.18 438.76 840.51 438.75 834.04 C 438.75 807.69 438.74 781.35 438.75 755.00 Z" />
<path fill="#ffffff" stroke="#ffffff" stroke-width="0.09375" opacity="1.00" d=" M 42.00 761.00 C 46.08 761.00 50.16 760.99 54.25 761.00 C 54.26 773.08 54.25 785.15 54.25 797.23 C 59.14 797.20 64.03 797.39 68.92 797.18 C 69.99 796.44 70.47 795.18 71.19 794.16 C 77.84 783.09 84.73 772.17 91.33 761.08 C 95.84 760.95 100.36 760.96 104.87 761.07 C 104.65 763.02 105.12 765.21 103.92 766.93 C 96.23 779.52 88.47 792.07 80.81 804.68 C 80.05 805.60 81.11 806.60 81.48 807.44 C 89.01 819.62 96.47 831.86 103.94 844.08 C 105.09 845.72 104.66 847.81 104.86 849.70 C 100.34 849.78 95.82 849.73 91.31 849.76 C 84.06 837.94 76.95 826.03 69.55 814.31 C 64.76 812.97 59.29 814.11 54.24 813.76 C 54.25 825.76 54.26 837.76 54.24 849.75 C 50.16 849.74 46.09 849.74 42.01 849.76 C 41.98 820.17 42.01 790.59 42.00 761.00 Z" />
<path fill="#ffffff" stroke="#ffffff" stroke-width="0.09375" opacity="1.00" d=" M 118.28 775.99 C 118.63 769.15 123.26 761.04 130.90 761.02 C 148.26 760.96 165.63 761.02 183.00 761.00 C 183.00 766.49 183.00 771.99 183.00 777.49 C 165.44 777.54 147.87 777.43 130.31 777.54 C 130.23 796.17 130.17 814.81 130.34 833.44 C 147.89 833.59 165.45 833.44 183.00 833.52 C 183.00 838.93 183.01 844.34 182.99 849.76 C 165.63 849.73 148.28 849.75 130.92 849.76 C 122.84 850.07 118.25 840.98 118.25 833.92 C 118.27 814.61 118.21 795.30 118.28 775.99 Z" />
<path fill="#ffffff" stroke="#ffffff" stroke-width="0.09375" opacity="1.00" d=" M 229.24 761.01 C 233.32 760.99 237.40 761.00 241.49 761.00 C 241.50 773.07 241.51 785.13 241.48 797.20 C 246.52 797.12 251.61 797.61 256.61 796.98 C 264.03 785.21 271.10 773.20 278.50 761.41 C 282.87 760.42 287.57 761.26 292.07 761.02 C 291.88 763.03 292.42 765.33 291.10 767.08 C 283.34 779.75 275.48 792.38 267.85 805.12 L 267.87 805.87 C 275.53 818.61 283.37 831.25 291.13 843.93 C 292.39 845.60 291.89 847.79 292.07 849.74 C 287.55 849.74 283.03 849.78 278.51 849.71 C 271.25 837.79 264.06 825.83 256.63 814.03 C 251.62 813.37 246.52 813.88 241.48 813.80 C 241.49 825.79 241.54 837.78 241.46 849.77 C 237.39 849.73 233.32 849.75 229.25 849.75 C 229.25 820.17 229.26 790.59 229.24 761.01 Z" />
<path fill="#ffffff" stroke="#ffffff" stroke-width="0.09375" opacity="1.00" d=" M 549.76 761.00 C 554.11 760.99 558.46 761.00 562.82 761.00 C 570.67 773.71 578.44 786.48 586.32 799.17 C 594.16 786.65 601.69 773.94 609.52 761.43 C 613.84 760.39 618.53 761.28 623.00 761.00 C 622.99 790.59 623.01 820.18 622.99 849.76 C 618.91 849.74 614.84 849.74 610.77 849.75 C 610.69 828.38 610.83 807.01 610.69 785.65 C 602.45 798.69 594.44 811.88 586.42 825.06 C 578.04 812.12 570.38 798.71 561.90 785.83 C 561.55 807.13 561.84 828.44 561.75 849.75 C 557.75 849.75 553.75 849.74 549.76 849.76 C 549.74 820.17 549.75 790.59 549.76 761.00 Z" />
<path fill="#ffffff" stroke="#ffffff" stroke-width="0.09375" opacity="1.00" d=" M 305.25 778.25 C 309.25 778.25 313.24 778.25 317.24 778.24 C 317.26 796.64 317.26 815.03 317.24 833.42 C 326.90 833.59 336.57 833.47 346.24 833.49 C 346.26 815.07 346.24 796.66 346.25 778.25 C 350.32 778.25 354.38 778.26 358.45 778.22 C 358.56 795.48 358.45 812.73 358.51 829.99 C 358.53 834.64 358.17 839.55 355.63 843.59 C 353.75 846.67 350.76 849.63 346.94 849.73 C 337.94 849.81 328.94 849.70 319.95 849.77 C 317.44 849.74 314.72 849.99 312.53 848.53 C 307.81 845.39 305.23 839.64 305.25 834.06 C 305.25 815.45 305.25 796.85 305.25 778.25 Z" />
<path fill="#ffffff" stroke="#ffffff" stroke-width="0.09375" opacity="1.00" d=" M 373.80 785.82 C 375.66 781.87 379.36 778.31 383.96 778.28 C 393.58 778.22 403.21 778.23 412.84 778.28 C 417.49 778.30 421.11 782.04 422.99 786.00 C 424.92 789.85 425.06 794.25 425.05 798.48 C 421.05 798.50 417.06 798.48 413.07 798.51 C 413.03 797.58 412.95 795.70 412.92 794.76 C 403.20 794.75 393.49 794.73 383.77 794.77 C 383.73 798.42 383.72 802.08 383.80 805.75 C 393.22 805.78 402.65 805.70 412.07 805.77 C 416.60 805.59 420.51 808.70 422.50 812.59 C 426.13 819.12 424.79 826.89 424.95 834.04 C 424.68 840.38 421.42 847.82 414.80 849.60 C 404.53 849.95 394.24 849.64 383.97 849.76 C 379.53 850.03 376.03 846.55 374.09 842.92 C 371.71 838.88 371.59 834.06 371.73 829.52 C 375.69 829.49 379.64 829.51 383.60 829.48 C 383.70 830.82 383.81 832.16 383.92 833.52 C 393.61 833.42 403.29 833.62 412.98 833.42 C 413.01 829.71 413.04 826.02 412.92 822.33 C 402.63 822.04 392.32 822.53 382.05 822.09 C 374.83 820.19 371.45 811.91 371.74 805.02 C 372.04 798.61 370.67 791.73 373.80 785.82 Z" />
<path fill="#ffffff" stroke="#ffffff" stroke-width="0.09375" opacity="1.00" d=" M 492.40 778.53 C 502.57 777.89 512.83 778.40 523.03 778.27 C 530.90 778.44 535.22 787.02 535.46 793.99 C 535.53 807.32 535.52 820.67 535.46 834.01 C 535.25 840.50 531.68 848.18 524.81 849.66 C 514.23 849.82 503.64 849.79 493.07 849.67 C 486.30 848.56 482.70 841.06 482.30 834.80 C 482.16 822.52 482.31 810.24 482.24 797.96 C 481.60 790.43 484.37 780.89 492.40 778.53 M 494.25 794.80 C 494.24 807.67 494.27 820.55 494.24 833.42 C 503.95 833.60 513.67 833.46 523.39 833.50 C 523.66 820.62 523.42 807.72 523.51 794.84 C 513.76 794.66 504.00 794.74 494.25 794.80 Z" />
<path fill="#ffffff" stroke="#ffffff" stroke-width="0.09375" opacity="1.00" d=" M 637.25 778.25 C 651.15 778.31 665.05 778.14 678.94 778.33 C 686.31 779.16 690.34 787.25 690.48 793.98 C 690.49 812.58 690.54 831.18 690.46 849.78 C 676.36 849.66 662.27 849.87 648.18 849.68 C 641.36 848.48 637.78 840.97 637.36 834.65 C 637.09 825.02 637.34 815.39 637.24 805.76 C 650.98 805.75 664.72 805.72 678.45 805.78 C 678.52 802.11 678.51 798.45 678.47 794.80 C 664.73 794.69 650.99 794.78 637.25 794.75 C 637.25 789.25 637.25 783.75 637.25 778.25 M 649.25 822.25 C 649.25 825.96 649.24 829.67 649.25 833.39 C 658.99 833.64 668.74 833.45 678.49 833.49 C 678.50 829.73 678.52 825.98 678.46 822.23 C 668.72 822.28 658.98 822.24 649.25 822.25 Z" />
<path fill="#ffffff" stroke="#ffffff" stroke-width="0.09375" opacity="1.00" d=" M 704.32 793.19 C 704.75 786.64 708.83 778.89 716.06 778.30 C 729.78 778.17 743.51 778.30 757.24 778.24 C 757.26 783.74 757.25 789.25 757.24 794.76 C 743.58 794.77 729.91 794.68 716.25 794.80 C 716.26 807.69 716.22 820.59 716.28 833.48 C 730.01 833.53 743.75 833.47 757.49 833.51 C 757.49 838.93 757.53 844.35 757.46 849.78 C 743.63 849.70 729.79 849.80 715.96 849.73 C 711.57 849.80 708.30 846.14 706.39 842.57 C 703.78 837.80 704.24 832.23 704.25 827.00 C 704.31 815.73 704.15 804.46 704.32 793.19 Z" />
</g>
</svg>
