<?xml version="1.0" encoding="UTF-8" ?>
<!DOCTYPE svg PUBLIC "-//W3C//DTD SVG 1.1//EN" "http://www.w3.org/Graphics/SVG/1.1/DTD/svg11.dtd">
<svg width="62pt" height="62pt" viewBox="0 0 62 62" version="1.1" xmlns="http://www.w3.org/2000/svg">
<path fill="#ffffff" stroke="#ffffff" stroke-width="0.09375" opacity="1.00" d=" M 0.00 0.00 L 25.85 0.00 C 19.14 3.98 12.27 7.69 5.43 11.44 C 4.60 12.08 3.27 12.41 2.97 13.54 C 10.31 17.92 17.85 21.97 25.20 26.32 C 32.97 22.15 40.55 17.63 48.33 13.49 C 45.58 11.07 42.21 9.58 39.05 7.79 C 37.66 8.66 36.28 9.54 34.91 10.42 C 36.40 11.29 37.85 12.21 39.28 13.17 C 34.78 15.69 30.48 18.61 25.83 20.84 C 20.86 19.12 16.59 15.68 11.91 13.26 C 16.50 10.49 21.09 7.68 25.87 5.25 C 27.25 6.12 28.59 7.07 30.08 7.76 C 31.71 7.20 33.00 6.01 34.39 5.03 C 31.79 3.34 28.61 2.37 26.51 0.00 L 62.00 0.00 L 62.00 62.00 L 0.00 62.00 L 0.00 0.00 M 27.83 30.09 C 27.73 35.40 27.70 40.70 27.85 46.01 C 34.08 42.63 40.06 38.81 46.28 35.42 C 46.29 37.25 46.28 39.08 46.25 40.92 C 40.57 44.02 35.00 47.30 29.37 50.48 C 26.83 51.47 28.10 54.64 27.82 56.66 C 35.50 52.47 43.07 48.06 50.59 43.60 C 51.34 38.31 50.65 32.82 50.91 27.45 C 44.68 30.75 38.77 34.61 32.50 37.84 C 32.49 36.18 32.47 34.52 32.46 32.85 C 38.64 29.15 45.01 25.78 51.20 22.11 C 51.15 20.36 51.12 18.61 51.10 16.86 C 43.22 21.06 35.65 25.78 27.83 30.09 M 1.04 17.72 C 0.99 26.49 1.10 35.26 1.00 44.03 C 2.18 44.76 3.39 45.45 4.63 46.09 C 4.62 39.31 4.53 32.54 4.66 25.77 C 6.20 26.52 7.76 27.26 9.31 27.99 C 9.72 34.86 9.24 41.76 9.52 48.64 C 10.55 50.09 12.44 50.60 13.88 51.52 C 13.92 44.60 13.79 37.68 13.95 30.75 C 15.58 31.47 17.17 32.27 18.71 33.15 C 18.59 40.14 18.73 47.14 18.62 54.13 C 20.03 55.20 21.57 56.10 23.24 56.70 C 23.25 48.06 23.08 39.42 23.33 30.78 C 16.18 26.00 8.50 22.01 1.04 17.72 Z" />
<path fill="#5aa3d9" stroke="#5aa3d9" stroke-width="0.09375" opacity="1.00" d=" M 25.85 0.00 L 26.51 0.00 C 28.61 2.37 31.79 3.34 34.39 5.03 C 33.00 6.01 31.71 7.20 30.08 7.76 C 28.59 7.07 27.25 6.12 25.87 5.25 C 21.09 7.68 16.50 10.49 11.91 13.26 C 16.59 15.68 20.86 19.12 25.83 20.84 C 30.48 18.61 34.78 15.69 39.28 13.17 C 37.85 12.21 36.40 11.29 34.91 10.42 C 36.28 9.54 37.66 8.66 39.05 7.79 C 42.21 9.58 45.58 11.07 48.33 13.49 C 40.55 17.63 32.97 22.15 25.20 26.32 C 17.85 21.97 10.31 17.92 2.97 13.54 C 3.27 12.41 4.60 12.08 5.43 11.44 C 12.27 7.69 19.14 3.98 25.85 0.00 Z" />
<path fill="#5aa3d9" stroke="#5aa3d9" stroke-width="0.09375" opacity="1.00" d=" M 27.83 30.09 C 35.65 25.78 43.22 21.06 51.10 16.86 C 51.12 18.61 51.15 20.36 51.20 22.11 C 45.01 25.78 38.64 29.15 32.46 32.85 C 32.47 34.52 32.49 36.18 32.50 37.84 C 38.77 34.61 44.68 30.75 50.91 27.45 C 50.65 32.82 51.34 38.31 50.59 43.60 C 43.07 48.06 35.50 52.47 27.82 56.66 C 28.10 54.64 26.83 51.47 29.37 50.48 C 35.00 47.30 40.57 44.02 46.25 40.92 C 46.28 39.08 46.29 37.25 46.28 35.42 C 40.06 38.81 34.08 42.63 27.85 46.01 C 27.70 40.70 27.73 35.40 27.83 30.09 Z" />
<path fill="#5aa3d9" stroke="#5aa3d9" stroke-width="0.09375" opacity="1.00" d=" M 1.04 17.72 C 8.50 22.01 16.18 26.00 23.33 30.78 C 23.08 39.42 23.25 48.06 23.24 56.70 C 21.57 56.10 20.03 55.20 18.62 54.13 C 18.73 47.14 18.59 40.14 18.71 33.15 C 17.17 32.27 15.58 31.47 13.95 30.75 C 13.79 37.68 13.92 44.60 13.88 51.52 C 12.44 50.60 10.55 50.09 9.52 48.64 C 9.24 41.76 9.72 34.86 9.31 27.99 C 7.76 27.26 6.20 26.52 4.66 25.77 C 4.53 32.54 4.62 39.31 4.63 46.09 C 3.39 45.45 2.18 44.76 1.00 44.03 C 1.10 35.26 0.99 26.49 1.04 17.72 Z" />
</svg>
