<?xml version="1.0" encoding="UTF-8" ?>
<!DOCTYPE svg PUBLIC "-//W3C//DTD SVG 1.1//EN" "http://www.w3.org/Graphics/SVG/1.1/DTD/svg11.dtd">
<svg width="600pt" height="600pt" viewBox="0 0 600 600" version="1.1" xmlns="http://www.w3.org/2000/svg">
<path fill="#ef4136" stroke="#ef4136" stroke-width="0.09375" opacity="1.00" d=" M 297.76 0.00 L 302.25 0.00 C 310.06 1.79 318.05 5.93 321.41 13.63 C 328.57 26.17 320.69 43.84 306.92 47.60 C 302.30 48.75 297.43 48.74 292.85 47.43 C 283.41 44.83 276.52 35.69 275.92 26.04 C 274.85 13.17 285.25 1.75 297.76 0.00 Z" />
<path fill="#5aa3da" stroke="#5aa3da" stroke-width="0.09375" opacity="1.00" d=" M 283.96 81.50 C 286.49 70.07 288.71 58.38 292.85 47.43 C 297.43 48.74 302.30 48.75 306.92 47.60 C 310.23 58.74 312.72 70.12 315.04 81.50 C 304.74 80.67 294.26 80.67 283.96 81.50 Z" />
<path fill="#054d75" stroke="#054d75" stroke-width="0.09375" opacity="1.00" d=" M 283.96 81.50 C 294.26 80.67 304.74 80.67 315.04 81.50 C 354.95 82.76 394.99 81.49 434.94 82.13 C 452.08 84.57 466.07 100.60 466.01 117.97 C 465.97 176.32 466.04 234.68 465.98 293.03 C 465.59 312.35 447.50 329.74 428.00 328.04 C 396.29 328.29 364.50 327.35 332.83 328.50 C 311.01 329.34 288.99 329.33 267.17 328.50 C 233.19 327.22 199.08 328.54 165.06 327.86 C 147.43 325.70 133.52 308.61 133.97 291.01 C 134.06 233.00 133.94 174.98 134.02 116.97 C 134.45 98.02 151.77 80.70 171.01 81.96 C 208.65 81.72 246.37 82.64 283.96 81.50 M 153.65 101.65 C 149.80 104.71 153.22 110.04 157.00 111.24 C 159.80 109.96 161.96 107.80 163.23 105.00 C 162.04 101.22 156.71 97.80 153.65 101.65 M 438.93 100.91 C 433.30 104.02 437.47 109.75 441.98 111.24 C 450.04 109.46 446.39 96.45 438.93 100.91 M 190.39 109.38 C 177.24 110.19 164.64 120.66 163.01 133.98 C 162.99 181.32 163.00 228.68 163.01 276.02 C 164.80 290.80 179.60 301.18 193.98 300.99 C 264.99 300.96 336.01 301.10 407.02 300.92 C 421.73 300.92 436.50 289.24 437.02 274.01 C 436.96 227.67 437.06 181.32 436.97 134.97 C 435.80 119.67 420.71 108.94 406.02 109.00 C 334.16 109.26 262.23 108.49 190.39 109.38 M 153.29 302.31 C 149.36 306.74 154.88 312.49 159.85 311.08 C 161.01 309.41 162.15 307.72 163.26 306.01 C 161.86 302.00 156.78 298.03 153.29 302.31 M 439.16 311.08 C 444.28 312.81 450.35 305.67 444.79 302.20 C 439.34 296.59 432.30 307.30 439.16 311.08 Z" />
<path fill="#5aa3da" stroke="#5aa3da" stroke-width="0.09375" opacity="1.00" d=" M 153.65 101.65 C 156.71 97.80 162.04 101.22 163.23 105.00 C 161.96 107.80 159.80 109.96 157.00 111.24 C 153.22 110.04 149.80 104.71 153.65 101.65 Z" />
<path fill="#5aa3da" stroke="#5aa3da" stroke-width="0.09375" opacity="1.00" d=" M 438.93 100.91 C 446.39 96.45 450.04 109.46 441.98 111.24 C 437.47 109.75 433.30 104.02 438.93 100.91 Z" />
<path fill="#5aa3da" stroke="#5aa3da" stroke-width="0.09375" opacity="1.00" d=" M 190.39 109.38 C 262.23 108.49 334.16 109.26 406.02 109.00 C 420.71 108.94 435.80 119.67 436.97 134.97 C 437.06 181.32 436.96 227.67 437.02 274.01 C 436.50 289.24 421.73 300.92 407.02 300.92 C 336.01 301.10 264.99 300.96 193.98 300.99 C 179.60 301.18 164.80 290.80 163.01 276.02 C 163.00 228.68 162.99 181.32 163.01 133.98 C 164.64 120.66 177.24 110.19 190.39 109.38 M 227.39 140.38 C 196.60 143.01 170.11 171.84 171.99 203.00 C 170.35 230.88 190.98 257.58 217.99 264.02 C 240.68 270.36 266.50 262.71 282.04 245.03 C 292.33 232.93 298.33 216.98 297.02 201.00 C 298.03 165.22 262.44 135.25 227.39 140.38 M 361.39 140.40 C 331.18 142.51 305.10 169.58 304.96 200.00 C 303.85 217.98 310.59 236.72 324.24 248.76 C 348.84 274.31 395.56 271.03 416.89 242.88 C 433.29 222.96 434.83 192.96 422.20 170.79 C 410.17 149.91 385.28 137.54 361.39 140.40 M 274.96 267.04 C 282.02 284.59 308.65 286.60 321.02 274.00 C 322.51 271.91 327.15 266.79 323.11 265.68 C 309.67 274.68 290.24 274.78 276.96 265.40 C 276.46 265.81 275.46 266.63 274.96 267.04 Z" />
<path fill="#054d75" stroke="#054d75" stroke-width="0.09375" opacity="1.00" d=" M 227.39 140.38 C 262.44 135.25 298.03 165.22 297.02 201.00 C 298.33 216.98 292.33 232.93 282.04 245.03 C 266.50 262.71 240.68 270.36 217.99 264.02 C 190.98 257.58 170.35 230.88 171.99 203.00 C 170.11 171.84 196.60 143.01 227.39 140.38 M 228.39 156.36 C 202.63 159.58 182.36 186.97 188.60 212.41 C 192.71 234.49 214.59 251.53 237.00 250.05 C 265.92 249.03 289.09 217.30 279.39 189.60 C 272.96 168.37 250.58 153.04 228.39 156.36 Z" />
<path fill="#054d75" stroke="#054d75" stroke-width="0.09375" opacity="1.00" d=" M 361.39 140.40 C 385.28 137.54 410.17 149.91 422.20 170.79 C 434.83 192.96 433.29 222.96 416.89 242.88 C 395.56 271.03 348.84 274.31 324.24 248.76 C 310.59 236.72 303.85 217.98 304.96 200.00 C 305.10 169.58 331.18 142.51 361.39 140.40 M 361.38 156.36 C 337.53 159.62 318.49 182.90 321.00 207.02 C 322.32 226.87 337.94 244.30 357.17 248.83 C 382.72 255.82 410.54 235.84 414.14 210.05 C 419.86 180.72 390.75 151.62 361.38 156.36 Z" />
<path fill="#f1f1f2" stroke="#f1f1f2" stroke-width="0.09375" opacity="1.00" d=" M 228.39 156.36 C 250.58 153.04 272.96 168.37 279.39 189.60 C 289.09 217.30 265.92 249.03 237.00 250.05 C 214.59 251.53 192.71 234.49 188.60 212.41 C 182.36 186.97 202.63 159.58 228.39 156.36 M 229.34 178.31 C 214.28 181.02 204.86 198.82 211.10 212.79 C 216.09 225.67 232.63 232.43 245.05 226.08 C 256.46 221.14 262.47 207.31 258.62 195.55 C 255.07 183.59 241.58 175.19 229.34 178.31 Z" />
<path fill="#f1f1f2" stroke="#f1f1f2" stroke-width="0.09375" opacity="1.00" d=" M 361.38 156.36 C 390.75 151.62 419.86 180.72 414.14 210.05 C 410.54 235.84 382.72 255.82 357.17 248.83 C 337.94 244.30 322.32 226.87 321.00 207.02 C 318.49 182.90 337.53 159.62 361.38 156.36 M 362.32 178.13 C 342.58 180.93 334.35 208.46 349.54 221.49 C 361.78 234.16 385.57 228.46 390.76 211.66 C 398.23 194.37 380.44 173.83 362.32 178.13 Z" />
<path fill="#231f20" stroke="#231f20" stroke-width="0.09375" opacity="1.00" d=" M 229.34 178.31 C 241.58 175.19 255.07 183.59 258.62 195.55 C 262.47 207.31 256.46 221.14 245.05 226.08 C 232.63 232.43 216.09 225.67 211.10 212.79 C 204.86 198.82 214.28 181.02 229.34 178.31 Z" />
<path fill="#231f20" stroke="#231f20" stroke-width="0.09375" opacity="1.00" d=" M 362.32 178.13 C 380.44 173.83 398.23 194.37 390.76 211.66 C 385.57 228.46 361.78 234.16 349.54 221.49 C 334.35 208.46 342.58 180.93 362.32 178.13 Z" />
<path fill="#ef4136" stroke="#ef4136" stroke-width="0.09375" opacity="1.00" d=" M 76.64 264.63 C 97.77 259.84 122.02 277.97 120.49 300.36 C 120.06 308.40 115.61 315.54 109.78 320.84 C 102.96 318.28 95.50 317.47 88.32 318.86 C 91.16 303.27 77.14 291.82 71.28 278.71 C 68.03 273.53 70.52 266.10 76.64 264.63 Z" />
<path fill="#ef4136" stroke="#ef4136" stroke-width="0.09375" opacity="1.00" d=" M 479.91 297.98 C 480.28 277.52 501.42 262.01 520.96 264.08 C 525.76 264.28 530.33 268.25 531.01 272.97 C 527.15 289.28 509.53 300.71 511.96 318.84 C 504.75 317.66 497.09 318.05 490.41 321.23 C 484.62 314.84 479.35 307.01 479.91 297.98 Z" />
<path fill="#000000" stroke="#000000" stroke-width="0.09375" opacity="1.00" d=" M 274.96 267.04 C 275.46 266.63 276.46 265.81 276.96 265.40 C 290.24 274.78 309.67 274.68 323.11 265.68 C 327.15 266.79 322.51 271.91 321.02 274.00 C 308.65 286.60 282.02 284.59 274.96 267.04 Z" />
<path fill="#ef4136" stroke="#ef4136" stroke-width="0.09375" opacity="1.00" d=" M 21.00 301.98 C 24.11 295.01 32.62 286.26 40.66 290.31 C 51.75 301.98 51.10 322.88 66.91 330.45 C 61.98 335.54 58.25 341.95 57.15 349.02 C 30.79 357.80 9.23 324.59 21.00 301.98 Z" />
<path fill="#ef4136" stroke="#ef4136" stroke-width="0.09375" opacity="1.00" d=" M 553.65 299.65 C 556.10 294.95 559.44 288.05 565.82 289.08 C 576.56 292.93 583.12 304.80 582.07 316.00 C 583.99 335.96 563.95 355.41 543.82 349.39 C 542.07 342.44 538.89 335.74 533.74 330.66 C 545.69 324.92 548.34 310.56 553.65 299.65 Z" />
<path fill="#5aa3da" stroke="#5aa3da" stroke-width="0.09375" opacity="1.00" d=" M 153.29 302.31 C 156.78 298.03 161.86 302.00 163.26 306.01 C 162.15 307.72 161.01 309.41 159.85 311.08 C 154.88 312.49 149.36 306.74 153.29 302.31 Z" />
<path fill="#5aa3da" stroke="#5aa3da" stroke-width="0.09375" opacity="1.00" d=" M 439.16 311.08 C 432.30 307.30 439.34 296.59 444.79 302.20 C 450.35 305.67 444.28 312.81 439.16 311.08 Z" />
<path fill="#fcba63" stroke="#fcba63" stroke-width="0.09375" opacity="1.00" d=" M 88.32 318.86 C 95.50 317.47 102.96 318.28 109.78 320.84 C 112.16 322.05 114.37 323.53 116.57 325.03 C 97.31 337.02 76.72 346.92 57.01 358.22 C 56.19 355.19 56.67 352.06 57.15 349.02 C 58.25 341.95 61.98 335.54 66.91 330.45 C 72.87 324.80 80.26 320.60 88.32 318.86 Z" />
<path fill="#fcba63" stroke="#fcba63" stroke-width="0.09375" opacity="1.00" d=" M 490.41 321.23 C 497.09 318.05 504.75 317.66 511.96 318.84 C 520.08 320.89 527.68 324.84 533.74 330.66 C 538.89 335.74 542.07 342.44 543.82 349.39 C 544.11 352.39 544.00 355.42 543.85 358.44 C 523.49 347.44 503.55 335.73 482.82 325.46 C 485.35 324.06 487.81 322.52 490.41 321.23 Z" />
<path fill="#054d75" stroke="#054d75" stroke-width="0.09375" opacity="1.00" d=" M 117.52 325.68 C 120.43 323.70 123.58 322.11 126.81 320.71 C 135.08 335.29 134.05 354.87 124.27 368.52 C 124.43 368.83 124.73 369.45 124.89 369.76 C 116.73 378.70 106.53 387.02 93.90 387.72 C 75.17 390.14 55.75 380.28 46.79 363.63 C 50.45 362.33 53.82 360.41 57.01 358.22 C 76.72 346.92 97.31 337.02 116.57 325.03 C 116.80 325.19 117.28 325.52 117.52 325.68 M 96.86 362.08 C 98.02 360.40 99.16 358.71 100.27 357.00 C 99.16 355.28 98.02 353.59 96.86 351.92 C 87.10 349.43 87.10 364.56 96.86 362.08 Z" />
<path fill="#054d75" stroke="#054d75" stroke-width="0.09375" opacity="1.00" d=" M 473.43 320.63 C 476.66 322.04 479.70 323.83 482.82 325.46 C 503.55 335.73 523.49 347.44 543.85 358.44 C 546.82 360.47 550.01 362.17 553.36 363.50 C 544.80 380.41 525.05 390.21 506.33 387.77 C 494.44 386.22 482.43 379.82 476.21 369.33 C 466.93 354.85 465.04 335.98 473.43 320.63 M 506.86 362.09 C 508.01 360.41 509.16 358.71 510.28 357.00 C 509.16 355.28 508.01 353.59 506.85 351.91 C 497.09 349.45 497.10 364.55 506.86 362.09 Z" />
<path fill="#5aa3da" stroke="#5aa3da" stroke-width="0.09375" opacity="1.00" d=" M 267.17 328.50 C 288.99 329.33 311.01 329.34 332.83 328.50 C 333.07 333.25 333.06 338.00 332.86 342.75 C 310.96 343.16 289.03 343.16 267.14 342.75 C 266.93 338.00 266.93 333.25 267.17 328.50 Z" />
<path fill="#054d75" stroke="#054d75" stroke-width="0.09375" opacity="1.00" d=" M 267.14 342.75 C 289.03 343.16 310.96 343.16 332.86 342.75 C 349.90 343.38 366.97 342.72 384.01 343.07 C 393.44 343.29 402.35 349.16 406.37 357.65 C 410.14 365.91 406.18 375.31 408.93 383.75 C 408.81 397.66 409.54 411.63 408.54 425.50 C 407.20 445.26 408.52 465.15 407.89 484.95 C 406.35 495.56 396.35 503.74 385.95 504.87 C 378.59 505.37 371.20 504.53 363.85 505.35 C 321.62 504.76 279.33 504.79 237.09 505.33 C 226.83 503.94 215.99 506.93 206.15 502.84 C 199.42 499.58 193.70 493.39 192.09 485.98 C 191.57 465.96 192.64 445.87 191.58 425.88 C 190.47 411.95 190.94 397.87 191.31 383.91 C 193.62 375.10 189.77 365.40 193.94 356.96 C 198.18 348.92 206.79 343.19 215.97 343.00 C 233.02 342.83 250.09 343.33 267.14 342.75 M 209.36 368.65 C 212.13 370.80 214.92 368.70 217.08 366.83 C 217.58 363.56 216.19 360.08 212.88 358.99 C 207.87 358.07 204.22 366.35 209.36 368.65 M 383.98 364.91 C 386.15 371.22 393.64 370.15 395.24 364.00 C 393.79 357.39 383.99 357.98 383.98 364.91 M 232.36 368.34 C 225.46 369.93 219.38 376.69 219.95 384.00 C 220.11 411.66 219.89 439.34 220.06 467.00 C 221.49 474.10 228.46 480.62 235.99 480.05 C 279.66 479.89 323.34 480.11 367.00 479.94 C 374.11 478.51 380.62 471.53 380.05 464.00 C 379.89 436.34 380.11 408.67 379.95 381.01 C 378.52 373.36 370.87 367.29 363.01 367.96 C 319.47 368.28 275.86 367.52 232.36 368.34 M 206.99 484.12 C 207.00 485.69 207.01 487.27 207.00 488.86 C 210.90 494.58 218.73 490.72 217.09 484.14 C 215.41 482.98 213.72 481.83 212.00 480.73 C 210.30 481.81 208.63 482.94 206.99 484.12 M 388.35 481.25 C 381.45 482.67 384.13 493.38 390.67 491.77 C 397.42 489.75 394.44 480.45 388.35 481.25 Z" />
<path fill="#5aa3da" stroke="#5aa3da" stroke-width="0.09375" opacity="1.00" d=" M 96.86 362.08 C 87.10 364.56 87.10 349.43 96.86 351.92 C 98.02 353.59 99.16 355.28 100.27 357.00 C 99.16 358.71 98.02 360.40 96.86 362.08 Z" />
<path fill="#5aa3da" stroke="#5aa3da" stroke-width="0.09375" opacity="1.00" d=" M 506.86 362.09 C 497.10 364.55 497.09 349.45 506.85 351.91 C 508.01 353.59 509.16 355.28 510.28 357.00 C 509.16 358.71 508.01 360.41 506.86 362.09 Z" />
<path fill="#5aa3da" stroke="#5aa3da" stroke-width="0.09375" opacity="1.00" d=" M 209.36 368.65 C 204.22 366.35 207.87 358.07 212.88 358.99 C 216.19 360.08 217.58 363.56 217.08 366.83 C 214.92 368.70 212.13 370.80 209.36 368.65 Z" />
<path fill="#5aa3da" stroke="#5aa3da" stroke-width="0.09375" opacity="1.00" d=" M 383.98 364.91 C 383.99 357.98 393.79 357.39 395.24 364.00 C 393.64 370.15 386.15 371.22 383.98 364.91 Z" />
<path fill="#054d75" stroke="#054d75" stroke-width="0.09375" opacity="1.00" d=" M 162.83 381.00 C 168.56 371.81 178.25 365.52 189.02 364.20 C 189.19 371.28 188.49 378.40 189.52 385.44 C 190.52 395.60 189.83 405.83 189.94 416.02 C 189.25 416.01 187.88 415.99 187.19 415.98 C 182.62 409.08 176.96 402.91 173.10 395.56 C 170.29 390.29 166.16 385.92 162.83 381.00 Z" />
<path fill="#054d75" stroke="#054d75" stroke-width="0.09375" opacity="1.00" d=" M 410.98 364.20 C 421.75 365.53 431.45 371.81 437.17 381.00 C 433.97 385.50 430.56 389.84 427.30 394.29 C 427.40 394.62 427.60 395.28 427.69 395.61 C 422.56 402.28 417.71 409.17 412.80 416.01 C 412.12 416.01 410.74 416.01 410.06 416.01 C 410.14 405.85 409.53 395.66 410.43 385.53 C 411.55 378.47 410.80 371.31 410.98 364.20 Z" />
<path fill="#5aa3da" stroke="#5aa3da" stroke-width="0.09375" opacity="1.00" d=" M 232.36 368.34 C 275.86 367.52 319.47 368.28 363.01 367.96 C 370.87 367.29 378.52 373.36 379.95 381.01 C 380.11 408.67 379.89 436.34 380.05 464.00 C 380.62 471.53 374.11 478.51 367.00 479.94 C 323.34 480.11 279.66 479.89 235.99 480.05 C 228.46 480.62 221.49 474.10 220.06 467.00 C 219.89 439.34 220.11 411.66 219.95 384.00 C 219.38 376.69 225.46 369.93 232.36 368.34 M 235.36 374.34 C 228.91 376.43 224.44 383.26 224.96 390.00 C 225.05 413.34 224.97 436.69 225.00 460.03 C 225.20 468.31 232.78 475.11 240.97 474.98 C 279.99 475.05 319.00 474.95 358.02 475.03 C 366.32 475.02 374.91 468.86 374.91 459.97 C 375.14 436.65 374.90 413.31 375.03 389.98 C 375.06 382.30 369.48 373.53 361.02 373.96 C 319.14 374.27 277.17 373.52 235.36 374.34 Z" />
<path fill="#5aa3da" stroke="#5aa3da" stroke-width="0.09375" opacity="1.00" d=" M 93.90 387.72 C 106.53 387.02 116.73 378.70 124.89 369.76 C 132.80 383.29 140.83 396.78 149.13 410.09 C 157.32 405.58 164.88 400.03 173.10 395.56 C 176.96 402.91 182.62 409.08 187.19 415.98 C 187.88 415.99 189.25 416.01 189.94 416.02 C 189.83 405.83 190.52 395.60 189.52 385.44 C 189.97 385.06 190.86 384.30 191.31 383.91 C 190.94 397.87 190.47 411.95 191.58 425.88 C 178.72 433.65 166.34 442.24 153.16 449.45 C 151.13 437.97 150.56 426.30 148.75 414.79 C 142.72 425.83 137.39 437.25 131.65 448.44 C 117.41 429.59 106.65 407.78 93.90 387.72 Z" />
<path fill="#5aa3da" stroke="#5aa3da" stroke-width="0.09375" opacity="1.00" d=" M 451.64 410.34 C 459.65 396.56 467.89 382.92 476.21 369.33 C 482.43 379.82 494.44 386.22 506.33 387.77 C 495.74 406.07 485.07 424.42 473.55 442.13 C 466.82 431.73 459.39 421.80 451.96 411.89 C 451.52 425.15 452.01 438.42 451.63 451.68 C 436.66 444.31 422.95 434.08 408.54 425.50 C 409.54 411.63 408.81 397.66 408.93 383.75 C 409.31 384.20 410.06 385.09 410.43 385.53 C 409.53 395.66 410.14 405.85 410.06 416.01 C 410.74 416.01 412.12 416.01 412.80 416.01 C 417.71 409.17 422.56 402.28 427.69 395.61 C 435.74 400.41 443.49 405.71 451.64 410.34 Z" />
<path fill="#69b7e6" stroke="#69b7e6" stroke-width="0.09375" opacity="1.00" d=" M 281.84 386.83 C 302.91 372.62 335.54 385.03 341.24 409.89 C 332.09 389.45 302.19 381.15 286.08 398.21 C 284.10 400.53 281.92 402.73 279.14 404.10 C 271.17 402.25 259.03 387.59 272.01 384.06 C 275.72 384.20 278.36 390.22 281.84 386.83 Z" />
<path fill="#3c8fcd" stroke="#3c8fcd" stroke-width="0.09375" opacity="1.00" d=" M 286.08 398.21 C 302.19 381.15 332.09 389.45 341.24 409.89 L 341.75 410.55 C 345.59 425.20 341.00 443.20 328.28 451.93 C 309.42 464.23 279.33 454.08 276.08 430.71 C 282.47 449.19 308.68 455.71 322.30 441.29 C 337.61 427.62 330.80 399.09 310.62 394.42 C 302.25 391.16 293.65 394.48 286.08 398.21 Z" />
<path fill="#69b7e6" stroke="#69b7e6" stroke-width="0.09375" opacity="1.00" d=" M 287.31 412.32 C 291.33 406.04 299.13 409.97 302.05 415.10 C 305.91 411.71 309.96 407.48 315.65 409.04 C 317.04 410.52 318.49 411.96 319.98 413.35 C 321.54 421.68 312.66 425.71 308.26 431.26 C 304.25 436.21 296.79 434.02 294.12 428.86 C 290.05 424.41 282.61 419.04 287.31 412.32 Z" />
<path fill="#231f20" stroke="#231f20" stroke-width="0.09375" opacity="1.00" d=" M 451.96 411.89 C 459.39 421.80 466.82 431.73 473.55 442.13 C 469.12 449.91 460.45 454.07 451.63 451.68 C 452.01 438.42 451.52 425.15 451.96 411.89 Z" />
<path fill="#231f20" stroke="#231f20" stroke-width="0.09375" opacity="1.00" d=" M 131.65 448.44 C 137.39 437.25 142.72 425.83 148.75 414.79 C 150.56 426.30 151.13 437.97 153.16 449.45 C 146.50 453.28 137.88 453.02 131.65 448.44 Z" />
<path fill="#69b7e6" stroke="#69b7e6" stroke-width="0.09375" opacity="1.00" d=" M 264.16 419.16 C 272.39 414.26 276.45 423.96 276.08 430.71 C 279.33 454.08 309.42 464.23 328.28 451.93 C 310.30 469.97 276.16 461.68 266.31 438.68 C 263.73 432.65 260.88 425.47 264.16 419.16 Z" />
<path fill="#5aa3da" stroke="#5aa3da" stroke-width="0.09375" opacity="1.00" d=" M 206.99 484.12 C 208.63 482.94 210.30 481.81 212.00 480.73 C 213.72 481.83 215.41 482.98 217.09 484.14 C 218.73 490.72 210.90 494.58 207.00 488.86 C 207.01 487.27 207.00 485.69 206.99 484.12 Z" />
<path fill="#5aa3da" stroke="#5aa3da" stroke-width="0.09375" opacity="1.00" d=" M 388.35 481.25 C 394.44 480.45 397.42 489.75 390.67 491.77 C 384.13 493.38 381.45 482.67 388.35 481.25 Z" />
<path fill="#5aa3da" stroke="#5aa3da" stroke-width="0.09375" opacity="1.00" d=" M 237.09 505.33 C 279.33 504.79 321.62 504.76 363.85 505.35 C 363.91 507.79 363.93 510.23 363.92 512.67 C 321.67 513.22 279.35 513.22 237.10 512.67 C 237.06 510.22 237.06 507.77 237.09 505.33 Z" />
<path fill="#054d75" stroke="#054d75" stroke-width="0.09375" opacity="1.00" d=" M 237.10 512.67 C 279.35 513.22 321.67 513.22 363.92 512.67 C 372.88 513.41 381.88 512.81 390.86 512.99 C 390.16 536.79 380.49 560.60 362.72 576.78 C 360.99 578.59 358.23 577.85 356.00 578.06 C 316.16 577.70 276.24 578.48 236.45 577.67 C 218.60 561.38 207.58 537.32 207.97 513.02 C 217.68 512.77 227.41 513.43 237.10 512.67 Z" />
<path fill="#fdba63" stroke="#fdba63" stroke-width="0.09375" opacity="1.00" d=" M 203.66 600.00 C 203.70 595.42 206.93 590.58 211.97 590.99 C 270.32 591.00 328.68 591.01 387.04 590.99 C 391.89 590.70 394.78 595.60 394.25 600.00 L 203.66 600.00 Z" />
</svg>
