<?xml version="1.0" encoding="UTF-8" ?>
<!DOCTYPE svg PUBLIC "-//W3C//DTD SVG 1.1//EN" "http://www.w3.org/Graphics/SVG/1.1/DTD/svg11.dtd">
<svg width="840pt" height="450pt" viewBox="0 0 840 450" version="1.1" xmlns="http://www.w3.org/2000/svg">
<path fill="#ef4136" stroke="#ef4136" stroke-width="0.09375" opacity="1.00" d=" M 402.45 17.02 C 402.87 7.69 411.59 -0.27 420.94 0.31 C 429.99 0.21 438.08 8.08 438.51 17.06 C 439.29 25.31 433.46 33.46 425.54 35.68 C 425.13 35.81 424.30 36.06 423.88 36.19 C 421.61 35.93 419.34 35.94 417.09 36.26 C 416.51 36.05 415.35 35.65 414.77 35.44 C 407.13 33.04 401.67 25.04 402.45 17.02 Z" />
<path fill="#78aea4" stroke="#78aea4" stroke-width="0.09375" opacity="1.00" d=" M 414.77 35.44 C 415.35 35.65 416.51 36.05 417.09 36.26 C 419.11 38.00 421.90 38.04 423.88 36.19 C 424.30 36.06 425.13 35.81 425.54 35.68 C 428.46 43.69 429.81 52.24 431.84 60.52 C 424.03 59.74 416.15 60.34 408.31 60.22 C 410.64 52.01 412.23 43.60 414.77 35.44 Z" />
<path fill="#accac0" stroke="#accac0" stroke-width="0.09375" opacity="1.00" d=" M 417.09 36.26 C 419.34 35.94 421.61 35.93 423.88 36.19 C 421.90 38.04 419.11 38.00 417.09 36.26 Z" />
<path fill="#01745b" stroke="#01745b" stroke-width="0.09375" opacity="1.00" d=" M 407.48 61.42 C 407.69 61.12 408.10 60.52 408.31 60.22 C 416.15 60.34 424.03 59.74 431.84 60.52 C 432.13 60.70 432.70 61.06 432.98 61.24 C 461.01 61.45 489.04 61.30 517.07 61.32 C 529.58 60.60 541.43 70.19 544.37 82.18 C 545.58 87.03 545.14 92.06 545.19 97.00 C 545.20 137.65 545.19 178.31 545.20 218.96 C 545.34 232.70 533.69 245.54 519.90 246.25 C 495.08 246.46 470.25 245.99 445.44 246.48 C 437.32 247.15 429.17 246.67 421.04 246.81 C 412.60 246.67 404.15 247.14 395.74 246.50 C 370.84 245.95 345.93 246.48 321.03 246.24 C 307.23 245.68 295.73 232.67 295.80 219.05 C 295.82 175.35 295.78 131.64 295.82 87.94 C 296.02 73.83 308.71 60.95 322.95 61.32 C 351.13 61.41 379.31 61.22 407.48 61.42 M 309.41 78.07 C 308.78 80.69 311.39 82.33 313.00 83.87 C 314.88 82.42 316.60 80.77 318.15 78.96 C 316.95 77.52 316.01 75.43 313.93 75.15 C 311.91 74.49 310.08 76.37 309.41 78.07 M 521.98 79.04 C 523.57 80.71 525.25 82.30 527.00 83.81 C 528.43 82.36 530.60 81.23 530.93 79.03 C 530.28 77.23 529.23 74.94 526.99 74.94 C 524.60 75.17 523.36 77.39 521.98 79.04 M 338.16 82.08 C 329.59 82.58 321.70 88.48 318.59 96.43 C 317.09 100.11 317.68 104.15 317.60 108.01 C 317.62 138.34 317.61 168.67 317.61 199.00 C 317.70 203.14 317.04 207.47 318.67 211.41 C 320.52 216.40 324.54 220.26 329.02 222.95 C 334.47 225.93 340.90 225.88 346.93 225.83 C 397.95 225.77 448.97 225.86 499.99 225.79 C 507.96 225.90 515.85 222.11 520.21 215.34 C 523.28 211.22 523.62 205.91 523.42 200.96 C 523.34 167.99 523.43 135.01 523.38 102.04 C 523.36 96.48 520.29 91.42 516.25 87.79 C 511.44 83.07 504.44 81.92 497.98 81.73 C 449.32 81.78 400.66 81.73 352.00 81.75 C 347.38 81.79 342.75 81.49 338.16 82.08 M 310.76 225.92 C 310.17 227.42 309.59 228.93 309.03 230.45 C 310.04 231.42 311.04 232.40 312.05 233.39 C 312.81 233.39 314.34 233.41 315.11 233.41 C 316.06 232.21 317.02 231.00 317.98 229.80 C 316.91 228.08 315.62 226.52 314.06 225.24 C 312.96 225.47 311.86 225.69 310.76 225.92 M 522.05 228.89 C 523.42 230.61 524.18 233.96 527.00 233.44 C 528.67 233.45 529.65 231.77 530.93 230.92 C 530.90 230.23 530.84 228.85 530.82 228.16 C 529.32 227.20 528.04 225.25 526.09 225.47 C 524.62 226.46 523.35 227.70 522.05 228.89 Z" />
<path fill="#78aea4" stroke="#78aea4" stroke-width="0.09375" opacity="1.00" d=" M 309.41 78.07 C 310.08 76.37 311.91 74.49 313.93 75.15 C 316.01 75.43 316.95 77.52 318.15 78.96 C 316.60 80.77 314.88 82.42 313.00 83.87 C 311.39 82.33 308.78 80.69 309.41 78.07 Z" />
<path fill="#78aea4" stroke="#78aea4" stroke-width="0.09375" opacity="1.00" d=" M 521.98 79.04 C 523.36 77.39 524.60 75.17 526.99 74.94 C 529.23 74.94 530.28 77.23 530.93 79.03 C 530.60 81.23 528.43 82.36 527.00 83.81 C 525.25 82.30 523.57 80.71 521.98 79.04 Z" />
<path fill="#78aea4" stroke="#78aea4" stroke-width="0.09375" opacity="1.00" d=" M 338.16 82.08 C 342.75 81.49 347.38 81.79 352.00 81.75 C 400.66 81.73 449.32 81.78 497.98 81.73 C 504.44 81.92 511.44 83.07 516.25 87.79 C 520.29 91.42 523.36 96.48 523.38 102.04 C 523.43 135.01 523.34 167.99 523.42 200.96 C 523.62 205.91 523.28 211.22 520.21 215.34 C 515.85 222.11 507.96 225.90 499.99 225.79 C 448.97 225.86 397.95 225.77 346.93 225.83 C 340.90 225.88 334.47 225.93 329.02 222.95 C 324.54 220.26 320.52 216.40 318.67 211.41 C 317.04 207.47 317.70 203.14 317.61 199.00 C 317.61 168.67 317.62 138.34 317.60 108.01 C 317.68 104.15 317.09 100.11 318.59 96.43 C 321.70 88.48 329.59 82.58 338.16 82.08 M 366.23 105.35 C 343.13 107.12 323.17 128.66 324.34 152.01 C 323.67 162.03 327.08 171.90 332.70 180.11 C 339.63 190.21 351.03 196.88 362.99 199.06 C 375.67 201.18 389.25 198.34 399.56 190.51 C 407.50 185.25 412.77 176.89 416.09 168.12 C 418.59 161.02 418.57 153.38 418.14 145.96 C 416.57 132.73 408.91 120.54 397.96 113.04 C 388.73 106.88 377.24 104.22 366.23 105.35 M 466.38 105.40 C 451.81 106.64 438.17 115.29 430.71 127.85 C 422.64 141.19 422.11 158.49 428.38 172.65 C 431.49 179.70 436.83 185.44 442.68 190.33 C 453.41 198.63 467.84 201.29 481.04 198.82 C 492.22 196.28 503.04 190.20 509.55 180.55 C 524.09 161.26 520.78 130.51 501.42 115.64 C 491.78 107.60 478.79 104.06 466.38 105.40 M 400.94 199.78 C 403.21 202.83 405.07 206.42 408.46 208.40 C 415.22 212.47 424.05 212.73 431.14 209.34 C 435.15 207.51 437.90 203.80 440.00 200.06 C 437.74 198.58 435.79 200.98 433.78 201.75 C 426.39 205.15 417.68 205.08 409.96 202.81 C 406.84 202.01 404.39 199.01 400.94 199.78 Z" />
<path fill="#01745b" stroke="#01745b" stroke-width="0.09375" opacity="1.00" d=" M 366.23 105.35 C 377.24 104.22 388.73 106.88 397.96 113.04 C 408.91 120.54 416.57 132.73 418.14 145.96 C 418.57 153.38 418.59 161.02 416.09 168.12 C 412.77 176.89 407.50 185.25 399.56 190.51 C 389.25 198.34 375.67 201.18 362.99 199.06 C 351.03 196.88 339.63 190.21 332.70 180.11 C 327.08 171.90 323.67 162.03 324.34 152.01 C 323.17 128.66 343.13 107.12 366.23 105.35 M 363.66 118.00 C 347.09 121.59 334.73 138.29 336.17 155.15 C 337.29 167.30 344.91 178.74 356.01 183.93 C 362.38 187.28 369.84 188.25 376.92 187.16 C 389.68 184.93 401.11 175.32 404.84 162.82 C 410.08 147.75 402.68 129.80 388.90 122.07 C 381.46 117.45 372.18 116.05 363.66 118.00 Z" />
<path fill="#01745b" stroke="#01745b" stroke-width="0.09375" opacity="1.00" d=" M 466.38 105.40 C 478.79 104.06 491.78 107.60 501.42 115.64 C 520.78 130.51 524.09 161.26 509.55 180.55 C 503.04 190.20 492.22 196.28 481.04 198.82 C 467.84 201.29 453.41 198.63 442.68 190.33 C 436.83 185.44 431.49 179.70 428.38 172.65 C 422.11 158.49 422.64 141.19 430.71 127.85 C 438.17 115.29 451.81 106.64 466.38 105.40 M 463.65 117.99 C 455.45 120.10 447.67 124.79 442.91 131.91 C 436.37 140.74 434.49 152.70 437.83 163.14 C 440.49 170.35 444.99 177.15 451.57 181.32 C 460.89 187.91 473.55 189.54 484.14 185.15 C 499.67 178.99 510.09 160.92 505.60 144.47 C 501.60 126.39 481.81 113.44 463.65 117.99 Z" />
<path fill="#f7f8f8" stroke="#f7f8f8" stroke-width="0.09375" opacity="1.00" d=" M 363.66 118.00 C 372.18 116.05 381.46 117.45 388.90 122.07 C 402.68 129.80 410.08 147.75 404.84 162.82 C 401.11 175.32 389.68 184.93 376.92 187.16 C 369.84 188.25 362.38 187.28 356.01 183.93 C 344.91 178.74 337.29 167.30 336.17 155.15 C 334.73 138.29 347.09 121.59 363.66 118.00 M 354.23 144.22 C 353.71 145.41 353.18 146.59 352.64 147.77 C 352.41 150.91 352.42 154.05 352.66 157.18 C 354.21 160.51 355.72 164.01 358.56 166.47 C 363.73 171.03 371.52 172.97 377.98 170.11 C 383.16 168.31 386.87 163.98 389.25 159.20 C 390.31 154.76 390.55 150.22 389.26 145.79 C 386.85 140.53 382.60 135.88 376.88 134.30 C 368.21 131.45 358.01 135.91 354.23 144.22 Z" />
<path fill="#f7f8f8" stroke="#f7f8f8" stroke-width="0.09375" opacity="1.00" d=" M 463.65 117.99 C 481.81 113.44 501.60 126.39 505.60 144.47 C 510.09 160.92 499.67 178.99 484.14 185.15 C 473.55 189.54 460.89 187.91 451.57 181.32 C 444.99 177.15 440.49 170.35 437.83 163.14 C 434.49 152.70 436.37 140.74 442.91 131.91 C 447.67 124.79 455.45 120.10 463.65 117.99 M 461.12 136.08 C 454.53 139.79 451.06 147.76 451.62 155.13 C 452.87 158.94 454.35 162.86 457.38 165.64 C 461.59 170.20 468.02 172.06 474.10 171.38 C 479.04 169.76 484.04 167.27 486.75 162.59 C 490.47 157.38 490.11 150.46 488.32 144.60 C 486.06 141.07 483.44 137.52 479.57 135.65 C 473.87 132.62 466.66 132.77 461.12 136.08 Z" />
<path fill="#231f20" stroke="#231f20" stroke-width="0.09375" opacity="1.00" d=" M 354.23 144.22 C 358.01 135.91 368.21 131.45 376.88 134.30 C 382.60 135.88 386.85 140.53 389.26 145.79 C 390.55 150.22 390.31 154.76 389.25 159.20 C 386.87 163.98 383.16 168.31 377.98 170.11 C 371.52 172.97 363.73 171.03 358.56 166.47 C 355.72 164.01 354.21 160.51 352.66 157.18 C 352.42 154.05 352.41 150.91 352.64 147.77 C 353.18 146.59 353.71 145.41 354.23 144.22 Z" />
<path fill="#231f20" stroke="#231f20" stroke-width="0.09375" opacity="1.00" d=" M 461.12 136.08 C 466.66 132.77 473.87 132.62 479.57 135.65 C 483.44 137.52 486.06 141.07 488.32 144.60 C 490.11 150.46 490.47 157.38 486.75 162.59 C 484.04 167.27 479.04 169.76 474.10 171.38 C 468.02 172.06 461.59 170.20 457.38 165.64 C 454.35 162.86 452.87 158.94 451.62 155.13 C 451.06 147.76 454.53 139.79 461.12 136.08 Z" />
<path fill="#ef4136" stroke="#ef4136" stroke-width="0.09375" opacity="1.00" d=" M 248.68 201.55 C 251.12 198.52 255.31 197.45 259.05 197.73 C 266.69 198.58 273.95 202.24 279.33 207.70 C 284.39 213.34 286.81 221.44 285.19 228.90 C 284.04 233.62 280.97 237.52 277.73 241.01 C 272.74 238.71 267.07 238.13 261.70 239.26 C 261.81 236.47 262.07 233.57 261.13 230.89 C 258.36 222.97 252.42 216.73 248.85 209.22 C 247.75 206.85 246.81 203.81 248.68 201.55 Z" />
<path fill="#ef4136" stroke="#ef4136" stroke-width="0.09375" opacity="1.00" d=" M 563.92 205.94 C 569.25 201.35 575.99 198.21 583.05 197.68 C 587.06 197.56 591.64 199.11 593.51 202.94 C 594.37 208.00 590.81 212.29 588.39 216.37 C 584.04 223.26 578.16 230.54 579.62 239.25 C 574.30 238.18 568.68 238.66 563.75 240.97 C 558.85 236.36 555.13 229.93 555.63 223.02 C 556.19 216.60 558.92 210.15 563.92 205.94 Z" />
<path fill="#000000" stroke="#000000" stroke-width="0.09375" opacity="1.00" d=" M 400.94 199.78 C 404.39 199.01 406.84 202.01 409.96 202.81 C 417.68 205.08 426.39 205.15 433.78 201.75 C 435.79 200.98 437.74 198.58 440.00 200.06 C 437.90 203.80 435.15 207.51 431.14 209.34 C 424.05 212.73 415.22 212.47 408.46 208.40 C 405.07 206.42 403.21 202.83 400.94 199.78 Z" />
<path fill="#ef4136" stroke="#ef4136" stroke-width="0.09375" opacity="1.00" d=" M 209.52 230.91 C 210.90 224.22 216.06 217.81 223.06 216.74 C 226.39 217.52 228.24 220.71 229.70 223.52 C 234.17 232.05 235.97 243.38 245.35 248.13 C 241.54 251.97 238.95 256.92 237.97 262.23 C 232.45 262.96 226.45 263.27 221.50 260.28 C 211.63 254.55 206.74 241.88 209.52 230.91 Z" />
<path fill="#ef4136" stroke="#ef4136" stroke-width="0.09375" opacity="1.00" d=" M 610.95 225.04 C 612.68 221.58 614.88 216.43 619.59 217.09 C 624.99 218.27 629.10 222.93 630.97 227.97 C 635.59 240.12 630.15 255.60 618.15 261.14 C 613.51 263.31 608.25 262.82 603.34 262.19 C 602.43 256.87 599.83 251.92 596.01 248.13 C 604.87 243.72 606.96 233.20 610.95 225.04 Z" />
<path fill="#78aea4" stroke="#78aea4" stroke-width="0.09375" opacity="1.00" d=" M 310.76 225.92 C 311.86 225.69 312.96 225.47 314.06 225.24 C 315.62 226.52 316.91 228.08 317.98 229.80 C 317.02 231.00 316.06 232.21 315.11 233.41 C 314.34 233.41 312.81 233.39 312.05 233.39 C 311.04 232.40 310.04 231.42 309.03 230.45 C 309.59 228.93 310.17 227.42 310.76 225.92 Z" />
<path fill="#78aea4" stroke="#78aea4" stroke-width="0.09375" opacity="1.00" d=" M 522.05 228.89 C 523.35 227.70 524.62 226.46 526.09 225.47 C 528.04 225.25 529.32 227.20 530.82 228.16 C 530.84 228.85 530.90 230.23 530.93 230.92 C 529.65 231.77 528.67 233.45 527.00 233.44 C 524.18 233.96 523.42 230.61 522.05 228.89 Z" />
<path fill="#fcba63" stroke="#fcba63" stroke-width="0.09375" opacity="1.00" d=" M 261.70 239.26 C 267.07 238.13 272.74 238.71 277.73 241.01 C 279.70 241.87 281.51 243.06 283.34 244.19 C 268.13 252.50 252.92 260.81 237.67 269.06 C 237.63 266.78 237.56 264.48 237.97 262.23 C 238.95 256.92 241.54 251.97 245.35 248.13 C 249.86 243.77 255.58 240.65 261.70 239.26 Z" />
<path fill="#fcba63" stroke="#fcba63" stroke-width="0.09375" opacity="1.00" d=" M 563.75 240.97 C 568.68 238.66 574.30 238.18 579.62 239.25 C 585.72 240.68 591.52 243.72 596.01 248.13 C 599.83 251.92 602.43 256.87 603.34 262.19 C 603.71 264.45 603.64 266.75 603.60 269.04 C 588.39 260.78 573.24 252.41 558.00 244.23 C 559.86 243.05 561.73 241.87 563.75 240.97 Z" />
<path fill="#01745b" stroke="#01745b" stroke-width="0.09375" opacity="1.00" d=" M 283.34 244.19 C 285.65 242.92 287.99 241.70 290.32 240.46 C 294.89 247.34 295.20 255.97 294.14 263.90 C 293.23 268.60 290.92 272.86 288.68 277.02 C 283.42 284.67 274.92 290.06 265.64 291.09 C 257.06 291.87 248.13 289.92 241.09 284.83 C 236.28 281.94 233.33 277.09 229.89 272.84 C 232.67 271.99 235.19 270.53 237.67 269.06 C 252.92 260.81 268.13 252.50 283.34 244.19 M 264.01 271.03 C 266.83 273.25 269.31 270.17 270.82 268.00 C 269.38 266.53 268.50 263.57 265.95 264.10 C 262.42 264.11 260.54 269.26 264.01 271.03 Z" />
<path fill="#01745b" stroke="#01745b" stroke-width="0.09375" opacity="1.00" d=" M 546.56 257.97 C 546.22 251.83 548.17 245.87 550.79 240.40 C 553.19 241.67 555.58 242.97 558.00 244.23 C 573.24 252.41 588.39 260.78 603.60 269.04 C 605.93 270.44 608.36 271.68 610.87 272.76 C 610.82 273.14 610.70 273.92 610.65 274.30 C 607.38 277.80 604.55 281.78 600.61 284.58 C 593.53 289.91 584.33 291.93 575.60 291.04 C 566.73 289.88 558.05 285.22 553.07 277.66 C 549.66 271.61 546.58 265.05 546.56 257.97 M 569.60 267.99 C 570.37 269.28 571.32 270.46 572.26 271.65 C 573.45 271.66 574.65 271.68 575.86 271.70 C 576.92 269.91 579.08 267.87 577.15 265.88 C 575.28 262.24 570.21 264.62 569.60 267.99 Z" />
<path fill="#78aea4" stroke="#78aea4" stroke-width="0.09375" opacity="1.00" d=" M 395.74 246.50 C 404.15 247.14 412.60 246.67 421.04 246.81 C 429.17 246.67 437.32 247.15 445.44 246.48 C 445.48 250.10 445.46 253.73 445.48 257.36 C 428.87 257.40 412.27 257.42 395.66 257.35 C 395.71 253.73 395.69 250.12 395.74 246.50 Z" />
<path fill="#01745b" stroke="#01745b" stroke-width="0.09375" opacity="1.00" d=" M 339.94 270.00 C 342.49 262.58 350.08 257.20 357.95 257.34 C 370.52 257.37 383.09 257.37 395.66 257.35 C 412.27 257.42 428.87 257.40 445.48 257.36 C 458.34 257.42 471.19 257.26 484.05 257.42 C 492.09 257.70 499.61 263.65 501.48 271.50 C 502.22 276.81 501.42 282.21 502.14 287.53 C 502.27 298.17 502.58 308.85 502.08 319.49 C 501.38 333.97 502.11 348.50 501.72 362.99 C 501.30 368.77 497.25 373.71 492.41 376.56 C 485.14 380.78 476.45 377.94 468.57 379.27 C 459.06 378.50 449.52 378.98 439.99 378.85 C 417.71 378.92 395.43 378.72 373.15 378.97 C 366.70 378.69 360.19 379.40 353.79 378.52 C 345.40 376.95 338.25 368.68 339.17 359.96 C 339.05 346.59 339.52 333.21 338.94 319.85 C 338.47 309.09 338.57 298.28 338.94 287.52 C 339.77 281.71 338.32 275.68 339.94 270.00 M 353.41 269.36 C 352.41 270.28 351.41 271.19 350.41 272.11 C 350.17 275.18 352.42 276.95 355.07 277.87 C 356.07 276.92 357.14 276.03 358.03 274.97 C 359.02 272.67 357.03 270.94 355.76 269.32 C 355.17 269.33 353.99 269.35 353.41 269.36 M 483.04 274.05 C 484.65 275.20 485.97 277.12 488.04 277.42 C 489.89 276.63 491.39 274.98 491.80 272.99 C 491.39 271.08 489.74 269.85 487.98 269.27 C 485.27 269.39 484.06 271.96 483.04 274.05 M 369.45 276.48 C 364.48 277.80 360.00 282.62 360.41 287.98 C 360.45 307.99 360.46 328.00 360.40 348.00 C 359.89 354.33 365.82 360.33 372.08 360.28 C 404.39 360.24 436.70 360.24 469.00 360.27 C 475.22 360.29 481.09 354.31 480.60 348.03 C 480.53 328.01 480.55 307.98 480.60 287.97 C 480.98 281.38 474.42 275.65 467.99 276.16 C 438.65 276.21 409.31 276.18 379.98 276.18 C 376.47 276.24 372.92 275.89 369.45 276.48 M 350.58 364.97 C 350.20 367.68 353.42 368.36 355.05 369.79 C 356.45 368.09 359.04 366.51 358.12 363.94 C 357.36 362.49 355.83 361.69 354.68 360.61 C 353.16 361.85 350.28 362.49 350.58 364.97 M 482.97 364.98 C 484.22 367.03 485.88 368.75 488.05 369.82 C 489.39 368.28 491.34 367.03 491.93 364.99 C 491.11 363.11 489.31 361.90 487.97 360.43 C 485.90 361.48 484.18 363.00 482.97 364.98 Z" />
<path fill="#78aea4" stroke="#78aea4" stroke-width="0.09375" opacity="1.00" d=" M 264.01 271.03 C 260.54 269.26 262.42 264.11 265.95 264.10 C 268.50 263.57 269.38 266.53 270.82 268.00 C 269.31 270.17 266.83 273.25 264.01 271.03 Z" />
<path fill="#78aea4" stroke="#78aea4" stroke-width="0.09375" opacity="1.00" d=" M 569.60 267.99 C 570.21 264.62 575.28 262.24 577.15 265.88 C 579.08 267.87 576.92 269.91 575.86 271.70 C 574.65 271.68 573.45 271.66 572.26 271.65 C 571.32 270.46 570.37 269.28 569.60 267.99 Z" />
<path fill="#78aea4" stroke="#78aea4" stroke-width="0.09375" opacity="1.00" d=" M 353.41 269.36 C 353.99 269.35 355.17 269.33 355.76 269.32 C 357.03 270.94 359.02 272.67 358.03 274.97 C 357.14 276.03 356.07 276.92 355.07 277.87 C 352.42 276.95 350.17 275.18 350.41 272.11 C 351.41 271.19 352.41 270.28 353.41 269.36 Z" />
<path fill="#78aea4" stroke="#78aea4" stroke-width="0.09375" opacity="1.00" d=" M 483.04 274.05 C 484.06 271.96 485.27 269.39 487.98 269.27 C 489.74 269.85 491.39 271.08 491.80 272.99 C 491.39 274.98 489.89 276.63 488.04 277.42 C 485.97 277.12 484.65 275.20 483.04 274.05 Z" />
<path fill="#01745b" stroke="#01745b" stroke-width="0.09375" opacity="1.00" d=" M 317.41 285.92 C 321.81 279.01 329.06 274.09 337.30 273.24 C 337.35 278.66 337.08 284.08 337.58 289.48 C 338.16 297.19 338.47 304.94 337.65 312.65 C 335.96 311.57 334.33 310.35 333.23 308.66 C 330.43 304.73 327.47 300.91 325.09 296.70 C 322.87 292.88 320.01 289.48 317.41 285.92 Z" />
<path fill="#01745b" stroke="#01745b" stroke-width="0.09375" opacity="1.00" d=" M 503.71 273.24 C 511.94 274.09 519.19 279.02 523.60 285.92 C 521.03 289.38 518.25 292.72 516.15 296.50 C 512.75 301.94 509.03 307.26 504.88 312.14 C 504.52 312.09 503.79 311.99 503.43 311.94 C 502.32 304.50 502.85 296.93 503.41 289.47 C 503.94 284.07 503.63 278.65 503.71 273.24 Z" />
<path fill="#78aea4" stroke="#78aea4" stroke-width="0.09375" opacity="1.00" d=" M 369.45 276.48 C 372.92 275.89 376.47 276.24 379.98 276.18 C 409.31 276.18 438.65 276.21 467.99 276.16 C 474.42 275.65 480.98 281.38 480.60 287.97 C 480.55 307.98 480.53 328.01 480.60 348.03 C 481.09 354.31 475.22 360.29 469.00 360.27 C 436.70 360.24 404.39 360.24 372.08 360.28 C 365.82 360.33 359.89 354.33 360.40 348.00 C 360.46 328.00 360.45 307.99 360.41 287.98 C 360.00 282.62 364.48 277.80 369.45 276.48 M 370.43 281.48 C 366.59 283.38 364.04 287.66 364.15 291.94 C 364.17 309.31 364.17 326.68 364.15 344.05 C 363.71 350.57 369.45 356.61 376.01 356.43 C 404.99 356.56 433.99 356.39 462.98 356.51 C 467.08 356.70 471.25 355.11 474.09 352.13 C 476.39 349.71 476.75 346.16 476.85 342.98 C 476.85 326.65 476.79 310.31 476.87 293.98 C 477.02 289.83 475.66 285.36 472.43 282.61 C 469.23 279.92 464.86 280.65 461.01 280.58 C 432.33 280.62 403.64 280.61 374.95 280.58 C 373.40 280.60 371.80 280.70 370.43 281.48 Z" />
<path fill="#78aea4" stroke="#78aea4" stroke-width="0.09375" opacity="1.00" d=" M 265.64 291.09 C 274.92 290.06 283.42 284.67 288.68 277.02 C 294.87 287.22 300.99 297.46 307.12 307.69 C 313.26 304.29 319.02 300.23 325.09 296.70 C 327.47 300.91 330.43 304.73 333.23 308.66 C 334.33 310.35 335.96 311.57 337.65 312.65 C 338.47 304.94 338.16 297.19 337.58 289.48 C 337.92 288.99 338.60 288.01 338.94 287.52 C 338.57 298.28 338.47 309.09 338.94 319.85 C 329.15 325.49 319.95 332.12 310.01 337.46 C 308.72 328.85 307.97 320.16 306.81 311.53 C 302.56 319.83 298.54 328.25 294.17 336.49 C 292.47 336.07 291.84 334.28 290.92 333.00 C 287.93 327.90 284.74 322.92 281.87 317.76 C 281.64 316.77 281.44 315.78 281.25 314.79 C 280.39 313.77 279.54 312.73 278.66 311.74 C 278.39 311.47 277.84 310.93 277.56 310.66 L 277.34 310.44 C 276.46 309.05 275.52 307.71 274.84 306.21 C 274.77 305.52 274.62 304.15 274.55 303.46 C 274.02 303.19 272.96 302.64 272.43 302.36 C 272.47 301.67 272.54 300.29 272.58 299.60 C 272.05 299.48 271.00 299.26 270.47 299.14 C 268.99 296.38 267.28 293.76 265.64 291.09 Z" />
<path fill="#78aea4" stroke="#78aea4" stroke-width="0.09375" opacity="1.00" d=" M 552.63 277.00 L 553.07 277.66 C 558.05 285.22 566.73 289.88 575.60 291.04 C 569.09 302.30 562.20 313.35 555.59 324.55 C 554.15 327.02 552.74 329.54 550.85 331.71 C 545.45 324.25 540.24 316.65 534.63 309.35 C 534.49 319.30 534.77 329.25 534.41 339.20 C 530.42 337.62 526.96 335.03 523.35 332.77 C 516.26 328.35 509.18 323.90 502.08 319.49 C 502.58 308.85 502.27 298.17 502.14 287.53 C 502.46 288.01 503.10 288.98 503.41 289.47 C 502.85 296.93 502.32 304.50 503.43 311.94 C 503.79 311.99 504.52 312.09 504.88 312.14 C 509.03 307.26 512.75 301.94 516.15 296.50 C 522.06 300.44 528.24 303.98 534.15 307.92 C 540.30 297.62 546.62 287.40 552.63 277.00 Z" />
<path fill="#f7f8f8" stroke="#f7f8f8" stroke-width="0.09375" opacity="1.00" d=" M 370.43 281.48 C 371.80 280.70 373.40 280.60 374.95 280.58 C 403.64 280.61 432.33 280.62 461.01 280.58 C 464.86 280.65 469.23 279.92 472.43 282.61 C 475.66 285.36 477.02 289.83 476.87 293.98 C 476.79 310.31 476.85 326.65 476.85 342.98 C 476.75 346.16 476.39 349.71 474.09 352.13 C 471.25 355.11 467.08 356.70 462.98 356.51 C 433.99 356.39 404.99 356.56 376.01 356.43 C 369.45 356.61 363.71 350.57 364.15 344.05 C 364.17 326.68 364.17 309.31 364.15 291.94 C 364.04 287.66 366.59 283.38 370.43 281.48 M 404.05 296.37 C 404.09 296.69 404.17 297.34 404.21 297.66 C 407.41 297.31 410.62 296.95 413.83 296.62 L 413.90 296.04 C 410.61 296.19 407.33 296.29 404.05 296.37 M 420.78 298.24 C 419.18 298.14 417.61 298.50 416.08 298.90 C 416.28 299.54 416.67 300.83 416.87 301.47 C 417.99 300.66 419.14 299.88 420.29 299.10 C 419.79 302.42 416.11 301.43 413.73 301.89 C 413.11 302.75 412.50 303.61 411.89 304.48 C 408.71 304.37 405.49 303.87 402.34 304.41 C 402.01 304.80 401.33 305.58 401.00 305.97 C 399.04 304.63 396.77 303.92 394.40 303.63 C 395.90 302.76 397.52 302.16 399.19 301.70 C 398.97 299.99 397.59 299.50 396.09 299.24 C 394.45 300.44 392.68 301.43 390.81 302.19 C 392.15 300.83 393.56 299.56 394.97 298.27 C 390.04 299.33 385.32 301.14 380.90 303.55 C 382.28 303.93 383.69 304.26 385.05 304.75 C 379.30 304.41 373.53 304.69 367.77 304.57 C 368.69 305.46 369.60 306.39 370.48 307.34 C 370.82 311.20 370.57 315.08 370.50 318.94 C 369.56 319.55 368.62 320.16 367.70 320.79 L 368.31 321.49 C 371.09 321.42 373.88 321.50 376.64 321.93 C 380.83 326.51 387.01 328.24 392.77 329.94 C 392.77 330.15 392.77 330.56 392.77 330.76 C 392.11 330.86 390.81 331.06 390.16 331.15 L 391.46 331.61 C 390.30 333.02 389.52 334.62 389.12 336.42 C 390.10 336.44 391.10 336.47 392.09 336.51 C 392.51 336.19 393.34 335.55 393.75 335.23 C 394.08 336.28 394.40 337.34 394.69 338.41 C 395.48 337.36 396.27 336.33 397.08 335.30 C 396.42 337.64 397.99 338.49 399.67 339.10 C 399.61 338.58 399.48 337.54 399.41 337.02 C 399.96 337.13 401.07 337.36 401.62 337.48 L 401.31 339.11 L 402.19 339.18 C 402.29 338.42 402.49 336.89 402.59 336.13 C 406.14 335.97 405.40 339.56 405.65 341.88 C 406.75 339.90 407.69 337.84 408.63 335.78 C 408.09 336.03 407.02 336.53 406.49 336.78 C 403.52 335.08 400.04 335.56 396.79 335.12 C 395.81 334.81 394.86 334.45 393.91 334.14 C 393.96 333.40 394.07 331.92 394.12 331.18 L 394.47 330.42 C 410.44 334.11 427.22 334.41 443.31 331.26 C 442.73 330.93 441.58 330.26 441.00 329.92 C 435.41 329.64 429.76 329.71 424.20 330.31 C 416.84 331.63 409.35 330.83 401.93 330.87 C 397.15 330.94 392.63 329.23 388.18 327.73 C 384.32 326.35 380.26 324.80 377.65 321.47 C 380.34 321.41 383.05 321.48 385.75 321.60 L 385.63 320.71 L 386.51 320.67 C 386.59 320.01 386.74 318.67 386.82 318.01 C 389.59 321.76 391.76 326.26 396.25 328.28 C 395.85 327.09 395.45 325.90 395.04 324.72 C 396.60 322.93 398.57 321.60 400.97 321.31 C 403.10 317.42 405.11 313.48 406.96 309.45 C 408.43 311.14 410.28 312.43 412.38 313.20 C 411.06 316.25 408.95 318.82 406.56 321.09 C 409.50 321.18 412.45 321.20 415.40 321.02 C 414.41 320.29 413.41 319.57 412.42 318.87 C 412.93 317.83 413.44 316.80 413.96 315.76 C 415.66 315.76 417.36 315.76 419.07 315.77 C 419.61 316.87 420.15 317.97 420.70 319.07 C 419.55 319.45 418.36 319.86 418.01 321.13 C 425.08 321.88 432.13 320.32 439.23 320.95 C 438.00 320.31 436.76 319.69 435.52 319.08 C 435.43 316.50 435.38 313.91 435.32 311.34 C 439.47 314.75 443.80 317.95 447.96 321.37 C 448.77 321.36 450.39 321.36 451.21 321.35 C 451.93 318.02 452.51 314.61 452.02 311.21 C 452.52 311.37 453.52 311.68 454.02 311.84 C 453.82 310.92 453.65 310.00 453.52 309.08 C 454.43 308.60 455.37 308.14 456.32 307.72 C 455.80 314.60 464.74 313.81 468.03 318.01 C 466.52 318.78 464.97 320.04 463.14 319.53 C 460.90 319.02 459.72 316.83 459.02 314.83 C 458.34 314.76 456.97 314.63 456.29 314.56 L 455.47 314.31 C 455.71 315.84 455.95 317.39 456.18 318.93 C 454.86 320.14 452.87 321.15 453.49 323.30 C 455.69 323.18 457.90 322.53 460.13 322.83 C 459.42 324.15 458.77 325.73 457.24 326.28 C 452.97 328.18 448.40 329.28 443.94 330.61 C 445.44 330.69 446.95 330.79 448.46 330.91 C 448.47 333.20 449.02 335.57 450.69 337.23 C 450.55 335.06 450.25 332.82 449.02 330.96 L 448.58 329.97 C 451.26 329.26 453.97 328.54 456.52 327.41 C 460.83 325.65 464.22 322.06 468.90 321.13 C 471.10 320.37 473.44 318.46 473.29 315.92 C 471.83 311.33 466.20 311.47 462.89 308.94 C 461.29 308.10 463.04 304.52 464.56 307.00 C 465.58 308.15 466.39 306.86 466.92 305.96 C 468.31 307.61 469.40 309.85 471.77 310.25 C 471.72 308.60 471.66 306.97 471.58 305.33 C 466.77 303.95 460.40 303.16 456.74 307.34 C 456.28 307.02 455.36 306.38 454.90 306.06 C 454.71 304.63 454.53 303.21 454.35 301.79 C 453.64 301.71 452.22 301.55 451.51 301.46 C 451.29 300.92 450.85 299.82 450.63 299.27 C 444.30 297.63 437.85 295.91 431.25 296.22 C 427.66 296.41 424.41 298.52 420.78 298.24 M 399.24 297.53 C 397.96 299.00 400.67 300.03 401.45 298.69 C 402.72 297.22 400.02 296.20 399.24 297.53 M 381.77 328.21 C 381.15 329.74 380.46 331.25 380.07 332.87 C 380.44 334.38 382.52 334.36 383.59 335.20 L 383.56 333.40 C 385.07 334.56 386.59 335.71 388.17 336.80 C 387.89 336.11 387.31 334.73 387.03 334.05 C 387.62 334.18 388.80 334.45 389.39 334.58 C 389.02 332.64 387.30 332.18 385.70 331.69 C 385.53 329.54 383.28 329.13 381.77 328.21 M 454.89 332.43 C 453.59 332.29 452.28 332.20 450.99 332.13 C 451.13 332.77 451.41 334.04 451.56 334.68 L 451.98 333.90 L 452.34 333.32 C 453.41 333.19 454.07 333.82 454.34 335.22 L 454.80 335.26 C 454.76 334.59 454.68 333.25 454.65 332.57 C 455.21 333.13 456.33 334.25 456.89 334.82 C 457.83 334.31 458.76 333.79 459.71 333.28 C 458.90 333.31 457.29 333.36 456.48 333.39 L 456.47 332.08 C 456.96 331.56 457.92 330.52 458.41 329.99 C 456.98 330.40 455.56 330.99 454.89 332.43 M 460.36 332.27 C 460.89 332.82 460.89 332.82 460.36 332.27 M 436.04 335.22 C 435.92 336.06 435.81 336.90 435.71 337.75 C 434.99 336.70 434.25 335.69 433.49 334.69 C 433.05 335.11 432.17 335.96 431.72 336.38 C 427.84 335.99 423.88 335.88 420.03 336.63 C 419.55 336.41 418.59 335.97 418.11 335.76 C 417.58 336.06 416.52 336.67 415.98 336.98 C 415.95 337.73 415.89 339.23 415.86 339.98 C 416.38 340.14 417.42 340.48 417.94 340.65 C 419.31 340.46 420.69 340.29 422.09 340.13 C 422.13 339.48 422.23 338.19 422.28 337.55 C 422.48 338.23 422.89 339.60 423.09 340.28 L 424.45 340.23 C 424.37 339.67 424.19 338.56 424.11 338.01 C 425.45 339.33 426.82 340.63 428.18 341.94 C 429.23 340.97 430.28 340.01 431.35 339.05 C 431.78 339.28 432.65 339.73 433.08 339.96 C 434.61 339.66 436.16 339.37 437.70 339.09 C 437.85 338.52 438.13 337.37 438.27 336.79 C 438.73 337.67 439.19 338.55 439.66 339.43 C 439.89 338.73 440.35 337.32 440.58 336.62 C 441.06 338.03 441.52 339.45 442.01 340.88 C 443.53 339.01 443.73 336.57 444.05 334.28 C 441.38 334.63 438.71 334.92 436.04 335.22 M 411.17 336.96 C 410.21 340.14 413.48 340.78 415.82 340.08 C 414.71 339.32 413.47 338.80 412.24 338.30 C 412.40 337.29 412.56 336.28 412.73 335.28 C 413.54 335.69 415.16 336.49 415.97 336.89 C 416.33 333.61 410.51 333.86 411.17 336.96 M 444.36 337.30 C 444.66 340.64 447.26 335.62 444.36 337.30 Z" />
<path fill="#accac0" stroke="#accac0" stroke-width="0.09375" opacity="1.00" d=" M 404.05 296.37 C 407.33 296.29 410.61 296.19 413.90 296.04 L 413.83 296.62 C 410.62 296.95 407.41 297.31 404.21 297.66 C 404.17 297.34 404.09 296.69 404.05 296.37 Z" />
<path fill="#accac0" stroke="#accac0" stroke-width="0.09375" opacity="1.00" d=" M 420.78 298.24 C 424.41 298.52 427.66 296.41 431.25 296.22 C 437.85 295.91 444.30 297.63 450.63 299.27 C 450.85 299.82 451.29 300.92 451.51 301.46 C 452.22 301.55 453.64 301.71 454.35 301.79 C 454.53 303.21 454.71 304.63 454.90 306.06 C 455.36 306.38 456.28 307.02 456.74 307.34 C 456.64 307.44 456.43 307.62 456.32 307.72 C 455.37 308.14 454.43 308.60 453.52 309.08 C 453.65 310.00 453.82 310.92 454.02 311.84 C 453.52 311.68 452.52 311.37 452.02 311.21 C 452.51 314.61 451.93 318.02 451.21 321.35 C 450.76 316.45 450.92 311.52 451.27 306.62 C 452.38 306.03 453.49 305.43 454.60 304.83 C 451.33 304.82 448.06 304.84 444.79 304.87 C 445.94 305.53 447.08 306.22 448.22 306.93 C 448.24 307.27 448.29 307.93 448.32 308.27 C 446.59 309.13 444.88 310.00 443.18 310.89 C 440.60 308.87 438.11 306.72 435.47 304.78 C 434.45 304.61 433.41 304.21 432.39 304.37 C 432.11 306.63 432.01 308.91 431.82 311.18 C 428.79 309.36 426.02 307.13 423.68 304.47 C 421.83 303.97 419.98 303.46 418.14 302.94 C 418.71 303.51 419.27 304.10 419.84 304.69 C 419.12 304.73 417.69 304.80 416.97 304.84 C 415.14 304.96 413.32 305.20 411.51 305.42 C 412.76 306.05 414.01 306.68 415.27 307.31 C 414.26 309.25 413.36 311.25 412.38 313.20 C 410.28 312.43 408.43 311.14 406.96 309.45 C 408.17 307.73 409.72 306.29 411.23 304.84 C 408.62 305.00 406.00 305.10 403.40 305.26 C 403.89 305.80 404.36 306.38 404.80 306.98 C 404.70 307.40 404.49 308.25 404.39 308.67 C 404.19 308.34 403.81 307.69 403.62 307.36 C 401.29 306.94 398.87 307.07 396.53 306.63 C 397.47 306.25 398.33 305.77 399.09 305.17 C 395.02 305.12 390.93 305.17 386.87 304.80 C 387.46 305.34 388.04 305.89 388.63 306.45 C 387.72 307.05 386.82 307.67 385.95 308.31 C 385.68 307.11 385.38 305.92 385.05 304.75 C 383.69 304.26 382.28 303.93 380.90 303.55 C 385.32 301.14 390.04 299.33 394.97 298.27 C 393.56 299.56 392.15 300.83 390.81 302.19 C 392.68 301.43 394.45 300.44 396.09 299.24 C 397.59 299.50 398.97 299.99 399.19 301.70 C 397.52 302.16 395.90 302.76 394.40 303.63 C 396.77 303.92 399.04 304.63 401.00 305.97 C 401.33 305.58 402.01 304.80 402.34 304.41 C 405.49 303.87 408.71 304.37 411.89 304.48 C 412.50 303.61 413.11 302.75 413.73 301.89 C 416.11 301.43 419.79 302.42 420.29 299.10 C 419.14 299.88 417.99 300.66 416.87 301.47 C 416.67 300.83 416.28 299.54 416.08 298.90 C 417.61 298.50 419.18 298.14 420.78 298.24 Z" />
<path fill="#accac0" stroke="#accac0" stroke-width="0.09375" opacity="1.00" d=" M 399.24 297.53 C 400.02 296.20 402.72 297.22 401.45 298.69 C 400.67 300.03 397.96 299.00 399.24 297.53 Z" />
<path fill="#01745b" stroke="#01745b" stroke-width="0.09375" opacity="1.00" d=" M 270.47 299.14 C 271.00 299.26 272.05 299.48 272.58 299.60 C 272.54 300.29 272.47 301.67 272.43 302.36 C 272.96 302.64 274.02 303.19 274.55 303.46 C 274.62 304.15 274.77 305.52 274.84 306.21 C 273.16 304.00 271.76 301.60 270.47 299.14 Z" />
<path fill="#f7f8f8" stroke="#f7f8f8" stroke-width="0.09375" opacity="1.00" d=" M 418.14 302.94 C 419.98 303.46 421.83 303.97 423.68 304.47 C 426.02 307.13 428.79 309.36 431.82 311.18 C 432.01 308.91 432.11 306.63 432.39 304.37 C 433.41 304.21 434.45 304.61 435.47 304.78 C 434.89 304.89 433.74 305.10 433.17 305.20 C 432.00 306.54 432.49 308.34 432.48 309.95 C 432.78 313.15 432.57 316.35 432.28 319.55 C 430.71 319.52 429.15 319.49 427.60 319.33 C 428.91 317.10 430.50 315.04 432.01 312.94 C 428.83 310.16 425.34 307.49 421.15 306.46 C 420.72 305.85 420.28 305.26 419.84 304.69 C 419.27 304.10 418.71 303.51 418.14 302.94 Z" />
<path fill="#f7f8f8" stroke="#f7f8f8" stroke-width="0.09375" opacity="1.00" d=" M 411.51 305.42 C 413.32 305.20 415.14 304.96 416.97 304.84 C 416.36 305.63 415.80 306.45 415.27 307.31 C 414.01 306.68 412.76 306.05 411.51 305.42 Z" />
<path fill="#01745b" stroke="#01745b" stroke-width="0.09375" opacity="1.00" d=" M 456.74 307.34 C 460.40 303.16 466.77 303.95 471.58 305.33 C 471.66 306.97 471.72 308.60 471.77 310.25 C 469.40 309.85 468.31 307.61 466.92 305.96 C 466.39 306.86 465.58 308.15 464.56 307.00 C 463.04 304.52 461.29 308.10 462.89 308.94 C 466.20 311.47 471.83 311.33 473.29 315.92 C 473.44 318.46 471.10 320.37 468.90 321.13 C 465.06 321.67 461.03 321.77 457.33 320.47 C 456.62 318.58 456.54 316.54 456.29 314.56 C 456.97 314.63 458.34 314.76 459.02 314.83 C 459.72 316.83 460.90 319.02 463.14 319.53 C 464.97 320.04 466.52 318.78 468.03 318.01 C 464.74 313.81 455.80 314.60 456.32 307.72 C 456.43 307.62 456.64 307.44 456.74 307.34 Z" />
<path fill="#01745b" stroke="#01745b" stroke-width="0.09375" opacity="1.00" d=" M 367.77 304.57 C 373.53 304.69 379.30 304.41 385.05 304.75 C 385.38 305.92 385.68 307.11 385.95 308.31 C 385.69 308.68 385.18 309.44 384.93 309.82 C 383.88 308.80 382.84 307.79 381.82 306.77 C 380.10 306.68 378.39 306.60 376.69 306.53 C 376.63 308.24 376.58 309.95 376.53 311.67 C 377.72 311.66 378.91 311.66 380.12 311.66 C 381.23 310.77 382.37 309.90 383.53 309.05 C 383.41 311.48 383.10 313.89 382.53 316.26 C 381.79 315.31 381.05 314.36 380.31 313.42 C 379.36 313.44 377.46 313.48 376.51 313.50 C 376.56 315.48 376.63 317.47 376.70 319.47 C 378.41 319.40 380.15 319.47 381.85 319.15 C 383.72 318.20 384.79 316.28 386.18 314.81 C 386.42 315.86 386.65 316.93 386.82 318.01 C 386.74 318.67 386.59 320.01 386.51 320.67 L 385.63 320.71 C 379.65 320.97 373.67 320.82 367.70 320.79 C 368.62 320.16 369.56 319.55 370.50 318.94 C 370.57 315.08 370.82 311.20 370.48 307.34 C 369.60 306.39 368.69 305.46 367.77 304.57 Z" />
<path fill="#01745b" stroke="#01745b" stroke-width="0.09375" opacity="1.00" d=" M 386.87 304.80 C 390.93 305.17 395.02 305.12 399.09 305.17 C 398.33 305.77 397.47 306.25 396.53 306.63 C 398.13 309.75 399.61 312.92 401.02 316.12 C 402.02 313.58 403.24 311.14 404.39 308.67 C 404.49 308.25 404.70 307.40 404.80 306.98 C 404.36 306.38 403.89 305.80 403.40 305.26 C 406.00 305.10 408.62 305.00 411.23 304.84 C 409.72 306.29 408.17 307.73 406.96 309.45 C 405.11 313.48 403.10 317.42 400.97 321.31 C 399.71 321.24 398.46 321.17 397.21 321.10 C 395.63 318.12 394.11 315.12 392.52 312.17 C 391.39 310.15 390.17 308.17 388.63 306.45 C 388.04 305.89 387.46 305.34 386.87 304.80 Z" />
<path fill="#01745b" stroke="#01745b" stroke-width="0.09375" opacity="1.00" d=" M 415.27 307.31 C 415.80 306.45 416.36 305.63 416.97 304.84 C 417.69 304.80 419.12 304.73 419.84 304.69 C 420.28 305.26 420.72 305.85 421.15 306.46 C 423.12 310.83 425.10 315.22 427.60 319.33 C 429.15 319.49 430.71 319.52 432.28 319.55 C 432.57 316.35 432.78 313.15 432.48 309.95 C 432.49 308.34 432.00 306.54 433.17 305.20 C 433.74 305.10 434.89 304.89 435.47 304.78 C 438.11 306.72 440.60 308.87 443.18 310.89 C 444.94 312.27 446.68 313.67 448.43 315.08 C 448.40 312.81 448.39 310.54 448.32 308.27 C 448.29 307.93 448.24 307.27 448.22 306.93 C 447.08 306.22 445.94 305.53 444.79 304.87 C 448.06 304.84 451.33 304.82 454.60 304.83 C 453.49 305.43 452.38 306.03 451.27 306.62 C 450.92 311.52 450.76 316.45 451.21 321.35 C 450.39 321.36 448.77 321.36 447.96 321.37 C 443.80 317.95 439.47 314.75 435.32 311.34 C 435.38 313.91 435.43 316.50 435.52 319.08 C 436.76 319.69 438.00 320.31 439.23 320.95 C 432.13 320.32 425.08 321.88 418.01 321.13 C 418.36 319.86 419.55 319.45 420.70 319.07 C 420.15 317.97 419.61 316.87 419.07 315.77 C 417.36 315.76 415.66 315.76 413.96 315.76 C 413.44 316.80 412.93 317.83 412.42 318.87 C 413.41 319.57 414.41 320.29 415.40 321.02 C 412.45 321.20 409.50 321.18 406.56 321.09 C 408.95 318.82 411.06 316.25 412.38 313.20 C 413.36 311.25 414.26 309.25 415.27 307.31 M 415.41 314.07 C 415.95 314.08 417.03 314.09 417.57 314.10 C 418.17 312.96 417.94 312.03 416.87 311.31 C 415.45 310.95 414.58 313.06 415.41 314.07 Z" />
<path fill="#f7f8f8" stroke="#f7f8f8" stroke-width="0.09375" opacity="1.00" d=" M 376.69 306.53 C 378.39 306.60 380.10 306.68 381.82 306.77 C 382.84 307.79 383.88 308.80 384.93 309.82 C 385.18 309.44 385.69 308.68 385.95 308.31 C 386.82 307.67 387.72 307.05 388.63 306.45 C 390.17 308.17 391.39 310.15 392.52 312.17 C 390.04 312.16 387.57 312.17 385.10 312.20 C 385.37 312.85 385.91 314.15 386.18 314.81 C 384.79 316.28 383.72 318.20 381.85 319.15 C 380.15 319.47 378.41 319.40 376.70 319.47 C 376.63 317.47 376.56 315.48 376.51 313.50 C 377.46 313.48 379.36 313.44 380.31 313.42 C 381.05 314.36 381.79 315.31 382.53 316.26 C 383.10 313.89 383.41 311.48 383.53 309.05 C 382.37 309.90 381.23 310.77 380.12 311.66 C 378.91 311.66 377.72 311.66 376.53 311.67 C 376.58 309.95 376.63 308.24 376.69 306.53 Z" />
<path fill="#f7f8f8" stroke="#f7f8f8" stroke-width="0.09375" opacity="1.00" d=" M 396.53 306.63 C 398.87 307.07 401.29 306.94 403.62 307.36 C 403.81 307.69 404.19 308.34 404.39 308.67 C 403.24 311.14 402.02 313.58 401.02 316.12 C 399.61 312.92 398.13 309.75 396.53 306.63 Z" />
<path fill="#accac0" stroke="#accac0" stroke-width="0.09375" opacity="1.00" d=" M 421.15 306.46 C 425.34 307.49 428.83 310.16 432.01 312.94 C 430.50 315.04 428.91 317.10 427.60 319.33 C 425.10 315.22 423.12 310.83 421.15 306.46 Z" />
<path fill="#f7f8f8" stroke="#f7f8f8" stroke-width="0.09375" opacity="1.00" d=" M 443.18 310.89 C 444.88 310.00 446.59 309.13 448.32 308.27 C 448.39 310.54 448.40 312.81 448.43 315.08 C 446.68 313.67 444.94 312.27 443.18 310.89 Z" />
<path fill="#01745b" stroke="#01745b" stroke-width="0.09375" opacity="1.00" d=" M 277.56 310.66 C 277.84 310.93 278.39 311.47 278.66 311.74 C 279.54 312.73 280.39 313.77 281.25 314.79 C 281.44 315.78 281.64 316.77 281.87 317.76 C 279.79 315.82 278.50 313.30 277.56 310.66 Z" />
<path fill="#f7f8f8" stroke="#f7f8f8" stroke-width="0.09375" opacity="1.00" d=" M 415.41 314.07 C 414.58 313.06 415.45 310.95 416.87 311.31 C 417.94 312.03 418.17 312.96 417.57 314.10 C 417.03 314.09 415.95 314.08 415.41 314.07 Z" />
<path fill="#231f20" stroke="#231f20" stroke-width="0.09375" opacity="1.00" d=" M 534.63 309.35 C 540.24 316.65 545.45 324.25 550.85 331.71 C 548.89 334.36 546.83 337.23 543.63 338.44 C 540.74 339.82 537.49 339.35 534.41 339.20 C 534.77 329.25 534.49 319.30 534.63 309.35 Z" />
<path fill="#231f20" stroke="#231f20" stroke-width="0.09375" opacity="1.00" d=" M 306.81 311.53 C 307.97 320.16 308.72 328.85 310.01 337.46 C 304.98 340.30 298.81 339.93 294.17 336.49 C 298.54 328.25 302.56 319.83 306.81 311.53 Z" />
<path fill="#accac0" stroke="#accac0" stroke-width="0.09375" opacity="1.00" d=" M 385.10 312.20 C 387.57 312.17 390.04 312.16 392.52 312.17 C 394.11 315.12 395.63 318.12 397.21 321.10 C 398.46 321.17 399.71 321.24 400.97 321.31 C 398.57 321.60 396.60 322.93 395.04 324.72 C 395.45 325.90 395.85 327.09 396.25 328.28 C 391.76 326.26 389.59 321.76 386.82 318.01 C 386.65 316.93 386.42 315.86 386.18 314.81 C 385.91 314.15 385.37 312.85 385.10 312.20 Z" />
<path fill="#accac0" stroke="#accac0" stroke-width="0.09375" opacity="1.00" d=" M 455.47 314.31 L 456.29 314.56 C 456.54 316.54 456.62 318.58 457.33 320.47 C 461.03 321.77 465.06 321.67 468.90 321.13 C 464.22 322.06 460.83 325.65 456.52 327.41 C 453.97 328.54 451.26 329.26 448.58 329.97 L 449.02 330.96 L 448.46 330.91 C 446.95 330.79 445.44 330.69 443.94 330.61 C 448.40 329.28 452.97 328.18 457.24 326.28 C 458.77 325.73 459.42 324.15 460.13 322.83 C 457.90 322.53 455.69 323.18 453.49 323.30 C 452.87 321.15 454.86 320.14 456.18 318.93 C 455.95 317.39 455.71 315.84 455.47 314.31 Z" />
<path fill="#accac0" stroke="#accac0" stroke-width="0.09375" opacity="1.00" d=" M 367.70 320.79 C 373.67 320.82 379.65 320.97 385.63 320.71 L 385.75 321.60 C 383.05 321.48 380.34 321.41 377.65 321.47 C 380.26 324.80 384.32 326.35 388.18 327.73 C 392.63 329.23 397.15 330.94 401.93 330.87 C 409.35 330.83 416.84 331.63 424.20 330.31 C 429.76 329.71 435.41 329.64 441.00 329.92 C 441.58 330.26 442.73 330.93 443.31 331.26 C 427.22 334.41 410.44 334.11 394.47 330.42 L 394.12 331.18 C 394.07 331.92 393.96 333.40 393.91 334.14 C 392.78 334.91 391.64 335.68 390.52 336.45 C 390.64 334.75 391.49 333.30 391.46 331.61 L 390.16 331.15 C 390.81 331.06 392.11 330.86 392.77 330.76 C 392.77 330.56 392.77 330.15 392.77 329.94 C 387.01 328.24 380.83 326.51 376.64 321.93 C 373.88 321.50 371.09 321.42 368.31 321.49 L 367.70 320.79 Z" />
<path fill="#01745b" stroke="#01745b" stroke-width="0.09375" opacity="1.00" d=" M 381.77 328.21 C 383.28 329.13 385.53 329.54 385.70 331.69 C 387.30 332.18 389.02 332.64 389.39 334.58 C 388.80 334.45 387.62 334.18 387.03 334.05 C 387.31 334.73 387.89 336.11 388.17 336.80 C 386.59 335.71 385.07 334.56 383.56 333.40 L 383.59 335.20 C 382.52 334.36 380.44 334.38 380.07 332.87 C 380.46 331.25 381.15 329.74 381.77 328.21 M 382.19 330.58 C 380.68 331.49 381.96 334.33 383.55 332.92 C 385.11 332.03 383.73 329.24 382.19 330.58 Z" />
<path fill="#f7f8f8" stroke="#f7f8f8" stroke-width="0.09375" opacity="1.00" d=" M 382.19 330.58 C 383.73 329.24 385.11 332.03 383.55 332.92 C 381.96 334.33 380.68 331.49 382.19 330.58 Z" />
<path fill="#01745b" stroke="#01745b" stroke-width="0.09375" opacity="1.00" d=" M 454.89 332.43 C 455.56 330.99 456.98 330.40 458.41 329.99 C 457.92 330.52 456.96 331.56 456.47 332.08 L 456.48 333.39 C 457.29 333.36 458.90 333.31 459.71 333.28 C 458.76 333.79 457.83 334.31 456.89 334.82 C 456.33 334.25 455.21 333.13 454.65 332.57 C 454.68 333.25 454.76 334.59 454.80 335.26 L 454.34 335.22 C 454.07 333.82 453.41 333.19 452.34 333.32 L 451.98 333.90 L 451.56 334.68 C 451.41 334.04 451.13 332.77 450.99 332.13 C 452.28 332.20 453.59 332.29 454.89 332.43 Z" />
<path fill="#01745b" stroke="#01745b" stroke-width="0.09375" opacity="1.00" d=" M 448.46 330.91 L 449.02 330.96 C 450.25 332.82 450.55 335.06 450.69 337.23 C 449.02 335.57 448.47 333.20 448.46 330.91 Z" />
<path fill="#01745b" stroke="#01745b" stroke-width="0.09375" opacity="1.00" d=" M 391.46 331.61 C 391.49 333.30 390.64 334.75 390.52 336.45 C 391.64 335.68 392.78 334.91 393.91 334.14 C 394.86 334.45 395.81 334.81 396.79 335.12 C 400.04 335.56 403.52 335.08 406.49 336.78 C 407.02 336.53 408.09 336.03 408.63 335.78 C 407.69 337.84 406.75 339.90 405.65 341.88 C 405.40 339.56 406.14 335.97 402.59 336.13 C 402.49 336.89 402.29 338.42 402.19 339.18 L 401.31 339.11 L 401.62 337.48 C 401.07 337.36 399.96 337.13 399.41 337.02 C 399.48 337.54 399.61 338.58 399.67 339.10 C 397.99 338.49 396.42 337.64 397.08 335.30 C 396.27 336.33 395.48 337.36 394.69 338.41 C 394.40 337.34 394.08 336.28 393.75 335.23 C 393.34 335.55 392.51 336.19 392.09 336.51 C 391.10 336.47 390.10 336.44 389.12 336.42 C 389.52 334.62 390.30 333.02 391.46 331.61 Z" />
<path fill="#78aea4" stroke="#78aea4" stroke-width="0.09375" opacity="1.00" d=" M 460.36 332.27 C 460.89 332.82 460.89 332.82 460.36 332.27 Z" />
<path fill="#78aea4" stroke="#78aea4" stroke-width="0.09375" opacity="1.00" d=" M 436.04 335.22 C 438.71 334.92 441.38 334.63 444.05 334.28 C 443.73 336.57 443.53 339.01 442.01 340.88 C 441.52 339.45 441.06 338.03 440.58 336.62 C 440.35 337.32 439.89 338.73 439.66 339.43 C 439.19 338.55 438.73 337.67 438.27 336.79 C 438.13 337.37 437.85 338.52 437.70 339.09 C 436.16 339.37 434.61 339.66 433.08 339.96 C 432.65 339.73 431.78 339.28 431.35 339.05 C 430.28 340.01 429.23 340.97 428.18 341.94 C 426.82 340.63 425.45 339.33 424.11 338.01 C 424.19 338.56 424.37 339.67 424.45 340.23 L 423.09 340.28 C 422.89 339.60 422.48 338.23 422.28 337.55 C 422.23 338.19 422.13 339.48 422.09 340.13 C 420.69 340.29 419.31 340.46 417.94 340.65 C 417.42 340.48 416.38 340.14 415.86 339.98 C 415.89 339.23 415.95 337.73 415.98 336.98 C 416.52 336.67 417.58 336.06 418.11 335.76 C 418.59 335.97 419.55 336.41 420.03 336.63 C 423.88 335.88 427.84 335.99 431.72 336.38 C 432.17 335.96 433.05 335.11 433.49 334.69 C 434.25 335.69 434.99 336.70 435.71 337.75 C 435.81 336.90 435.92 336.06 436.04 335.22 M 429.05 337.31 C 427.57 340.32 432.37 337.37 429.05 337.31 M 418.21 338.28 C 418.72 338.77 418.72 338.77 418.21 338.28 Z" />
<path fill="#01745b" stroke="#01745b" stroke-width="0.09375" opacity="1.00" d=" M 411.17 336.96 C 410.51 333.86 416.33 333.61 415.97 336.89 C 415.16 336.49 413.54 335.69 412.73 335.28 C 412.56 336.28 412.40 337.29 412.24 338.30 C 413.47 338.80 414.71 339.32 415.82 340.08 C 413.48 340.78 410.21 340.14 411.17 336.96 Z" />
<path fill="#accac0" stroke="#accac0" stroke-width="0.09375" opacity="1.00" d=" M 429.05 337.31 C 432.37 337.37 427.57 340.32 429.05 337.31 Z" />
<path fill="#78aea4" stroke="#78aea4" stroke-width="0.09375" opacity="1.00" d=" M 444.36 337.30 C 447.26 335.62 444.66 340.64 444.36 337.30 Z" />
<path fill="#accac0" stroke="#accac0" stroke-width="0.09375" opacity="1.00" d=" M 418.21 338.28 C 418.72 338.77 418.72 338.77 418.21 338.28 Z" />
<path fill="#78aea4" stroke="#78aea4" stroke-width="0.09375" opacity="1.00" d=" M 350.58 364.97 C 350.28 362.49 353.16 361.85 354.68 360.61 C 355.83 361.69 357.36 362.49 358.12 363.94 C 359.04 366.51 356.45 368.09 355.05 369.79 C 353.42 368.36 350.20 367.68 350.58 364.97 Z" />
<path fill="#78aea4" stroke="#78aea4" stroke-width="0.09375" opacity="1.00" d=" M 482.97 364.98 C 484.18 363.00 485.90 361.48 487.97 360.43 C 489.31 361.90 491.11 363.11 491.93 364.99 C 491.34 367.03 489.39 368.28 488.05 369.82 C 485.88 368.75 484.22 367.03 482.97 364.98 Z" />
<path fill="#78aea4" stroke="#78aea4" stroke-width="0.09375" opacity="1.00" d=" M 373.15 378.97 C 395.43 378.72 417.71 378.92 439.99 378.85 C 449.52 378.98 459.06 378.50 468.57 379.27 C 468.60 381.12 468.62 382.98 468.64 384.84 C 436.81 384.88 404.97 384.88 373.14 384.84 C 373.12 382.88 373.12 380.92 373.15 378.97 Z" />
<path fill="#01745b" stroke="#01745b" stroke-width="0.09375" opacity="1.00" d=" M 351.29 384.96 C 358.57 384.76 365.85 384.93 373.14 384.84 C 404.97 384.88 436.81 384.88 468.64 384.84 C 475.34 384.88 482.04 384.87 488.74 384.86 C 488.09 389.56 488.10 394.35 487.05 399.00 C 484.02 412.33 476.76 424.54 466.79 433.87 C 435.54 433.82 404.28 434.01 373.03 433.78 C 359.42 421.54 351.10 403.34 351.29 384.96 Z" />
<path fill="#fcba63" stroke="#fcba63" stroke-width="0.09375" opacity="1.00" d=" M 348.10 450.00 C 348.22 446.31 351.02 442.86 354.96 443.25 C 398.32 443.23 441.69 443.22 485.06 443.26 C 489.02 442.90 491.33 446.55 491.90 450.00 L 348.10 450.00 Z" />
</svg>
